G75*
G70*
%OFA0B0*%
%FSLAX24Y24*%
%IPPOS*%
%LPD*%
%AMOC8*
5,1,8,0,0,1.08239X$1,22.5*
%
%ADD10R,0.0520X0.0520*%
%ADD11C,0.0520*%
%ADD12C,0.0600*%
%ADD13OC8,0.0600*%
%ADD14OC8,0.0520*%
%ADD15R,0.0600X0.0600*%
%ADD16OC8,0.0630*%
%ADD17C,0.0630*%
%ADD18C,0.0100*%
%ADD19C,0.0396*%
%ADD20C,0.0357*%
%ADD21C,0.0320*%
%ADD22C,0.0240*%
%ADD23C,0.0160*%
D10*
X012693Y010143D03*
X006693Y013143D03*
X002693Y013143D03*
X012693Y020143D03*
X011693Y022143D03*
X006693Y021143D03*
X002693Y021143D03*
X018693Y022143D03*
X025693Y022143D03*
X030693Y021143D03*
X025693Y015143D03*
X029693Y014143D03*
X020193Y009143D03*
D11*
X020193Y008143D03*
X020193Y007143D03*
X020193Y006143D03*
X020193Y005143D03*
X020193Y004143D03*
X020193Y003143D03*
X018693Y003143D03*
X017693Y003143D03*
X017693Y004143D03*
X018693Y004143D03*
X018693Y005143D03*
X017693Y005143D03*
X017693Y006143D03*
X018693Y006143D03*
X018693Y007143D03*
X017693Y007143D03*
X017693Y008143D03*
X018693Y008143D03*
X018693Y009143D03*
X017693Y009143D03*
X017693Y010143D03*
X018693Y010143D03*
X018693Y011143D03*
X017693Y011143D03*
X017693Y012143D03*
X018693Y012143D03*
X018693Y013143D03*
X017693Y013143D03*
X017693Y014143D03*
X018693Y014143D03*
X018693Y015143D03*
X017693Y015143D03*
X017693Y016143D03*
X018693Y016143D03*
X018693Y017143D03*
X017693Y017143D03*
X017693Y018143D03*
X018693Y018143D03*
X018693Y019143D03*
X017693Y019143D03*
X017693Y020143D03*
X018693Y020143D03*
X018693Y021143D03*
X017693Y021143D03*
X017693Y022143D03*
X015693Y020143D03*
X015693Y019143D03*
X015693Y018143D03*
X015693Y017143D03*
X015693Y016143D03*
X015693Y015143D03*
X015693Y014143D03*
X012693Y014143D03*
X011693Y014143D03*
X011693Y013143D03*
X011693Y012143D03*
X011693Y011143D03*
X011693Y010143D03*
X011693Y009143D03*
X012693Y009143D03*
X012693Y008143D03*
X011693Y008143D03*
X011693Y007143D03*
X012693Y007143D03*
X012693Y006143D03*
X012693Y005143D03*
X011693Y005143D03*
X011693Y006143D03*
X009693Y006143D03*
X009693Y007143D03*
X009693Y008143D03*
X009693Y009143D03*
X009693Y010143D03*
X009693Y011143D03*
X009693Y012143D03*
X009693Y013143D03*
X009693Y015143D03*
X009693Y016143D03*
X009693Y017143D03*
X009693Y018143D03*
X009693Y019143D03*
X009693Y020143D03*
X009693Y021143D03*
X011693Y021143D03*
X011693Y020143D03*
X011693Y019143D03*
X012693Y019143D03*
X012693Y018143D03*
X011693Y018143D03*
X011693Y017143D03*
X012693Y017143D03*
X012693Y016143D03*
X012693Y015143D03*
X011693Y015143D03*
X011693Y016143D03*
X006693Y016143D03*
X006693Y015143D03*
X005693Y015143D03*
X005693Y016143D03*
X005693Y017143D03*
X006693Y017143D03*
X006693Y018143D03*
X005693Y018143D03*
X005693Y019143D03*
X006693Y019143D03*
X006693Y020143D03*
X005693Y020143D03*
X005693Y021143D03*
X002693Y020143D03*
X002693Y019143D03*
X002693Y018143D03*
X002693Y017143D03*
X002693Y016143D03*
X002693Y015143D03*
X005693Y013143D03*
X005693Y012143D03*
X006693Y012143D03*
X006693Y011143D03*
X005693Y011143D03*
X005693Y010143D03*
X006693Y010143D03*
X006693Y009143D03*
X005693Y009143D03*
X005693Y008143D03*
X006693Y008143D03*
X006693Y007143D03*
X005693Y007143D03*
X005693Y006143D03*
X006693Y006143D03*
X002693Y006143D03*
X002693Y007143D03*
X002693Y008143D03*
X002693Y009143D03*
X002693Y010143D03*
X002693Y011143D03*
X002693Y012143D03*
X011693Y004143D03*
X012693Y004143D03*
X011693Y003143D03*
X015693Y004143D03*
X015693Y005143D03*
X015693Y006143D03*
X015693Y007143D03*
X015693Y008143D03*
X015693Y009143D03*
X015693Y010143D03*
X023193Y009143D03*
X023193Y008143D03*
X023193Y007143D03*
X023193Y006143D03*
X023193Y005143D03*
X023193Y004143D03*
X023193Y003143D03*
X024693Y003143D03*
X024693Y004143D03*
X024693Y005143D03*
X024693Y006143D03*
X025693Y006143D03*
X025693Y007143D03*
X024693Y007143D03*
X024693Y008143D03*
X025693Y008143D03*
X025693Y009143D03*
X024693Y009143D03*
X024693Y010143D03*
X025693Y010143D03*
X025693Y011143D03*
X024693Y011143D03*
X024693Y012143D03*
X025693Y012143D03*
X025693Y013143D03*
X024693Y013143D03*
X024693Y014143D03*
X025693Y014143D03*
X024693Y015143D03*
X024693Y016143D03*
X025693Y016143D03*
X025693Y017143D03*
X024693Y017143D03*
X024693Y018143D03*
X025693Y018143D03*
X025693Y019143D03*
X024693Y019143D03*
X024693Y020143D03*
X025693Y020143D03*
X025693Y021143D03*
X024693Y021143D03*
X024693Y022143D03*
X028693Y022143D03*
X028693Y021143D03*
X028693Y020143D03*
X028693Y019143D03*
X028693Y018143D03*
X028693Y017143D03*
X028693Y016143D03*
X028693Y015143D03*
X028693Y014143D03*
X028693Y013143D03*
X029693Y013143D03*
X029693Y012143D03*
X028693Y012143D03*
X028693Y011143D03*
X029693Y011143D03*
X029693Y010143D03*
X028693Y010143D03*
X028693Y009143D03*
X029693Y009143D03*
X029693Y008143D03*
X028693Y008143D03*
X028693Y007143D03*
X029693Y007143D03*
X029693Y006143D03*
X028693Y006143D03*
X030693Y015143D03*
X030693Y016143D03*
X030693Y017143D03*
X030693Y018143D03*
X030693Y019143D03*
X030693Y020143D03*
X033693Y020143D03*
X033693Y019143D03*
X033693Y018143D03*
X033693Y017143D03*
X033693Y016143D03*
X033693Y015143D03*
X033693Y021143D03*
D12*
X016693Y021143D03*
X016693Y020143D03*
X016693Y019143D03*
X016693Y018143D03*
X016693Y017143D03*
X016693Y016143D03*
X016693Y015143D03*
X016693Y014143D03*
X016693Y013143D03*
X016693Y012143D03*
X016693Y011143D03*
X016693Y010143D03*
X016693Y009143D03*
X016693Y008143D03*
X016693Y007143D03*
X016693Y006143D03*
X016693Y005143D03*
X016693Y004143D03*
X016693Y003143D03*
X010693Y003143D03*
X010693Y004143D03*
X010693Y005143D03*
X010693Y006143D03*
X010693Y007143D03*
X010693Y008143D03*
X010693Y009143D03*
X010693Y010143D03*
X010693Y011143D03*
X010693Y012143D03*
X010693Y013143D03*
X010693Y014143D03*
X010693Y015143D03*
X010693Y016143D03*
X010693Y017143D03*
X010693Y018143D03*
X010693Y019143D03*
X010693Y020143D03*
X010693Y021143D03*
X010693Y022143D03*
X016693Y022143D03*
D13*
X021193Y021143D03*
X022193Y021143D03*
X023193Y021143D03*
X031693Y013143D03*
X031693Y012143D03*
X031693Y011143D03*
X031693Y010143D03*
X031693Y009143D03*
X031693Y008143D03*
X031693Y007143D03*
X031693Y006143D03*
X030693Y004143D03*
X029693Y004143D03*
X028693Y004143D03*
X027693Y004143D03*
X026693Y004143D03*
X027693Y003143D03*
X028693Y003143D03*
X029693Y003143D03*
X030693Y003143D03*
X009193Y005143D03*
X008193Y005143D03*
X007193Y005143D03*
X006193Y005143D03*
X005193Y005143D03*
X004193Y005143D03*
X003193Y005143D03*
D14*
X013693Y011143D03*
X014693Y011143D03*
X020193Y011143D03*
X021193Y011143D03*
X022193Y011143D03*
X023193Y011143D03*
X022193Y010143D03*
X021193Y010143D03*
X021193Y014143D03*
X022193Y014143D03*
X023193Y014143D03*
X023193Y015143D03*
X022193Y015143D03*
X021193Y015143D03*
X020193Y015143D03*
X020193Y014143D03*
X020193Y018143D03*
X021193Y018143D03*
X022193Y018143D03*
X023193Y018143D03*
X029693Y017143D03*
X029693Y016143D03*
X031693Y014143D03*
X032693Y014143D03*
X029693Y021143D03*
X029693Y022143D03*
X031693Y022143D03*
X032693Y022143D03*
X014693Y021143D03*
X013693Y021143D03*
X008693Y022143D03*
X007693Y022143D03*
X004693Y022143D03*
X003693Y022143D03*
X003693Y014143D03*
X004693Y014143D03*
X007693Y014143D03*
X008693Y014143D03*
D15*
X020193Y021143D03*
X026693Y003143D03*
D16*
X022193Y019643D03*
X021193Y019643D03*
D17*
X020193Y019643D03*
X023193Y019643D03*
D18*
X002143Y022693D02*
X002143Y002593D01*
X034243Y002593D01*
X034243Y022693D01*
X002143Y022693D01*
X002143Y022631D02*
X034243Y022631D01*
X034243Y022533D02*
X032883Y022533D01*
X032863Y022553D02*
X032723Y022553D01*
X032723Y022173D01*
X033103Y022173D01*
X033103Y022313D01*
X032863Y022553D01*
X032723Y022533D02*
X032663Y022533D01*
X032663Y022553D02*
X032523Y022553D01*
X032283Y022313D01*
X032283Y022173D01*
X032663Y022173D01*
X032663Y022113D01*
X032283Y022113D01*
X032283Y021973D01*
X032363Y021893D01*
X031994Y021893D01*
X032083Y021982D01*
X032083Y022305D01*
X031854Y022533D01*
X031531Y022533D01*
X029883Y022533D01*
X029863Y022553D02*
X029723Y022553D01*
X029723Y022173D01*
X030103Y022173D01*
X030103Y022313D01*
X029863Y022553D01*
X029723Y022533D02*
X029663Y022533D01*
X029663Y022553D02*
X029523Y022553D01*
X029283Y022313D01*
X029283Y022173D01*
X029663Y022173D01*
X029663Y022113D01*
X029723Y022113D01*
X029723Y021733D01*
X029863Y021733D01*
X030103Y021973D01*
X030103Y022113D01*
X029723Y022113D01*
X029723Y022173D01*
X029663Y022173D01*
X029663Y022553D01*
X029663Y022434D02*
X029723Y022434D01*
X029723Y022336D02*
X029663Y022336D01*
X029663Y022237D02*
X029723Y022237D01*
X029723Y022139D02*
X031303Y022139D01*
X031303Y022237D02*
X030103Y022237D01*
X030080Y022336D02*
X031334Y022336D01*
X031303Y022305D02*
X031303Y021982D01*
X031391Y021893D01*
X030143Y021893D01*
X030051Y021855D01*
X029981Y021785D01*
X029729Y021533D01*
X029656Y021533D01*
X029083Y022107D01*
X029083Y022221D01*
X029023Y022364D01*
X028914Y022474D01*
X028770Y022533D01*
X028615Y022533D01*
X028472Y022474D01*
X028362Y022364D01*
X028303Y022221D01*
X028303Y022107D01*
X028089Y021893D01*
X026083Y021893D01*
X026083Y022457D01*
X026007Y022533D01*
X028614Y022533D01*
X028772Y022533D02*
X029503Y022533D01*
X029404Y022434D02*
X028953Y022434D01*
X029035Y022336D02*
X029306Y022336D01*
X029283Y022237D02*
X029076Y022237D01*
X029083Y022139D02*
X029663Y022139D01*
X029663Y022113D02*
X029283Y022113D01*
X029283Y021973D01*
X029523Y021733D01*
X029663Y021733D01*
X029663Y022113D01*
X029663Y022040D02*
X029723Y022040D01*
X029723Y021942D02*
X029663Y021942D01*
X029663Y021843D02*
X029723Y021843D01*
X029723Y021745D02*
X029663Y021745D01*
X029511Y021745D02*
X029445Y021745D01*
X029413Y021843D02*
X029346Y021843D01*
X029314Y021942D02*
X029248Y021942D01*
X029283Y022040D02*
X029149Y022040D01*
X028836Y021646D02*
X028549Y021646D01*
X028615Y021533D02*
X028472Y021474D01*
X028362Y021364D01*
X028303Y021221D01*
X028303Y021066D01*
X028362Y020922D01*
X028431Y020853D01*
X026106Y020853D01*
X025983Y020730D01*
X025781Y020529D01*
X025770Y020533D01*
X025615Y020533D01*
X025472Y020474D01*
X025362Y020364D01*
X025303Y020221D01*
X025303Y020066D01*
X025362Y019922D01*
X025431Y019853D01*
X025106Y019853D01*
X024781Y019529D01*
X024770Y019533D01*
X024615Y019533D01*
X024472Y019474D01*
X024362Y019364D01*
X024303Y019221D01*
X024303Y019066D01*
X024362Y018922D01*
X024431Y018853D01*
X024356Y018853D01*
X024233Y018730D01*
X023583Y018080D01*
X023583Y018305D01*
X023354Y018533D01*
X023031Y018533D01*
X022803Y018305D01*
X022803Y017982D01*
X023031Y017753D01*
X023256Y017753D01*
X023231Y017728D01*
X020030Y017728D01*
X019653Y018105D01*
X019653Y018355D01*
X019530Y018478D01*
X019278Y018730D01*
X019278Y018730D01*
X019155Y018853D01*
X018954Y018853D01*
X019023Y018922D01*
X019083Y019066D01*
X019083Y019221D01*
X019023Y019364D01*
X018954Y019433D01*
X018981Y019433D01*
X019733Y018681D01*
X019856Y018558D01*
X021356Y018558D01*
X021483Y018431D01*
X021483Y018405D01*
X021354Y018533D01*
X021031Y018533D01*
X020803Y018305D01*
X020803Y017982D01*
X021031Y017753D01*
X021354Y017753D01*
X021534Y017933D01*
X021851Y017933D01*
X022031Y017753D01*
X022354Y017753D01*
X022583Y017982D01*
X022583Y018305D01*
X022354Y018533D01*
X022031Y018533D01*
X021903Y018405D01*
X021903Y018605D01*
X021780Y018728D01*
X021530Y018978D01*
X020030Y018978D01*
X019155Y019853D01*
X018954Y019853D01*
X019023Y019922D01*
X019083Y020066D01*
X019083Y020221D01*
X019023Y020364D01*
X018914Y020474D01*
X018770Y020533D01*
X018615Y020533D01*
X018472Y020474D01*
X018362Y020364D01*
X018303Y020221D01*
X018303Y020066D01*
X018362Y019922D01*
X018431Y019853D01*
X017954Y019853D01*
X018023Y019922D01*
X018083Y020066D01*
X018083Y020221D01*
X018023Y020364D01*
X017914Y020474D01*
X017770Y020533D01*
X017615Y020533D01*
X017472Y020474D01*
X017431Y020433D01*
X017011Y020433D01*
X016936Y020508D01*
X016778Y020573D01*
X016607Y020573D01*
X016475Y020518D01*
X016501Y020582D01*
X016501Y020705D01*
X016475Y020768D01*
X016607Y020713D01*
X016778Y020713D01*
X016936Y020779D01*
X017011Y020853D01*
X017431Y020853D01*
X017472Y020813D01*
X017615Y020753D01*
X017770Y020753D01*
X017914Y020813D01*
X018023Y020922D01*
X018083Y021066D01*
X018083Y021221D01*
X018023Y021364D01*
X017994Y021393D01*
X018391Y021393D01*
X018362Y021364D01*
X018303Y021221D01*
X018303Y021066D01*
X018362Y020922D01*
X018472Y020813D01*
X018615Y020753D01*
X018770Y020753D01*
X018914Y020813D01*
X019023Y020922D01*
X019083Y021066D01*
X019083Y021221D01*
X019023Y021364D01*
X018994Y021393D01*
X019763Y021393D01*
X019763Y020789D01*
X019839Y020713D01*
X020547Y020713D01*
X020623Y020789D01*
X020623Y021393D01*
X020806Y021393D01*
X020743Y021330D01*
X020743Y021193D01*
X021143Y021193D01*
X021143Y021093D01*
X021243Y021093D01*
X021243Y020693D01*
X021379Y020693D01*
X021643Y020957D01*
X021643Y021093D01*
X021243Y021093D01*
X021243Y021193D01*
X021643Y021193D01*
X021643Y021330D01*
X021579Y021393D01*
X021806Y021393D01*
X021743Y021330D01*
X021743Y021193D01*
X022143Y021193D01*
X022143Y021093D01*
X022243Y021093D01*
X022243Y020693D01*
X022379Y020693D01*
X022643Y020957D01*
X022643Y021093D01*
X022243Y021093D01*
X022243Y021193D01*
X022643Y021193D01*
X022643Y021330D01*
X022579Y021393D01*
X022835Y021393D01*
X022763Y021321D01*
X022763Y020965D01*
X023015Y020713D01*
X023371Y020713D01*
X023623Y020965D01*
X023623Y021321D01*
X023551Y021393D01*
X024243Y021393D01*
X024334Y021431D01*
X024405Y021502D01*
X024656Y021753D01*
X024729Y021753D01*
X024981Y021502D01*
X025051Y021431D01*
X025143Y021393D01*
X025391Y021393D01*
X025362Y021364D01*
X025303Y021221D01*
X025303Y021066D01*
X025362Y020922D01*
X025472Y020813D01*
X025615Y020753D01*
X025770Y020753D01*
X025914Y020813D01*
X026023Y020922D01*
X026083Y021066D01*
X026083Y021221D01*
X026023Y021364D01*
X025994Y021393D01*
X028243Y021393D01*
X028334Y021431D01*
X028405Y021502D01*
X028656Y021753D01*
X028729Y021753D01*
X029303Y021180D01*
X029303Y021080D01*
X029030Y021353D01*
X029028Y021353D01*
X029023Y021364D01*
X028914Y021474D01*
X028770Y021533D01*
X028615Y021533D01*
X028451Y021548D02*
X028935Y021548D01*
X028938Y021449D02*
X029033Y021449D01*
X029032Y021351D02*
X029132Y021351D01*
X029131Y021252D02*
X029230Y021252D01*
X029229Y021154D02*
X029303Y021154D01*
X029642Y021548D02*
X029744Y021548D01*
X029842Y021646D02*
X029543Y021646D01*
X029874Y021745D02*
X029941Y021745D01*
X029973Y021843D02*
X030039Y021843D01*
X030071Y021942D02*
X031343Y021942D01*
X031303Y022040D02*
X030103Y022040D01*
X029982Y022434D02*
X031432Y022434D01*
X031531Y022533D02*
X031303Y022305D01*
X031855Y022533D02*
X032503Y022533D01*
X032404Y022434D02*
X031953Y022434D01*
X032052Y022336D02*
X032306Y022336D01*
X032283Y022237D02*
X032083Y022237D01*
X032083Y022139D02*
X032663Y022139D01*
X032663Y022173D02*
X032663Y022553D01*
X032663Y022434D02*
X032723Y022434D01*
X032723Y022336D02*
X032663Y022336D01*
X032663Y022237D02*
X032723Y022237D01*
X032723Y022173D02*
X032663Y022173D01*
X032723Y022173D02*
X032723Y022113D01*
X033103Y022113D01*
X033103Y021973D01*
X033023Y021893D01*
X033243Y021893D01*
X033334Y021855D01*
X033656Y021533D01*
X033770Y021533D01*
X033914Y021474D01*
X034023Y021364D01*
X034083Y021221D01*
X034083Y021066D01*
X034023Y020922D01*
X033914Y020813D01*
X033770Y020753D01*
X033615Y020753D01*
X033472Y020813D01*
X033362Y020922D01*
X033303Y021066D01*
X033303Y021180D01*
X033089Y021393D01*
X031083Y021393D01*
X031083Y020853D01*
X032780Y020853D01*
X033280Y020353D01*
X033335Y020298D01*
X033362Y020364D01*
X033472Y020474D01*
X033615Y020533D01*
X033770Y020533D01*
X033914Y020474D01*
X034023Y020364D01*
X034083Y020221D01*
X034083Y020066D01*
X034023Y019922D01*
X033914Y019813D01*
X033770Y019753D01*
X033615Y019753D01*
X033472Y019813D01*
X033403Y019882D01*
X033403Y019405D01*
X033472Y019474D01*
X033615Y019533D01*
X033770Y019533D01*
X033914Y019474D01*
X034023Y019364D01*
X034083Y019221D01*
X034083Y019066D01*
X034023Y018922D01*
X033914Y018813D01*
X033770Y018753D01*
X033615Y018753D01*
X033472Y018813D01*
X033403Y018882D01*
X033403Y018405D01*
X033472Y018474D01*
X033615Y018533D01*
X033770Y018533D01*
X033914Y018474D01*
X034023Y018364D01*
X034083Y018221D01*
X034083Y018066D01*
X034023Y017922D01*
X033914Y017813D01*
X033770Y017753D01*
X033615Y017753D01*
X033472Y017813D01*
X033403Y017882D01*
X033403Y017730D01*
X033604Y017529D01*
X033615Y017533D01*
X033770Y017533D01*
X033914Y017474D01*
X034023Y017364D01*
X034083Y017221D01*
X034083Y017066D01*
X034023Y016922D01*
X033914Y016813D01*
X033770Y016753D01*
X033615Y016753D01*
X033472Y016813D01*
X033362Y016922D01*
X033303Y017066D01*
X033303Y017221D01*
X033307Y017232D01*
X032983Y017556D01*
X032983Y020056D01*
X032606Y020433D01*
X030954Y020433D01*
X031023Y020364D01*
X031083Y020221D01*
X031083Y020066D01*
X031023Y019922D01*
X030914Y019813D01*
X030770Y019753D01*
X030615Y019753D01*
X030604Y019758D01*
X030280Y019433D01*
X028954Y019433D01*
X029023Y019364D01*
X029083Y019221D01*
X029083Y019066D01*
X029078Y019055D01*
X029280Y018853D01*
X030431Y018853D01*
X030362Y018922D01*
X030303Y019066D01*
X030303Y019221D01*
X030362Y019364D01*
X030472Y019474D01*
X030615Y019533D01*
X030770Y019533D01*
X030914Y019474D01*
X031023Y019364D01*
X031083Y019221D01*
X031083Y019066D01*
X031023Y018922D01*
X030954Y018853D01*
X031030Y018853D01*
X031280Y018603D01*
X031403Y018480D01*
X031403Y016556D01*
X031078Y016232D01*
X031083Y016221D01*
X031083Y016066D01*
X031023Y015922D01*
X030914Y015813D01*
X030770Y015753D01*
X030615Y015753D01*
X030472Y015813D01*
X030362Y015922D01*
X030303Y016066D01*
X030303Y016221D01*
X030362Y016364D01*
X030472Y016474D01*
X030615Y016533D01*
X030770Y016533D01*
X030781Y016529D01*
X030983Y016730D01*
X030983Y016882D01*
X030914Y016813D01*
X030770Y016753D01*
X030615Y016753D01*
X030472Y016813D01*
X030362Y016922D01*
X030303Y017066D01*
X030303Y017221D01*
X030362Y017364D01*
X030472Y017474D01*
X030615Y017533D01*
X030770Y017533D01*
X030914Y017474D01*
X030983Y017405D01*
X030983Y017882D01*
X030914Y017813D01*
X030770Y017753D01*
X030615Y017753D01*
X030472Y017813D01*
X030362Y017922D01*
X030358Y017933D01*
X029028Y017933D01*
X029023Y017922D01*
X028914Y017813D01*
X028770Y017753D01*
X028615Y017753D01*
X028472Y017813D01*
X028362Y017922D01*
X028303Y018066D01*
X028303Y018221D01*
X028362Y018364D01*
X028472Y018474D01*
X028615Y018533D01*
X028770Y018533D01*
X028914Y018474D01*
X029023Y018364D01*
X029028Y018353D01*
X030358Y018353D01*
X030362Y018364D01*
X030431Y018433D01*
X029106Y018433D01*
X028983Y018556D01*
X028781Y018758D01*
X028770Y018753D01*
X028615Y018753D01*
X028472Y018813D01*
X028362Y018922D01*
X028303Y019066D01*
X028303Y019206D01*
X028030Y018933D01*
X026028Y018933D01*
X026023Y018922D01*
X025954Y018853D01*
X027030Y018853D01*
X028441Y017443D01*
X028472Y017474D01*
X028615Y017533D01*
X028770Y017533D01*
X028914Y017474D01*
X029023Y017364D01*
X029083Y017221D01*
X029083Y017066D01*
X029023Y016922D01*
X028954Y016853D01*
X029030Y016853D01*
X029280Y016603D01*
X029403Y016480D01*
X029403Y016405D01*
X029531Y016533D01*
X029854Y016533D01*
X030083Y016305D01*
X030083Y015982D01*
X029854Y015753D01*
X029630Y015753D01*
X030285Y015098D01*
X030283Y015111D01*
X030283Y015113D01*
X030663Y015113D01*
X030723Y015113D01*
X030723Y014733D01*
X030725Y014733D01*
X030789Y014743D01*
X030850Y014763D01*
X030908Y014793D01*
X030960Y014831D01*
X031006Y014876D01*
X031044Y014928D01*
X031073Y014986D01*
X031093Y015047D01*
X031103Y015111D01*
X031103Y015113D01*
X030723Y015113D01*
X030723Y015173D01*
X031103Y015173D01*
X031103Y015176D01*
X031093Y015239D01*
X031073Y015301D01*
X031044Y015358D01*
X031006Y015410D01*
X030960Y015456D01*
X030908Y015494D01*
X030850Y015523D01*
X030789Y015543D01*
X030725Y015553D01*
X030723Y015553D01*
X030723Y015173D01*
X030663Y015173D01*
X030663Y015113D01*
X030663Y014733D01*
X030661Y014733D01*
X030648Y014735D01*
X030806Y014577D01*
X030879Y014577D01*
X030993Y014530D01*
X031079Y014443D01*
X031126Y014330D01*
X031126Y014207D01*
X031079Y014094D01*
X030993Y014007D01*
X030879Y013960D01*
X030812Y013960D01*
X030829Y013943D01*
X030876Y013830D01*
X030876Y013707D01*
X030833Y013603D01*
X030981Y013603D01*
X031108Y013730D01*
X031231Y013853D01*
X031403Y013853D01*
X031283Y013973D01*
X031283Y014113D01*
X031663Y014113D01*
X031663Y014173D01*
X031283Y014173D01*
X031283Y014313D01*
X031523Y014553D01*
X031663Y014553D01*
X031663Y014173D01*
X031723Y014173D01*
X032103Y014173D01*
X032103Y014313D01*
X031863Y014553D01*
X031723Y014553D01*
X031723Y014173D01*
X031723Y014113D01*
X032103Y014113D01*
X032103Y013973D01*
X031983Y013853D01*
X032431Y013853D01*
X032303Y013982D01*
X032303Y014305D01*
X032531Y014533D01*
X032854Y014533D01*
X033083Y014305D01*
X033083Y013982D01*
X032954Y013853D01*
X033106Y013853D01*
X033483Y014230D01*
X033483Y014808D01*
X033472Y014813D01*
X033362Y014922D01*
X033303Y015066D01*
X033303Y015221D01*
X033362Y015364D01*
X033472Y015474D01*
X033615Y015533D01*
X033770Y015533D01*
X033914Y015474D01*
X034023Y015364D01*
X034083Y015221D01*
X034083Y015066D01*
X034023Y014922D01*
X033914Y014813D01*
X033903Y014808D01*
X033903Y014056D01*
X033780Y013933D01*
X033280Y013433D01*
X032011Y013433D01*
X032123Y013321D01*
X032123Y012965D01*
X031871Y012713D01*
X031515Y012713D01*
X031263Y012965D01*
X031263Y013291D01*
X031155Y013183D01*
X030106Y013183D01*
X030083Y013206D01*
X030083Y013066D01*
X030023Y012922D01*
X029914Y012813D01*
X029770Y012753D01*
X029615Y012753D01*
X029604Y012758D01*
X029403Y012556D01*
X029280Y012433D01*
X028954Y012433D01*
X029023Y012364D01*
X029028Y012353D01*
X029358Y012353D01*
X029362Y012364D01*
X029472Y012474D01*
X029615Y012533D01*
X029770Y012533D01*
X029914Y012474D01*
X030023Y012364D01*
X030083Y012221D01*
X030083Y012066D01*
X030023Y011922D01*
X029914Y011813D01*
X029770Y011753D01*
X029615Y011753D01*
X029472Y011813D01*
X029362Y011922D01*
X029358Y011933D01*
X029028Y011933D01*
X029023Y011922D01*
X028914Y011813D01*
X028770Y011753D01*
X028615Y011753D01*
X028472Y011813D01*
X028362Y011922D01*
X028358Y011933D01*
X027322Y011933D01*
X027254Y011865D01*
X027133Y011815D01*
X027003Y011815D01*
X026882Y011865D01*
X026790Y011957D01*
X026740Y012078D01*
X026740Y012209D01*
X026790Y012329D01*
X026882Y012421D01*
X027003Y012471D01*
X027133Y012471D01*
X027254Y012421D01*
X027322Y012353D01*
X028358Y012353D01*
X028362Y012364D01*
X028431Y012433D01*
X027356Y012433D01*
X026403Y013386D01*
X026403Y012230D01*
X027280Y011353D01*
X028358Y011353D01*
X028362Y011364D01*
X028472Y011474D01*
X028615Y011533D01*
X028770Y011533D01*
X028914Y011474D01*
X029023Y011364D01*
X029083Y011221D01*
X029083Y011066D01*
X029023Y010922D01*
X028954Y010853D01*
X029106Y010853D01*
X029307Y011055D01*
X029303Y011066D01*
X029303Y011221D01*
X029362Y011364D01*
X029472Y011474D01*
X029615Y011533D01*
X029770Y011533D01*
X029914Y011474D01*
X030023Y011364D01*
X030083Y011221D01*
X030083Y011066D01*
X030023Y010922D01*
X029914Y010813D01*
X029770Y010753D01*
X029615Y010753D01*
X029604Y010758D01*
X029403Y010556D01*
X029280Y010433D01*
X028954Y010433D01*
X029023Y010364D01*
X029028Y010353D01*
X029358Y010353D01*
X029362Y010364D01*
X029472Y010474D01*
X029615Y010533D01*
X029770Y010533D01*
X029914Y010474D01*
X030023Y010364D01*
X030083Y010221D01*
X030083Y010066D01*
X030023Y009922D01*
X029914Y009813D01*
X029770Y009753D01*
X029615Y009753D01*
X029472Y009813D01*
X029362Y009922D01*
X029358Y009933D01*
X029028Y009933D01*
X029023Y009922D01*
X028954Y009853D01*
X029280Y009853D01*
X029403Y009730D01*
X029604Y009529D01*
X029615Y009533D01*
X029770Y009533D01*
X029914Y009474D01*
X030023Y009364D01*
X030083Y009221D01*
X030083Y009066D01*
X030023Y008922D01*
X029914Y008813D01*
X029770Y008753D01*
X029615Y008753D01*
X029472Y008813D01*
X029362Y008922D01*
X029303Y009066D01*
X029303Y009221D01*
X029307Y009232D01*
X029106Y009433D01*
X028954Y009433D01*
X029023Y009364D01*
X029083Y009221D01*
X029083Y009066D01*
X029023Y008922D01*
X028914Y008813D01*
X028770Y008753D01*
X028615Y008753D01*
X028472Y008813D01*
X028362Y008922D01*
X028358Y008933D01*
X027822Y008933D01*
X027754Y008865D01*
X027633Y008815D01*
X027503Y008815D01*
X027425Y008847D01*
X027454Y008818D01*
X027501Y008705D01*
X027501Y008582D01*
X027454Y008469D01*
X027368Y008382D01*
X027254Y008335D01*
X027131Y008335D01*
X027018Y008382D01*
X026967Y008433D01*
X025954Y008433D01*
X026023Y008364D01*
X026083Y008221D01*
X026083Y008066D01*
X026078Y008055D01*
X027157Y006976D01*
X027115Y007078D01*
X027115Y007209D01*
X027165Y007329D01*
X027257Y007421D01*
X027378Y007471D01*
X027409Y007471D01*
X027365Y007578D01*
X027365Y007709D01*
X027415Y007829D01*
X027507Y007921D01*
X027628Y007971D01*
X027724Y007971D01*
X027983Y008230D01*
X028106Y008353D01*
X028358Y008353D01*
X028362Y008364D01*
X028472Y008474D01*
X028615Y008533D01*
X028770Y008533D01*
X028914Y008474D01*
X029023Y008364D01*
X029028Y008353D01*
X029358Y008353D01*
X029362Y008364D01*
X029472Y008474D01*
X029615Y008533D01*
X029770Y008533D01*
X029914Y008474D01*
X030023Y008364D01*
X030083Y008221D01*
X030083Y008066D01*
X030023Y007922D01*
X029914Y007813D01*
X029770Y007753D01*
X029615Y007753D01*
X029472Y007813D01*
X029362Y007922D01*
X029358Y007933D01*
X029028Y007933D01*
X029023Y007922D01*
X028914Y007813D01*
X028770Y007753D01*
X028615Y007753D01*
X028472Y007813D01*
X028362Y007922D01*
X028358Y007933D01*
X028280Y007933D01*
X028021Y007674D01*
X028021Y007578D01*
X027971Y007457D01*
X027879Y007365D01*
X027850Y007353D01*
X028358Y007353D01*
X028362Y007364D01*
X027875Y007364D01*
X027973Y007462D02*
X028460Y007462D01*
X028472Y007474D02*
X028362Y007364D01*
X028472Y007474D02*
X028615Y007533D01*
X028770Y007533D01*
X028914Y007474D01*
X029023Y007364D01*
X029083Y007221D01*
X029083Y007066D01*
X029023Y006922D01*
X028954Y006853D01*
X029106Y006853D01*
X029307Y007055D01*
X029303Y007066D01*
X029303Y007221D01*
X029362Y007364D01*
X029024Y007364D01*
X029064Y007265D02*
X029321Y007265D01*
X029303Y007167D02*
X029083Y007167D01*
X029083Y007068D02*
X029303Y007068D01*
X029222Y006970D02*
X029043Y006970D01*
X028972Y006871D02*
X029124Y006871D01*
X029422Y006576D02*
X030858Y006576D01*
X030858Y006605D02*
X030858Y006230D01*
X030001Y005374D01*
X030001Y005455D01*
X029954Y005568D01*
X029868Y005655D01*
X029754Y005702D01*
X029631Y005702D01*
X029518Y005655D01*
X029507Y005643D01*
X025671Y005643D01*
X025559Y005756D01*
X025597Y005743D01*
X025661Y005733D01*
X025663Y005733D01*
X025663Y006113D01*
X025723Y006113D01*
X025723Y005733D01*
X025725Y005733D01*
X025789Y005743D01*
X025850Y005763D01*
X025908Y005793D01*
X025960Y005831D01*
X026006Y005876D01*
X026044Y005928D01*
X026073Y005986D01*
X026093Y006047D01*
X026103Y006111D01*
X026103Y006113D01*
X025723Y006113D01*
X025723Y006173D01*
X026103Y006173D01*
X026103Y006176D01*
X026093Y006239D01*
X026073Y006301D01*
X026044Y006358D01*
X026006Y006410D01*
X025960Y006456D01*
X025908Y006494D01*
X025850Y006523D01*
X025789Y006543D01*
X025725Y006553D01*
X025723Y006553D01*
X025723Y006173D01*
X025663Y006173D01*
X025663Y006553D01*
X025661Y006553D01*
X025597Y006543D01*
X025535Y006523D01*
X025478Y006494D01*
X025443Y006468D01*
X025443Y006693D01*
X025405Y006785D01*
X025083Y007107D01*
X025083Y007221D01*
X025023Y007364D01*
X024954Y007433D01*
X025030Y007433D01*
X025280Y007683D01*
X025403Y007806D01*
X025403Y007882D01*
X025472Y007813D01*
X025615Y007753D01*
X025770Y007753D01*
X025781Y007758D01*
X025781Y007758D01*
X026865Y006674D01*
X025443Y006674D01*
X025443Y006576D02*
X026866Y006576D01*
X026865Y006578D02*
X026915Y006457D01*
X027007Y006365D01*
X027128Y006315D01*
X027258Y006315D01*
X027379Y006365D01*
X027447Y006433D01*
X028431Y006433D01*
X028362Y006364D01*
X028303Y006221D01*
X028303Y006066D01*
X028362Y005922D01*
X028472Y005813D01*
X028615Y005753D01*
X028770Y005753D01*
X028914Y005813D01*
X029023Y005922D01*
X029028Y005933D01*
X029358Y005933D01*
X029362Y005922D01*
X029472Y005813D01*
X029615Y005753D01*
X029770Y005753D01*
X029914Y005813D01*
X030023Y005922D01*
X030083Y006066D01*
X030083Y006221D01*
X030023Y006364D01*
X029914Y006474D01*
X029770Y006533D01*
X029615Y006533D01*
X029472Y006474D01*
X029362Y006364D01*
X029358Y006353D01*
X029028Y006353D01*
X029023Y006364D01*
X028954Y006433D01*
X029280Y006433D01*
X029604Y006758D01*
X029615Y006753D01*
X029770Y006753D01*
X029914Y006813D01*
X030023Y006922D01*
X030083Y007066D01*
X030083Y007221D01*
X030023Y007364D01*
X029914Y007474D01*
X029770Y007533D01*
X029615Y007533D01*
X029472Y007474D01*
X029362Y007364D01*
X029460Y007462D02*
X028925Y007462D01*
X028781Y007758D02*
X029604Y007758D01*
X029781Y007758D02*
X031470Y007758D01*
X031515Y007713D02*
X031871Y007713D01*
X032123Y007965D01*
X032123Y008321D01*
X031871Y008573D01*
X031515Y008573D01*
X031263Y008321D01*
X031263Y007965D01*
X031515Y007713D01*
X031515Y007573D02*
X031263Y007321D01*
X031263Y007010D01*
X030858Y006605D01*
X030927Y006674D02*
X029521Y006674D01*
X029480Y006477D02*
X029324Y006477D01*
X029377Y006379D02*
X029009Y006379D01*
X028987Y005886D02*
X029398Y005886D01*
X029532Y005788D02*
X028854Y005788D01*
X028532Y005788D02*
X025898Y005788D01*
X026013Y005886D02*
X028398Y005886D01*
X028336Y005985D02*
X026072Y005985D01*
X026098Y006083D02*
X028303Y006083D01*
X028303Y006182D02*
X026102Y006182D01*
X026079Y006280D02*
X028327Y006280D01*
X028377Y006379D02*
X027392Y006379D01*
X026993Y006379D02*
X026029Y006379D01*
X025931Y006477D02*
X026906Y006477D01*
X026865Y006578D02*
X026865Y006674D01*
X026766Y006773D02*
X025818Y006773D01*
X025770Y006753D02*
X025914Y006813D01*
X026023Y006922D01*
X026083Y007066D01*
X026083Y007221D01*
X026023Y007364D01*
X025914Y007474D01*
X025770Y007533D01*
X025615Y007533D01*
X025472Y007474D01*
X025362Y007364D01*
X025024Y007364D01*
X025059Y007462D02*
X025460Y007462D01*
X025362Y007364D02*
X025303Y007221D01*
X025303Y007066D01*
X025362Y006922D01*
X025472Y006813D01*
X025615Y006753D01*
X025770Y006753D01*
X025568Y006773D02*
X025410Y006773D01*
X025413Y006871D02*
X025318Y006871D01*
X025343Y006970D02*
X025220Y006970D01*
X025303Y007068D02*
X025121Y007068D01*
X025083Y007167D02*
X025303Y007167D01*
X025321Y007265D02*
X025064Y007265D01*
X025157Y007561D02*
X025978Y007561D01*
X025925Y007462D02*
X026077Y007462D01*
X026024Y007364D02*
X026175Y007364D01*
X026274Y007265D02*
X026064Y007265D01*
X026083Y007167D02*
X026372Y007167D01*
X026471Y007068D02*
X026083Y007068D01*
X026043Y006970D02*
X026569Y006970D01*
X026668Y006871D02*
X025972Y006871D01*
X025723Y006477D02*
X025663Y006477D01*
X025663Y006379D02*
X025723Y006379D01*
X025723Y006280D02*
X025663Y006280D01*
X025663Y006182D02*
X025723Y006182D01*
X025723Y006083D02*
X025663Y006083D01*
X025663Y005985D02*
X025723Y005985D01*
X025723Y005886D02*
X025663Y005886D01*
X025663Y005788D02*
X025723Y005788D01*
X025625Y005689D02*
X029602Y005689D01*
X029784Y005689D02*
X030317Y005689D01*
X030218Y005591D02*
X029932Y005591D01*
X029986Y005492D02*
X030120Y005492D01*
X030021Y005394D02*
X030001Y005394D01*
X029854Y005788D02*
X030415Y005788D01*
X030514Y005886D02*
X029987Y005886D01*
X030049Y005985D02*
X030612Y005985D01*
X030711Y006083D02*
X030083Y006083D01*
X030083Y006182D02*
X030809Y006182D01*
X030858Y006280D02*
X030058Y006280D01*
X030009Y006379D02*
X030858Y006379D01*
X030858Y006477D02*
X029906Y006477D01*
X029818Y006773D02*
X031025Y006773D01*
X031124Y006871D02*
X029972Y006871D01*
X030043Y006970D02*
X031222Y006970D01*
X031263Y007068D02*
X030083Y007068D01*
X030083Y007167D02*
X031263Y007167D01*
X031263Y007265D02*
X030064Y007265D01*
X030024Y007364D02*
X031305Y007364D01*
X031404Y007462D02*
X029925Y007462D01*
X029957Y007856D02*
X031372Y007856D01*
X031273Y007955D02*
X030037Y007955D01*
X030078Y008053D02*
X031263Y008053D01*
X031263Y008152D02*
X030083Y008152D01*
X030071Y008250D02*
X031263Y008250D01*
X031290Y008349D02*
X030030Y008349D01*
X029940Y008447D02*
X031389Y008447D01*
X031487Y008546D02*
X027486Y008546D01*
X027501Y008644D02*
X034243Y008644D01*
X034243Y008546D02*
X031898Y008546D01*
X031997Y008447D02*
X034243Y008447D01*
X034243Y008349D02*
X032095Y008349D01*
X032123Y008250D02*
X034243Y008250D01*
X034243Y008152D02*
X032123Y008152D01*
X032123Y008053D02*
X034243Y008053D01*
X034243Y007955D02*
X032112Y007955D01*
X032014Y007856D02*
X034243Y007856D01*
X034243Y007758D02*
X031915Y007758D01*
X031871Y007573D02*
X031515Y007573D01*
X031502Y007561D02*
X028014Y007561D01*
X028021Y007659D02*
X034243Y007659D01*
X034243Y007561D02*
X031883Y007561D01*
X031871Y007573D02*
X032123Y007321D01*
X032123Y006965D01*
X031871Y006713D01*
X031560Y006713D01*
X031278Y006431D01*
X031278Y006336D01*
X031515Y006573D01*
X031871Y006573D01*
X032123Y006321D01*
X032123Y005965D01*
X031871Y005713D01*
X031560Y005713D01*
X030405Y004558D01*
X029914Y004558D01*
X030143Y004330D01*
X030143Y004193D01*
X029743Y004193D01*
X029743Y004093D01*
X029743Y003693D01*
X029879Y003693D01*
X030143Y003957D01*
X030143Y004093D01*
X029743Y004093D01*
X029643Y004093D01*
X029643Y003693D01*
X029506Y003693D01*
X029243Y003957D01*
X029243Y004093D01*
X029643Y004093D01*
X029643Y004193D01*
X029243Y004193D01*
X029243Y004330D01*
X029471Y004558D01*
X028886Y004558D01*
X029123Y004321D01*
X029123Y003965D01*
X028871Y003713D01*
X028515Y003713D01*
X028263Y003965D01*
X028263Y004321D01*
X028500Y004558D01*
X027886Y004558D01*
X028123Y004321D01*
X028123Y003965D01*
X027871Y003713D01*
X027515Y003713D01*
X027263Y003965D01*
X027263Y004321D01*
X027500Y004558D01*
X026886Y004558D01*
X027123Y004321D01*
X027123Y003965D01*
X026871Y003713D01*
X026515Y003713D01*
X026263Y003965D01*
X026263Y004166D01*
X025530Y003433D01*
X024954Y003433D01*
X025023Y003364D01*
X025083Y003221D01*
X025083Y003066D01*
X025023Y002922D01*
X024914Y002813D01*
X024770Y002753D01*
X024615Y002753D01*
X024472Y002813D01*
X024362Y002922D01*
X024303Y003066D01*
X024303Y003221D01*
X024362Y003364D01*
X024431Y003433D01*
X023454Y003433D01*
X023523Y003364D01*
X023583Y003221D01*
X023583Y003066D01*
X023523Y002922D01*
X023414Y002813D01*
X023270Y002753D01*
X023115Y002753D01*
X022972Y002813D01*
X022862Y002922D01*
X022803Y003066D01*
X022803Y003221D01*
X022862Y003364D01*
X022931Y003433D01*
X020483Y003433D01*
X020506Y003410D01*
X020544Y003358D01*
X020573Y003301D01*
X020593Y003239D01*
X020603Y003176D01*
X020603Y003173D01*
X020223Y003173D01*
X020223Y003113D01*
X020223Y002733D01*
X020225Y002733D01*
X020289Y002743D01*
X020350Y002763D01*
X020408Y002793D01*
X020460Y002831D01*
X020506Y002876D01*
X020544Y002928D01*
X020573Y002986D01*
X020593Y003047D01*
X020603Y003111D01*
X020603Y003113D01*
X020223Y003113D01*
X020163Y003113D01*
X020163Y002733D01*
X020161Y002733D01*
X020097Y002743D01*
X020035Y002763D01*
X019978Y002793D01*
X019926Y002831D01*
X019880Y002876D01*
X019842Y002928D01*
X019813Y002986D01*
X019793Y003047D01*
X019783Y003111D01*
X019783Y003113D01*
X020163Y003113D01*
X020163Y003173D01*
X019783Y003173D01*
X019783Y003176D01*
X019793Y003239D01*
X019813Y003301D01*
X019842Y003358D01*
X019880Y003410D01*
X019903Y003433D01*
X018954Y003433D01*
X019023Y003364D01*
X019083Y003221D01*
X019083Y003066D01*
X019023Y002922D01*
X018914Y002813D01*
X018770Y002753D01*
X018615Y002753D01*
X018472Y002813D01*
X018362Y002922D01*
X018303Y003066D01*
X018303Y003221D01*
X018362Y003364D01*
X018431Y003433D01*
X017954Y003433D01*
X018023Y003364D01*
X018083Y003221D01*
X018083Y003066D01*
X018023Y002922D01*
X017914Y002813D01*
X017770Y002753D01*
X017615Y002753D01*
X017472Y002813D01*
X017431Y002853D01*
X017011Y002853D01*
X016936Y002779D01*
X016778Y002713D01*
X016607Y002713D01*
X016449Y002779D01*
X016328Y002900D01*
X016263Y003058D01*
X016263Y003229D01*
X016328Y003387D01*
X016375Y003433D01*
X014106Y003433D01*
X013983Y003556D01*
X012781Y004758D01*
X012770Y004753D01*
X012615Y004753D01*
X012472Y004813D01*
X012362Y004922D01*
X012303Y005066D01*
X012303Y005221D01*
X012362Y005364D01*
X012472Y005474D01*
X012615Y005533D01*
X012770Y005533D01*
X012914Y005474D01*
X013023Y005364D01*
X013083Y005221D01*
X013083Y005066D01*
X013078Y005055D01*
X014280Y003853D01*
X015431Y003853D01*
X015362Y003922D01*
X015303Y004066D01*
X015303Y004221D01*
X015362Y004364D01*
X015472Y004474D01*
X015615Y004533D01*
X015631Y004533D01*
X015483Y004681D01*
X015483Y004808D01*
X015472Y004813D01*
X015362Y004922D01*
X015303Y005066D01*
X015303Y005221D01*
X015362Y005364D01*
X015431Y005433D01*
X015169Y005433D01*
X015118Y005382D01*
X015004Y005335D01*
X014881Y005335D01*
X014768Y005382D01*
X014681Y005469D01*
X014634Y005582D01*
X014634Y005705D01*
X014681Y005818D01*
X014768Y005905D01*
X014881Y005952D01*
X015004Y005952D01*
X015118Y005905D01*
X015169Y005853D01*
X015431Y005853D01*
X015362Y005922D01*
X015303Y006066D01*
X015303Y006221D01*
X015362Y006364D01*
X015431Y006433D01*
X012954Y006433D01*
X013023Y006364D01*
X013083Y006221D01*
X013083Y006066D01*
X013023Y005922D01*
X012914Y005813D01*
X012770Y005753D01*
X012615Y005753D01*
X012472Y005813D01*
X012362Y005922D01*
X012303Y006066D01*
X012303Y006221D01*
X012362Y006364D01*
X012431Y006433D01*
X012356Y006433D01*
X012106Y006683D01*
X011983Y006806D01*
X011983Y006882D01*
X011914Y006813D01*
X011770Y006753D01*
X011615Y006753D01*
X011472Y006813D01*
X011431Y006853D01*
X011011Y006853D01*
X010936Y006779D01*
X010778Y006713D01*
X010607Y006713D01*
X010449Y006779D01*
X010328Y006900D01*
X010263Y007058D01*
X010263Y007229D01*
X010328Y007387D01*
X010375Y007433D01*
X010106Y007433D01*
X009983Y007556D01*
X009781Y007758D01*
X009781Y007758D01*
X009770Y007753D01*
X009615Y007753D01*
X009472Y007813D01*
X009362Y007922D01*
X009347Y007959D01*
X009346Y007957D01*
X009254Y007865D01*
X009133Y007815D01*
X009003Y007815D01*
X008882Y007865D01*
X008814Y007933D01*
X007028Y007933D01*
X007023Y007922D01*
X006914Y007813D01*
X006770Y007753D01*
X006615Y007753D01*
X006472Y007813D01*
X006362Y007922D01*
X006303Y008066D01*
X006303Y008221D01*
X006362Y008364D01*
X006472Y008474D01*
X006615Y008533D01*
X006770Y008533D01*
X006914Y008474D01*
X007023Y008364D01*
X007028Y008353D01*
X008814Y008353D01*
X008882Y008421D01*
X008911Y008433D01*
X008106Y008433D01*
X007983Y008556D01*
X006781Y009758D01*
X006770Y009753D01*
X006615Y009753D01*
X006472Y009813D01*
X006362Y009922D01*
X006303Y010066D01*
X006303Y010221D01*
X006362Y010364D01*
X006472Y010474D01*
X006615Y010533D01*
X006770Y010533D01*
X006914Y010474D01*
X007023Y010364D01*
X007083Y010221D01*
X007083Y010066D01*
X007078Y010055D01*
X008280Y008853D01*
X009431Y008853D01*
X009362Y008922D01*
X009303Y009066D01*
X009303Y009221D01*
X009362Y009364D01*
X009431Y009433D01*
X008106Y009433D01*
X006781Y010758D01*
X006770Y010753D01*
X006615Y010753D01*
X006472Y010813D01*
X006362Y010922D01*
X006303Y011066D01*
X006303Y011221D01*
X006362Y011364D01*
X006472Y011474D01*
X006615Y011533D01*
X006770Y011533D01*
X006914Y011474D01*
X007023Y011364D01*
X007083Y011221D01*
X007083Y011066D01*
X007078Y011055D01*
X008280Y009853D01*
X009431Y009853D01*
X009362Y009922D01*
X009303Y010066D01*
X009303Y010221D01*
X009362Y010364D01*
X009431Y010433D01*
X009106Y010433D01*
X008983Y010556D01*
X006786Y012753D01*
X006379Y012753D01*
X006303Y012829D01*
X006303Y013393D01*
X006296Y013393D01*
X006083Y013180D01*
X006083Y013066D01*
X006023Y012922D01*
X005914Y012813D01*
X005770Y012753D01*
X005615Y012753D01*
X005472Y012813D01*
X005362Y012922D01*
X005303Y013066D01*
X005303Y013180D01*
X004729Y013753D01*
X004531Y013753D01*
X004303Y013982D01*
X004303Y014305D01*
X004531Y014533D01*
X004854Y014533D01*
X005083Y014305D01*
X005083Y014107D01*
X005656Y013533D01*
X005729Y013533D01*
X006051Y013855D01*
X006143Y013893D01*
X007363Y013893D01*
X007283Y013973D01*
X007283Y014113D01*
X007663Y014113D01*
X007663Y014173D01*
X007283Y014173D01*
X007283Y014313D01*
X007523Y014553D01*
X007663Y014553D01*
X007663Y014173D01*
X007723Y014173D01*
X008103Y014173D01*
X008103Y014313D01*
X007863Y014553D01*
X007723Y014553D01*
X007723Y014173D01*
X007723Y014113D01*
X008103Y014113D01*
X008103Y013973D01*
X008023Y013893D01*
X008391Y013893D01*
X008303Y013982D01*
X008303Y014305D01*
X008531Y014533D01*
X008854Y014533D01*
X009083Y014305D01*
X009083Y013982D01*
X008994Y013893D01*
X009243Y013893D01*
X009334Y013855D01*
X009405Y013785D01*
X009656Y013533D01*
X009770Y013533D01*
X009914Y013474D01*
X010023Y013364D01*
X010083Y013221D01*
X010083Y013107D01*
X010616Y012573D01*
X010778Y012573D01*
X010936Y012508D01*
X011011Y012433D01*
X011431Y012433D01*
X011472Y012474D01*
X011615Y012533D01*
X011770Y012533D01*
X011914Y012474D01*
X011994Y012393D01*
X012896Y012393D01*
X012858Y012431D01*
X012856Y012433D01*
X012106Y012433D01*
X011983Y012556D01*
X011781Y012758D01*
X011770Y012753D01*
X011615Y012753D01*
X011472Y012813D01*
X011431Y012853D01*
X011011Y012853D01*
X010936Y012779D01*
X010778Y012713D01*
X010607Y012713D01*
X010449Y012779D01*
X010328Y012900D01*
X010263Y013058D01*
X010263Y013229D01*
X010328Y013387D01*
X010449Y013508D01*
X010607Y013573D01*
X010778Y013573D01*
X010936Y013508D01*
X011011Y013433D01*
X011431Y013433D01*
X011472Y013474D01*
X011615Y013533D01*
X011770Y013533D01*
X011914Y013474D01*
X012023Y013364D01*
X012083Y013221D01*
X012083Y013066D01*
X012078Y013055D01*
X012280Y012853D01*
X013030Y012853D01*
X013155Y012728D01*
X014106Y012728D01*
X014108Y012730D01*
X014231Y012853D01*
X014712Y012853D01*
X014643Y012882D01*
X014556Y012969D01*
X014509Y013082D01*
X014509Y013205D01*
X014552Y013308D01*
X013731Y013308D01*
X013608Y013431D01*
X013606Y013433D01*
X012356Y013433D01*
X012233Y013556D01*
X012233Y013556D01*
X011945Y013844D01*
X011914Y013813D01*
X011770Y013753D01*
X011615Y013753D01*
X011472Y013813D01*
X011431Y013853D01*
X011011Y013853D01*
X010936Y013779D01*
X010778Y013713D01*
X010607Y013713D01*
X010449Y013779D01*
X010328Y013900D01*
X010263Y014058D01*
X010263Y014229D01*
X010328Y014387D01*
X010449Y014508D01*
X010607Y014573D01*
X010778Y014573D01*
X010936Y014508D01*
X011011Y014433D01*
X011431Y014433D01*
X011472Y014474D01*
X011615Y014533D01*
X011770Y014533D01*
X011914Y014474D01*
X012023Y014364D01*
X012028Y014353D01*
X012030Y014353D01*
X012153Y014230D01*
X012285Y014098D01*
X012283Y014111D01*
X012283Y014113D01*
X012663Y014113D01*
X012663Y014173D01*
X012283Y014173D01*
X012283Y014176D01*
X012293Y014239D01*
X012313Y014301D01*
X012342Y014358D01*
X012380Y014410D01*
X012403Y014433D01*
X012356Y014433D01*
X012233Y014556D01*
X011945Y014844D01*
X011914Y014813D01*
X011770Y014753D01*
X011615Y014753D01*
X011472Y014813D01*
X011431Y014853D01*
X011011Y014853D01*
X010936Y014779D01*
X010778Y014713D01*
X010607Y014713D01*
X010449Y014779D01*
X010328Y014900D01*
X010263Y015058D01*
X010263Y015229D01*
X010328Y015387D01*
X010449Y015508D01*
X010607Y015573D01*
X010778Y015573D01*
X010936Y015508D01*
X011011Y015433D01*
X011431Y015433D01*
X011472Y015474D01*
X011615Y015533D01*
X011770Y015533D01*
X011914Y015474D01*
X012023Y015364D01*
X012028Y015353D01*
X012030Y015353D01*
X012303Y015080D01*
X012303Y015221D01*
X012362Y015364D01*
X012431Y015433D01*
X012106Y015433D01*
X011983Y015556D01*
X011781Y015758D01*
X011770Y015753D01*
X011615Y015753D01*
X011472Y015813D01*
X011431Y015853D01*
X011011Y015853D01*
X010936Y015779D01*
X010778Y015713D01*
X010607Y015713D01*
X010449Y015779D01*
X010328Y015900D01*
X010263Y016058D01*
X010263Y016229D01*
X010080Y016229D01*
X010083Y016221D02*
X010023Y016364D01*
X009954Y016433D01*
X010375Y016433D01*
X010328Y016387D01*
X010263Y016229D01*
X010263Y016130D02*
X010083Y016130D01*
X010083Y016066D02*
X010083Y016221D01*
X010039Y016327D02*
X010304Y016327D01*
X010367Y016426D02*
X009962Y016426D01*
X009431Y016853D02*
X007106Y016853D01*
X006983Y016730D01*
X006781Y016529D01*
X006770Y016533D01*
X006615Y016533D01*
X006472Y016474D01*
X006362Y016364D01*
X006303Y016221D01*
X006303Y016066D01*
X006362Y015922D01*
X006431Y015853D01*
X005954Y015853D01*
X006023Y015922D01*
X006083Y016066D01*
X006083Y016221D01*
X006023Y016364D01*
X005914Y016474D01*
X005770Y016533D01*
X005615Y016533D01*
X005472Y016474D01*
X005403Y016405D01*
X005403Y016730D01*
X005280Y016853D01*
X003078Y019055D01*
X003083Y019066D01*
X003083Y019221D01*
X003023Y019364D01*
X002914Y019474D01*
X002770Y019533D01*
X002615Y019533D01*
X002472Y019474D01*
X002362Y019364D01*
X002303Y019221D01*
X002303Y019066D01*
X002362Y018922D01*
X002472Y018813D01*
X002615Y018753D01*
X002770Y018753D01*
X002781Y018758D01*
X004983Y016556D01*
X004983Y015806D01*
X005233Y015556D01*
X005356Y015433D01*
X005431Y015433D01*
X005362Y015364D01*
X005358Y015353D01*
X003606Y015353D01*
X003483Y015230D01*
X002483Y014230D01*
X002483Y013533D01*
X002379Y013533D01*
X002303Y013457D01*
X002303Y012829D01*
X002379Y012753D01*
X003007Y012753D01*
X003083Y012829D01*
X003083Y013457D01*
X003007Y013533D01*
X002903Y013533D01*
X002903Y014056D01*
X003780Y014933D01*
X005358Y014933D01*
X005362Y014922D01*
X005472Y014813D01*
X005615Y014753D01*
X005770Y014753D01*
X005914Y014813D01*
X006023Y014922D01*
X006083Y015066D01*
X006083Y015221D01*
X006023Y015364D01*
X005954Y015433D01*
X006403Y015433D01*
X006380Y015410D01*
X006342Y015358D01*
X006313Y015301D01*
X006293Y015239D01*
X006283Y015176D01*
X006283Y015173D01*
X006663Y015173D01*
X006663Y015113D01*
X006723Y015113D01*
X006723Y014733D01*
X006725Y014733D01*
X006789Y014743D01*
X006850Y014763D01*
X006908Y014793D01*
X006960Y014831D01*
X007006Y014876D01*
X007044Y014928D01*
X007073Y014986D01*
X007093Y015047D01*
X007103Y015111D01*
X007103Y015113D01*
X006723Y015113D01*
X006723Y015173D01*
X007103Y015173D01*
X007103Y015176D01*
X007093Y015239D01*
X007073Y015301D01*
X007044Y015358D01*
X007006Y015410D01*
X006983Y015433D01*
X007280Y015433D01*
X007780Y015933D01*
X009358Y015933D01*
X009362Y015922D01*
X009472Y015813D01*
X009615Y015753D01*
X009770Y015753D01*
X009914Y015813D01*
X010023Y015922D01*
X010083Y016066D01*
X010069Y016032D02*
X010274Y016032D01*
X010314Y015933D02*
X010028Y015933D01*
X009936Y015835D02*
X010393Y015835D01*
X010552Y015736D02*
X007583Y015736D01*
X007484Y015638D02*
X011901Y015638D01*
X011803Y015736D02*
X010834Y015736D01*
X010992Y015835D02*
X011450Y015835D01*
X011439Y015441D02*
X011003Y015441D01*
X010860Y015539D02*
X012000Y015539D01*
X011947Y015441D02*
X012098Y015441D01*
X012041Y015342D02*
X012353Y015342D01*
X012312Y015244D02*
X012139Y015244D01*
X012238Y015145D02*
X012303Y015145D01*
X012038Y014751D02*
X010870Y014751D01*
X011007Y014850D02*
X011435Y014850D01*
X011454Y014456D02*
X010988Y014456D01*
X010824Y014554D02*
X012235Y014554D01*
X012333Y014456D02*
X011932Y014456D01*
X012026Y014357D02*
X012342Y014357D01*
X012299Y014259D02*
X012124Y014259D01*
X012223Y014160D02*
X012663Y014160D01*
X012723Y014160D02*
X015303Y014160D01*
X015303Y014221D02*
X015303Y014066D01*
X015362Y013922D01*
X015431Y013853D01*
X014606Y013853D01*
X014481Y013728D01*
X013905Y013728D01*
X013780Y013853D01*
X012983Y013853D01*
X013006Y013876D01*
X013044Y013928D01*
X013073Y013986D01*
X013093Y014047D01*
X013103Y014111D01*
X013103Y014113D01*
X012723Y014113D01*
X012723Y014173D01*
X013103Y014173D01*
X013103Y014176D01*
X013093Y014239D01*
X013073Y014301D01*
X013044Y014358D01*
X013006Y014410D01*
X012983Y014433D01*
X013019Y014433D01*
X013056Y014344D01*
X013143Y014257D01*
X013256Y014210D01*
X013379Y014210D01*
X013493Y014257D01*
X013579Y014344D01*
X013616Y014433D01*
X015431Y014433D01*
X015362Y014364D01*
X015303Y014221D01*
X015319Y014259D02*
X013495Y014259D01*
X013585Y014357D02*
X015359Y014357D01*
X015304Y014062D02*
X013095Y014062D01*
X013061Y013963D02*
X015345Y013963D01*
X015420Y013865D02*
X012994Y013865D01*
X013086Y014259D02*
X013141Y014259D01*
X013051Y014357D02*
X013044Y014357D01*
X013867Y013766D02*
X014519Y013766D01*
X014538Y013274D02*
X012061Y013274D01*
X012083Y013175D02*
X014509Y013175D01*
X014512Y013077D02*
X012083Y013077D01*
X012155Y012978D02*
X014552Y012978D01*
X014648Y012880D02*
X012253Y012880D01*
X011955Y012584D02*
X010605Y012584D01*
X010507Y012683D02*
X011856Y012683D01*
X011885Y012486D02*
X012053Y012486D01*
X011501Y012486D02*
X010958Y012486D01*
X010939Y012781D02*
X011548Y012781D01*
X011469Y013471D02*
X010973Y013471D01*
X010788Y013569D02*
X012220Y013569D01*
X012318Y013471D02*
X011917Y013471D01*
X012015Y013372D02*
X013667Y013372D01*
X014159Y012781D02*
X013102Y012781D01*
X012146Y011893D02*
X012108Y011855D01*
X011781Y011529D01*
X011770Y011533D01*
X011615Y011533D01*
X011472Y011474D01*
X011431Y011433D01*
X011011Y011433D01*
X010936Y011508D01*
X010778Y011573D01*
X010607Y011573D01*
X010449Y011508D01*
X010328Y011387D01*
X010263Y011229D01*
X010263Y011058D01*
X010328Y010900D01*
X010449Y010779D01*
X010607Y010713D01*
X010778Y010713D01*
X010936Y010779D01*
X011011Y010853D01*
X011431Y010853D01*
X011472Y010813D01*
X011615Y010753D01*
X011770Y010753D01*
X011914Y010813D01*
X012023Y010922D01*
X012083Y011066D01*
X012083Y011221D01*
X012078Y011232D01*
X012405Y011558D01*
X016106Y011558D01*
X016108Y011556D01*
X016231Y011433D01*
X016347Y011433D01*
X016308Y011379D01*
X016276Y011316D01*
X016254Y011249D01*
X016245Y011193D01*
X016643Y011193D01*
X016643Y011093D01*
X016245Y011093D01*
X016254Y011038D01*
X016276Y010971D01*
X016308Y010907D01*
X016347Y010853D01*
X015356Y010853D01*
X015233Y010730D01*
X014981Y010478D01*
X013405Y010478D01*
X013030Y010853D01*
X012106Y010853D01*
X011983Y010730D01*
X011781Y010529D01*
X011770Y010533D01*
X011615Y010533D01*
X011472Y010474D01*
X011431Y010433D01*
X011011Y010433D01*
X010936Y010508D01*
X010778Y010573D01*
X010607Y010573D01*
X010449Y010508D01*
X010350Y010408D01*
X010280Y010478D01*
X009930Y010829D01*
X010023Y010922D01*
X010083Y011066D01*
X010083Y011221D01*
X010023Y011364D01*
X009914Y011474D01*
X009770Y011533D01*
X009615Y011533D01*
X009472Y011474D01*
X009362Y011364D01*
X009303Y011221D01*
X009303Y011066D01*
X009362Y010922D01*
X009431Y010853D01*
X009280Y010853D01*
X007083Y013050D01*
X007083Y013393D01*
X009089Y013393D01*
X009303Y013180D01*
X009303Y013066D01*
X009362Y012922D01*
X009472Y012813D01*
X009615Y012753D01*
X009729Y012753D01*
X010263Y012220D01*
X010263Y012058D01*
X010328Y011900D01*
X010449Y011779D01*
X010607Y011713D01*
X010778Y011713D01*
X010936Y011779D01*
X011011Y011853D01*
X011431Y011853D01*
X011472Y011813D01*
X011615Y011753D01*
X011770Y011753D01*
X011914Y011813D01*
X011994Y011893D01*
X012146Y011893D01*
X012049Y011796D02*
X011874Y011796D01*
X011950Y011698D02*
X008435Y011698D01*
X008337Y011796D02*
X009511Y011796D01*
X009472Y011813D02*
X009615Y011753D01*
X009770Y011753D01*
X009914Y011813D01*
X010023Y011922D01*
X010083Y012066D01*
X010083Y012221D01*
X010023Y012364D01*
X009914Y012474D01*
X009770Y012533D01*
X009615Y012533D01*
X009472Y012474D01*
X009362Y012364D01*
X009303Y012221D01*
X009303Y012066D01*
X009362Y011922D01*
X009472Y011813D01*
X009390Y011895D02*
X008238Y011895D01*
X008140Y011993D02*
X009333Y011993D01*
X009303Y012092D02*
X008041Y012092D01*
X007943Y012190D02*
X009303Y012190D01*
X009331Y012289D02*
X007844Y012289D01*
X007746Y012387D02*
X009385Y012387D01*
X009501Y012486D02*
X007647Y012486D01*
X007549Y012584D02*
X009898Y012584D01*
X009885Y012486D02*
X009997Y012486D01*
X010000Y012387D02*
X010095Y012387D01*
X010055Y012289D02*
X010194Y012289D01*
X010263Y012190D02*
X010083Y012190D01*
X010083Y012092D02*
X010263Y012092D01*
X010290Y011993D02*
X010053Y011993D01*
X009996Y011895D02*
X010333Y011895D01*
X010432Y011796D02*
X009874Y011796D01*
X009849Y011501D02*
X010442Y011501D01*
X010344Y011402D02*
X009985Y011402D01*
X010048Y011304D02*
X010294Y011304D01*
X010263Y011205D02*
X010083Y011205D01*
X010083Y011107D02*
X010263Y011107D01*
X010283Y011008D02*
X010059Y011008D01*
X010011Y010910D02*
X010324Y010910D01*
X010417Y010811D02*
X009947Y010811D01*
X010045Y010713D02*
X011965Y010713D01*
X011910Y010811D02*
X012064Y010811D01*
X012011Y010910D02*
X013346Y010910D01*
X013283Y010973D02*
X013523Y010733D01*
X013663Y010733D01*
X013663Y011113D01*
X013723Y011113D01*
X013723Y010733D01*
X013863Y010733D01*
X014103Y010973D01*
X014103Y011113D01*
X013723Y011113D01*
X013723Y011173D01*
X014103Y011173D01*
X014103Y011313D01*
X013863Y011553D01*
X013723Y011553D01*
X013723Y011173D01*
X013663Y011173D01*
X013663Y011113D01*
X013283Y011113D01*
X013283Y010973D01*
X013283Y011008D02*
X012059Y011008D01*
X012083Y011107D02*
X013283Y011107D01*
X013283Y011173D02*
X013663Y011173D01*
X013663Y011553D01*
X013523Y011553D01*
X013283Y011313D01*
X013283Y011173D01*
X013283Y011205D02*
X012083Y011205D01*
X012150Y011304D02*
X013283Y011304D01*
X013372Y011402D02*
X012249Y011402D01*
X012347Y011501D02*
X013471Y011501D01*
X013663Y011501D02*
X013723Y011501D01*
X013723Y011402D02*
X013663Y011402D01*
X013663Y011304D02*
X013723Y011304D01*
X013723Y011205D02*
X013663Y011205D01*
X013663Y011107D02*
X013723Y011107D01*
X013723Y011008D02*
X013663Y011008D01*
X013663Y010910D02*
X013723Y010910D01*
X013723Y010811D02*
X013663Y010811D01*
X013445Y010811D02*
X013072Y010811D01*
X013170Y010713D02*
X015215Y010713D01*
X015117Y010614D02*
X013269Y010614D01*
X013367Y010516D02*
X015018Y010516D01*
X014854Y010753D02*
X015083Y010982D01*
X015083Y011305D01*
X014854Y011533D01*
X014531Y011533D01*
X014303Y011305D01*
X014303Y010982D01*
X014531Y010753D01*
X014854Y010753D01*
X014912Y010811D02*
X015314Y010811D01*
X015083Y011008D02*
X016264Y011008D01*
X016307Y010910D02*
X015011Y010910D01*
X015083Y011107D02*
X016643Y011107D01*
X016743Y011107D02*
X017284Y011107D01*
X017283Y011111D02*
X017293Y011047D01*
X017313Y010986D01*
X017342Y010928D01*
X017380Y010876D01*
X017403Y010853D01*
X017038Y010853D01*
X017078Y010907D01*
X017110Y010971D01*
X017132Y011038D01*
X017141Y011093D01*
X016743Y011093D01*
X016743Y011193D01*
X017141Y011193D01*
X017132Y011249D01*
X017110Y011316D01*
X017078Y011379D01*
X017038Y011433D01*
X017403Y011433D01*
X017380Y011410D01*
X017342Y011358D01*
X017313Y011301D01*
X017293Y011239D01*
X017283Y011176D01*
X017283Y011173D01*
X017663Y011173D01*
X017663Y011113D01*
X017283Y011113D01*
X017283Y011111D01*
X017288Y011205D02*
X017139Y011205D01*
X017114Y011304D02*
X017314Y011304D01*
X017374Y011402D02*
X017061Y011402D01*
X017122Y011008D02*
X017306Y011008D01*
X017356Y010910D02*
X017079Y010910D01*
X017723Y011113D02*
X017723Y011173D01*
X018103Y011173D01*
X018103Y011176D01*
X018093Y011239D01*
X018073Y011301D01*
X018044Y011358D01*
X018030Y011377D01*
X018131Y011335D01*
X018254Y011335D01*
X018368Y011382D01*
X018454Y011469D01*
X018501Y011582D01*
X018501Y011705D01*
X018454Y011818D01*
X018368Y011905D01*
X018254Y011952D01*
X018131Y011952D01*
X018018Y011905D01*
X017967Y011853D01*
X017954Y011853D01*
X018023Y011922D01*
X018083Y012066D01*
X018083Y012221D01*
X018023Y012364D01*
X017954Y012433D01*
X018431Y012433D01*
X018362Y012364D01*
X018303Y012221D01*
X018303Y012066D01*
X018362Y011922D01*
X018472Y011813D01*
X018615Y011753D01*
X018770Y011753D01*
X018914Y011813D01*
X019023Y011922D01*
X019083Y012066D01*
X019083Y012221D01*
X019023Y012364D01*
X018954Y012433D01*
X024280Y012433D01*
X024604Y012758D01*
X024615Y012753D01*
X024770Y012753D01*
X024914Y012813D01*
X025023Y012922D01*
X025083Y013066D01*
X025083Y013221D01*
X025023Y013364D01*
X024914Y013474D01*
X024770Y013533D01*
X024615Y013533D01*
X024472Y013474D01*
X024362Y013364D01*
X024303Y013221D01*
X024303Y013066D01*
X024307Y013055D01*
X024106Y012853D01*
X018954Y012853D01*
X019023Y012922D01*
X019083Y013066D01*
X019083Y013221D01*
X019023Y013364D01*
X018954Y013433D01*
X024280Y013433D01*
X024604Y013758D01*
X024615Y013753D01*
X024770Y013753D01*
X024781Y013758D01*
X024983Y013556D01*
X025106Y013433D01*
X025431Y013433D01*
X025362Y013364D01*
X025303Y013221D01*
X025303Y013066D01*
X025362Y012922D01*
X025472Y012813D01*
X025615Y012753D01*
X025770Y012753D01*
X025914Y012813D01*
X025983Y012882D01*
X025983Y012405D01*
X025914Y012474D01*
X025770Y012533D01*
X025615Y012533D01*
X025472Y012474D01*
X025362Y012364D01*
X025303Y012221D01*
X025303Y012066D01*
X025362Y011922D01*
X025472Y011813D01*
X025615Y011753D01*
X025770Y011753D01*
X025781Y011758D01*
X027106Y010433D01*
X027712Y010433D01*
X027643Y010405D01*
X027592Y010353D01*
X026655Y010353D01*
X026278Y010730D01*
X026155Y010853D01*
X025954Y010853D01*
X026023Y010922D01*
X026083Y011066D01*
X026083Y011221D01*
X026023Y011364D01*
X025914Y011474D01*
X025770Y011533D01*
X025615Y011533D01*
X025472Y011474D01*
X025362Y011364D01*
X025303Y011221D01*
X025303Y011066D01*
X025362Y010922D01*
X025431Y010853D01*
X024954Y010853D01*
X025023Y010922D01*
X025083Y011066D01*
X025083Y011221D01*
X025023Y011364D01*
X024914Y011474D01*
X024770Y011533D01*
X024615Y011533D01*
X024472Y011474D01*
X024362Y011364D01*
X024358Y011353D01*
X024231Y011353D01*
X024153Y011275D01*
X024153Y011306D01*
X024604Y011758D01*
X024615Y011753D01*
X024770Y011753D01*
X024914Y011813D01*
X025023Y011922D01*
X025083Y012066D01*
X025083Y012221D01*
X025023Y012364D01*
X024914Y012474D01*
X024770Y012533D01*
X024615Y012533D01*
X024472Y012474D01*
X024362Y012364D01*
X024303Y012221D01*
X024303Y012066D01*
X024307Y012055D01*
X023733Y011480D01*
X023733Y011230D01*
X023583Y011080D01*
X023583Y011305D01*
X023354Y011533D01*
X023100Y011533D01*
X022780Y011853D01*
X020606Y011853D01*
X020483Y011730D01*
X020286Y011533D01*
X020031Y011533D01*
X019803Y011305D01*
X019803Y010982D01*
X019931Y010853D01*
X018954Y010853D01*
X019023Y010922D01*
X019083Y011066D01*
X019083Y011221D01*
X019023Y011364D01*
X018914Y011474D01*
X018770Y011533D01*
X018615Y011533D01*
X018472Y011474D01*
X018362Y011364D01*
X018303Y011221D01*
X018303Y011066D01*
X018362Y010922D01*
X018431Y010853D01*
X017983Y010853D01*
X018006Y010876D01*
X018044Y010928D01*
X018073Y010986D01*
X018093Y011047D01*
X018103Y011111D01*
X018103Y011113D01*
X017723Y011113D01*
X018030Y010910D02*
X018375Y010910D01*
X018327Y011008D02*
X018080Y011008D01*
X018102Y011107D02*
X018303Y011107D01*
X018303Y011205D02*
X018098Y011205D01*
X018071Y011304D02*
X018337Y011304D01*
X018388Y011402D02*
X018400Y011402D01*
X018468Y011501D02*
X018537Y011501D01*
X018501Y011599D02*
X020352Y011599D01*
X020450Y011698D02*
X018501Y011698D01*
X018511Y011796D02*
X018463Y011796D01*
X018390Y011895D02*
X018378Y011895D01*
X018333Y011993D02*
X018053Y011993D01*
X018083Y012092D02*
X018303Y012092D01*
X018303Y012190D02*
X018083Y012190D01*
X018055Y012289D02*
X018331Y012289D01*
X018385Y012387D02*
X018000Y012387D01*
X017996Y011895D02*
X018008Y011895D01*
X018874Y011796D02*
X020549Y011796D01*
X020780Y011433D02*
X020903Y011433D01*
X020783Y011313D01*
X020783Y011173D01*
X021163Y011173D01*
X021163Y011113D01*
X020783Y011113D01*
X020783Y010973D01*
X020903Y010853D01*
X020454Y010853D01*
X020583Y010982D01*
X020583Y011236D01*
X020780Y011433D01*
X020749Y011402D02*
X020872Y011402D01*
X020783Y011304D02*
X020650Y011304D01*
X020583Y011205D02*
X020783Y011205D01*
X020783Y011107D02*
X020583Y011107D01*
X020583Y011008D02*
X020783Y011008D01*
X020846Y010910D02*
X020511Y010910D01*
X019875Y010910D02*
X019011Y010910D01*
X019059Y011008D02*
X019803Y011008D01*
X019803Y011107D02*
X019083Y011107D01*
X019083Y011205D02*
X019803Y011205D01*
X019803Y011304D02*
X019048Y011304D01*
X018985Y011402D02*
X019900Y011402D01*
X019999Y011501D02*
X018849Y011501D01*
X018996Y011895D02*
X024147Y011895D01*
X024049Y011796D02*
X022837Y011796D01*
X022935Y011698D02*
X023950Y011698D01*
X023852Y011599D02*
X023034Y011599D01*
X023387Y011501D02*
X023753Y011501D01*
X023733Y011402D02*
X023485Y011402D01*
X023583Y011304D02*
X023733Y011304D01*
X023708Y011205D02*
X023583Y011205D01*
X023583Y011107D02*
X023609Y011107D01*
X024153Y011304D02*
X024181Y011304D01*
X024249Y011402D02*
X024400Y011402D01*
X024347Y011501D02*
X024537Y011501D01*
X024446Y011599D02*
X025940Y011599D01*
X025849Y011501D02*
X026038Y011501D01*
X025985Y011402D02*
X026137Y011402D01*
X026048Y011304D02*
X026235Y011304D01*
X026334Y011205D02*
X026083Y011205D01*
X026083Y011107D02*
X026432Y011107D01*
X026531Y011008D02*
X026059Y011008D01*
X026011Y010910D02*
X026629Y010910D01*
X026728Y010811D02*
X026197Y010811D01*
X026295Y010713D02*
X026826Y010713D01*
X026925Y010614D02*
X026394Y010614D01*
X026492Y010516D02*
X027023Y010516D01*
X026591Y010417D02*
X027673Y010417D01*
X027231Y011402D02*
X028400Y011402D01*
X028537Y011501D02*
X027132Y011501D01*
X027034Y011599D02*
X034243Y011599D01*
X034243Y011501D02*
X031943Y011501D01*
X031871Y011573D02*
X031515Y011573D01*
X031263Y011321D01*
X031263Y010965D01*
X031515Y010713D01*
X031871Y010713D01*
X032123Y010965D01*
X032123Y011321D01*
X031871Y011573D01*
X031871Y011713D02*
X032123Y011965D01*
X032123Y012321D01*
X031871Y012573D01*
X031515Y012573D01*
X031263Y012321D01*
X031263Y011965D01*
X031515Y011713D01*
X031871Y011713D01*
X031954Y011796D02*
X034243Y011796D01*
X034243Y011698D02*
X026935Y011698D01*
X026837Y011796D02*
X028511Y011796D01*
X028390Y011895D02*
X027283Y011895D01*
X026852Y011895D02*
X026738Y011895D01*
X026775Y011993D02*
X026640Y011993D01*
X026541Y012092D02*
X026740Y012092D01*
X026740Y012190D02*
X026443Y012190D01*
X026403Y012289D02*
X026773Y012289D01*
X026848Y012387D02*
X026403Y012387D01*
X026403Y012486D02*
X027303Y012486D01*
X027288Y012387D02*
X028385Y012387D01*
X029000Y012387D02*
X029385Y012387D01*
X029332Y012486D02*
X029501Y012486D01*
X029431Y012584D02*
X034243Y012584D01*
X034243Y012486D02*
X031958Y012486D01*
X032057Y012387D02*
X034243Y012387D01*
X034243Y012289D02*
X032123Y012289D01*
X032123Y012190D02*
X034243Y012190D01*
X034243Y012092D02*
X032123Y012092D01*
X032123Y011993D02*
X034243Y011993D01*
X034243Y011895D02*
X032052Y011895D01*
X031432Y011796D02*
X029874Y011796D01*
X029996Y011895D02*
X031333Y011895D01*
X031263Y011993D02*
X030053Y011993D01*
X030083Y012092D02*
X031263Y012092D01*
X031263Y012190D02*
X030083Y012190D01*
X030055Y012289D02*
X031263Y012289D01*
X031329Y012387D02*
X030000Y012387D01*
X029885Y012486D02*
X031427Y012486D01*
X031447Y012781D02*
X029838Y012781D01*
X029981Y012880D02*
X031348Y012880D01*
X031263Y012978D02*
X030047Y012978D01*
X030083Y013077D02*
X031263Y013077D01*
X031263Y013175D02*
X030083Y013175D01*
X029529Y012683D02*
X034243Y012683D01*
X034243Y012781D02*
X031939Y012781D01*
X032037Y012880D02*
X034243Y012880D01*
X034243Y012978D02*
X032123Y012978D01*
X032123Y013077D02*
X034243Y013077D01*
X034243Y013175D02*
X032123Y013175D01*
X032123Y013274D02*
X034243Y013274D01*
X034243Y013372D02*
X032072Y013372D01*
X031994Y013865D02*
X032420Y013865D01*
X032321Y013963D02*
X032093Y013963D01*
X032103Y014062D02*
X032303Y014062D01*
X032303Y014160D02*
X031723Y014160D01*
X031663Y014160D02*
X031107Y014160D01*
X031126Y014259D02*
X031283Y014259D01*
X031327Y014357D02*
X031115Y014357D01*
X031066Y014456D02*
X031426Y014456D01*
X031663Y014456D02*
X031723Y014456D01*
X031723Y014357D02*
X031663Y014357D01*
X031663Y014259D02*
X031723Y014259D01*
X031960Y014456D02*
X032454Y014456D01*
X032355Y014357D02*
X032059Y014357D01*
X032103Y014259D02*
X032303Y014259D01*
X032932Y014456D02*
X033483Y014456D01*
X033483Y014554D02*
X030933Y014554D01*
X030730Y014653D02*
X033483Y014653D01*
X033483Y014751D02*
X030813Y014751D01*
X030723Y014751D02*
X030663Y014751D01*
X030663Y014850D02*
X030723Y014850D01*
X030723Y014948D02*
X030663Y014948D01*
X030663Y015047D02*
X030723Y015047D01*
X030723Y015145D02*
X033303Y015145D01*
X033311Y015047D02*
X031093Y015047D01*
X031054Y014948D02*
X033351Y014948D01*
X033435Y014850D02*
X030979Y014850D01*
X031091Y015244D02*
X033312Y015244D01*
X033353Y015342D02*
X031052Y015342D01*
X030975Y015441D02*
X033439Y015441D01*
X033615Y015753D02*
X033770Y015753D01*
X033914Y015813D01*
X034023Y015922D01*
X034083Y016066D01*
X034083Y016221D01*
X034023Y016364D01*
X033914Y016474D01*
X033770Y016533D01*
X033615Y016533D01*
X033472Y016474D01*
X033362Y016364D01*
X033303Y016221D01*
X033303Y016066D01*
X033362Y015922D01*
X033472Y015813D01*
X033615Y015753D01*
X033450Y015835D02*
X030936Y015835D01*
X031028Y015933D02*
X033358Y015933D01*
X033317Y016032D02*
X031069Y016032D01*
X031083Y016130D02*
X033303Y016130D01*
X033306Y016229D02*
X031080Y016229D01*
X031174Y016327D02*
X033347Y016327D01*
X033424Y016426D02*
X031272Y016426D01*
X031371Y016524D02*
X033594Y016524D01*
X033792Y016524D02*
X034243Y016524D01*
X034243Y016426D02*
X033962Y016426D01*
X034039Y016327D02*
X034243Y016327D01*
X034243Y016229D02*
X034080Y016229D01*
X034083Y016130D02*
X034243Y016130D01*
X034243Y016032D02*
X034069Y016032D01*
X034028Y015933D02*
X034243Y015933D01*
X034243Y015835D02*
X033936Y015835D01*
X034243Y015736D02*
X029647Y015736D01*
X029745Y015638D02*
X034243Y015638D01*
X034243Y015539D02*
X030801Y015539D01*
X030723Y015539D02*
X030663Y015539D01*
X030663Y015553D02*
X030661Y015553D01*
X030597Y015543D01*
X030535Y015523D01*
X030478Y015494D01*
X030426Y015456D01*
X030380Y015410D01*
X030342Y015358D01*
X030313Y015301D01*
X030293Y015239D01*
X030283Y015176D01*
X030283Y015173D01*
X030663Y015173D01*
X030663Y015553D01*
X030585Y015539D02*
X029844Y015539D01*
X029942Y015441D02*
X030411Y015441D01*
X030334Y015342D02*
X030041Y015342D01*
X030139Y015244D02*
X030294Y015244D01*
X030238Y015145D02*
X030663Y015145D01*
X030663Y015244D02*
X030723Y015244D01*
X030723Y015342D02*
X030663Y015342D01*
X030663Y015441D02*
X030723Y015441D01*
X030450Y015835D02*
X029936Y015835D01*
X030034Y015933D02*
X030358Y015933D01*
X030317Y016032D02*
X030083Y016032D01*
X030083Y016130D02*
X030303Y016130D01*
X030306Y016229D02*
X030083Y016229D01*
X030060Y016327D02*
X030347Y016327D01*
X030424Y016426D02*
X029962Y016426D01*
X029863Y016524D02*
X030594Y016524D01*
X030875Y016623D02*
X029260Y016623D01*
X029162Y016721D02*
X030974Y016721D01*
X030983Y016820D02*
X030921Y016820D01*
X030465Y016820D02*
X029949Y016820D01*
X029863Y016733D02*
X030103Y016973D01*
X030103Y017113D01*
X029723Y017113D01*
X029723Y016733D01*
X029863Y016733D01*
X029723Y016820D02*
X029663Y016820D01*
X029663Y016733D02*
X029663Y017113D01*
X029723Y017113D01*
X029723Y017173D01*
X030103Y017173D01*
X030103Y017313D01*
X029863Y017553D01*
X029723Y017553D01*
X029723Y017173D01*
X029663Y017173D01*
X029663Y017113D01*
X029283Y017113D01*
X029283Y016973D01*
X029523Y016733D01*
X029663Y016733D01*
X029663Y016918D02*
X029723Y016918D01*
X029723Y017017D02*
X029663Y017017D01*
X029663Y017115D02*
X029083Y017115D01*
X029083Y017214D02*
X029283Y017214D01*
X029283Y017173D02*
X029283Y017313D01*
X029523Y017553D01*
X029663Y017553D01*
X029663Y017173D01*
X029283Y017173D01*
X029283Y017312D02*
X029045Y017312D01*
X028977Y017411D02*
X029381Y017411D01*
X029479Y017509D02*
X028828Y017509D01*
X028557Y017509D02*
X028374Y017509D01*
X028275Y017608D02*
X030983Y017608D01*
X030983Y017706D02*
X028177Y017706D01*
X028078Y017805D02*
X028491Y017805D01*
X028381Y017903D02*
X027980Y017903D01*
X027881Y018002D02*
X028329Y018002D01*
X028303Y018100D02*
X027783Y018100D01*
X027684Y018199D02*
X028303Y018199D01*
X028335Y018297D02*
X027586Y018297D01*
X027487Y018396D02*
X028394Y018396D01*
X028521Y018494D02*
X027389Y018494D01*
X027290Y018593D02*
X028946Y018593D01*
X028864Y018494D02*
X029045Y018494D01*
X028992Y018396D02*
X030394Y018396D01*
X030396Y018888D02*
X029245Y018888D01*
X029146Y018987D02*
X030336Y018987D01*
X030303Y019085D02*
X029083Y019085D01*
X029083Y019184D02*
X030303Y019184D01*
X030328Y019282D02*
X029057Y019282D01*
X029007Y019381D02*
X030379Y019381D01*
X030326Y019479D02*
X030485Y019479D01*
X030424Y019578D02*
X032983Y019578D01*
X032983Y019676D02*
X030523Y019676D01*
X030822Y019775D02*
X032983Y019775D01*
X032983Y019873D02*
X030974Y019873D01*
X031044Y019972D02*
X032983Y019972D01*
X032969Y020070D02*
X031083Y020070D01*
X031083Y020169D02*
X032870Y020169D01*
X032772Y020267D02*
X031064Y020267D01*
X031022Y020366D02*
X032673Y020366D01*
X032972Y020661D02*
X034243Y020661D01*
X034243Y020563D02*
X033070Y020563D01*
X033169Y020464D02*
X033462Y020464D01*
X033364Y020366D02*
X033267Y020366D01*
X033599Y020760D02*
X032873Y020760D01*
X033348Y020957D02*
X031083Y020957D01*
X031083Y021055D02*
X033307Y021055D01*
X033303Y021154D02*
X031083Y021154D01*
X031083Y021252D02*
X033230Y021252D01*
X033132Y021351D02*
X031083Y021351D01*
X031083Y020858D02*
X033426Y020858D01*
X033786Y020760D02*
X034243Y020760D01*
X034243Y020858D02*
X033959Y020858D01*
X034038Y020957D02*
X034243Y020957D01*
X034243Y021055D02*
X034079Y021055D01*
X034083Y021154D02*
X034243Y021154D01*
X034243Y021252D02*
X034070Y021252D01*
X034029Y021351D02*
X034243Y021351D01*
X034243Y021449D02*
X033938Y021449D01*
X033642Y021548D02*
X034243Y021548D01*
X034243Y021646D02*
X033543Y021646D01*
X033445Y021745D02*
X034243Y021745D01*
X034243Y021843D02*
X033346Y021843D01*
X033071Y021942D02*
X034243Y021942D01*
X034243Y022040D02*
X033103Y022040D01*
X033103Y022237D02*
X034243Y022237D01*
X034243Y022139D02*
X032723Y022139D01*
X032982Y022434D02*
X034243Y022434D01*
X034243Y022336D02*
X033080Y022336D01*
X032283Y022040D02*
X032083Y022040D01*
X032043Y021942D02*
X032314Y021942D01*
X033923Y020464D02*
X034243Y020464D01*
X034243Y020366D02*
X034022Y020366D01*
X034064Y020267D02*
X034243Y020267D01*
X034243Y020169D02*
X034083Y020169D01*
X034083Y020070D02*
X034243Y020070D01*
X034243Y019972D02*
X034044Y019972D01*
X033974Y019873D02*
X034243Y019873D01*
X034243Y019775D02*
X033822Y019775D01*
X033563Y019775D02*
X033403Y019775D01*
X033403Y019873D02*
X033411Y019873D01*
X033403Y019676D02*
X034243Y019676D01*
X034243Y019578D02*
X033403Y019578D01*
X033403Y019479D02*
X033485Y019479D01*
X033901Y019479D02*
X034243Y019479D01*
X034243Y019381D02*
X034007Y019381D01*
X034057Y019282D02*
X034243Y019282D01*
X034243Y019184D02*
X034083Y019184D01*
X034083Y019085D02*
X034243Y019085D01*
X034243Y018987D02*
X034050Y018987D01*
X033989Y018888D02*
X034243Y018888D01*
X034243Y018790D02*
X033859Y018790D01*
X033864Y018494D02*
X034243Y018494D01*
X034243Y018396D02*
X033992Y018396D01*
X034051Y018297D02*
X034243Y018297D01*
X034243Y018199D02*
X034083Y018199D01*
X034083Y018100D02*
X034243Y018100D01*
X034243Y018002D02*
X034056Y018002D01*
X034004Y017903D02*
X034243Y017903D01*
X034243Y017805D02*
X033895Y017805D01*
X033828Y017509D02*
X034243Y017509D01*
X034243Y017411D02*
X033977Y017411D01*
X034045Y017312D02*
X034243Y017312D01*
X034243Y017214D02*
X034083Y017214D01*
X034083Y017115D02*
X034243Y017115D01*
X034243Y017017D02*
X034063Y017017D01*
X034019Y016918D02*
X034243Y016918D01*
X034243Y016820D02*
X033921Y016820D01*
X034243Y016721D02*
X031403Y016721D01*
X031403Y016623D02*
X034243Y016623D01*
X033465Y016820D02*
X031403Y016820D01*
X031403Y016918D02*
X033366Y016918D01*
X033323Y017017D02*
X031403Y017017D01*
X031403Y017115D02*
X033303Y017115D01*
X033303Y017214D02*
X031403Y017214D01*
X031403Y017312D02*
X033227Y017312D01*
X033128Y017411D02*
X031403Y017411D01*
X031403Y017509D02*
X033030Y017509D01*
X032983Y017608D02*
X031403Y017608D01*
X031403Y017706D02*
X032983Y017706D01*
X032983Y017805D02*
X031403Y017805D01*
X031403Y017903D02*
X032983Y017903D01*
X032983Y018002D02*
X031403Y018002D01*
X031403Y018100D02*
X032983Y018100D01*
X032983Y018199D02*
X031403Y018199D01*
X031403Y018297D02*
X032983Y018297D01*
X032983Y018396D02*
X031403Y018396D01*
X031389Y018494D02*
X032983Y018494D01*
X032983Y018593D02*
X031290Y018593D01*
X031192Y018691D02*
X032983Y018691D01*
X032983Y018790D02*
X031093Y018790D01*
X030989Y018888D02*
X032983Y018888D01*
X032983Y018987D02*
X031050Y018987D01*
X031083Y019085D02*
X032983Y019085D01*
X032983Y019184D02*
X031083Y019184D01*
X031057Y019282D02*
X032983Y019282D01*
X032983Y019381D02*
X031007Y019381D01*
X030901Y019479D02*
X032983Y019479D01*
X033403Y018790D02*
X033527Y018790D01*
X033403Y018691D02*
X034243Y018691D01*
X034243Y018593D02*
X033403Y018593D01*
X033403Y018494D02*
X033521Y018494D01*
X033491Y017805D02*
X033403Y017805D01*
X033427Y017706D02*
X034243Y017706D01*
X034243Y017608D02*
X033525Y017608D01*
X033947Y015441D02*
X034243Y015441D01*
X034243Y015342D02*
X034033Y015342D01*
X034073Y015244D02*
X034243Y015244D01*
X034243Y015145D02*
X034083Y015145D01*
X034075Y015047D02*
X034243Y015047D01*
X034243Y014948D02*
X034034Y014948D01*
X033951Y014850D02*
X034243Y014850D01*
X034243Y014751D02*
X033903Y014751D01*
X033903Y014653D02*
X034243Y014653D01*
X034243Y014554D02*
X033903Y014554D01*
X033903Y014456D02*
X034243Y014456D01*
X034243Y014357D02*
X033903Y014357D01*
X033903Y014259D02*
X034243Y014259D01*
X034243Y014160D02*
X033903Y014160D01*
X033903Y014062D02*
X034243Y014062D01*
X034243Y013963D02*
X033810Y013963D01*
X033711Y013865D02*
X034243Y013865D01*
X034243Y013766D02*
X033613Y013766D01*
X033514Y013668D02*
X034243Y013668D01*
X034243Y013569D02*
X033416Y013569D01*
X033317Y013471D02*
X034243Y013471D01*
X033413Y014160D02*
X033083Y014160D01*
X033083Y014062D02*
X033314Y014062D01*
X033216Y013963D02*
X033064Y013963D01*
X033117Y013865D02*
X032966Y013865D01*
X033083Y014259D02*
X033483Y014259D01*
X033483Y014357D02*
X033030Y014357D01*
X031391Y013865D02*
X030862Y013865D01*
X030876Y013766D02*
X031144Y013766D01*
X031045Y013668D02*
X030860Y013668D01*
X030888Y013963D02*
X031293Y013963D01*
X031283Y014062D02*
X031048Y014062D01*
X031245Y013274D02*
X031263Y013274D01*
X029881Y014533D02*
X029379Y014533D01*
X029303Y014457D01*
X029303Y013853D01*
X029280Y013853D01*
X029078Y014055D01*
X029083Y014066D01*
X029083Y014221D01*
X029023Y014364D01*
X028914Y014474D01*
X028770Y014533D01*
X028615Y014533D01*
X028472Y014474D01*
X028362Y014364D01*
X028358Y014353D01*
X027030Y014353D01*
X026083Y015300D01*
X026083Y015457D01*
X026007Y015533D01*
X025379Y015533D01*
X025303Y015457D01*
X025303Y014853D01*
X025280Y014853D01*
X025078Y015055D01*
X025083Y015066D01*
X025083Y015221D01*
X025023Y015364D01*
X024914Y015474D01*
X024770Y015533D01*
X024615Y015533D01*
X024604Y015529D01*
X024280Y015853D01*
X018954Y015853D01*
X019023Y015922D01*
X019083Y016066D01*
X019083Y016221D01*
X019023Y016364D01*
X018954Y016433D01*
X024280Y016433D01*
X024604Y016758D01*
X024615Y016753D01*
X024770Y016753D01*
X024781Y016758D01*
X025106Y016433D01*
X025403Y016433D01*
X025380Y016410D01*
X025342Y016358D01*
X025313Y016301D01*
X025293Y016239D01*
X025283Y016176D01*
X025283Y016173D01*
X025663Y016173D01*
X025663Y016113D01*
X025723Y016113D01*
X025723Y015733D01*
X025725Y015733D01*
X025789Y015743D01*
X025850Y015763D01*
X025908Y015793D01*
X025960Y015831D01*
X026006Y015876D01*
X026044Y015928D01*
X026073Y015986D01*
X026093Y016047D01*
X026103Y016111D01*
X026103Y016113D01*
X025723Y016113D01*
X025723Y016173D01*
X026103Y016173D01*
X026103Y016176D01*
X026093Y016239D01*
X026073Y016301D01*
X026044Y016358D01*
X026006Y016410D01*
X025983Y016433D01*
X026106Y016433D01*
X026731Y015808D01*
X027064Y015808D01*
X027132Y015740D01*
X027253Y015690D01*
X027383Y015690D01*
X027504Y015740D01*
X027596Y015832D01*
X027646Y015953D01*
X027646Y016084D01*
X027604Y016185D01*
X028233Y015556D01*
X028356Y015433D01*
X028431Y015433D01*
X028362Y015364D01*
X028303Y015221D01*
X028303Y015066D01*
X028362Y014922D01*
X028472Y014813D01*
X028615Y014753D01*
X028770Y014753D01*
X028914Y014813D01*
X029023Y014922D01*
X029083Y015066D01*
X029083Y015206D01*
X029233Y015056D01*
X029356Y014933D01*
X029481Y014933D01*
X029881Y014533D01*
X029860Y014554D02*
X026829Y014554D01*
X026927Y014456D02*
X028454Y014456D01*
X028359Y014357D02*
X027026Y014357D01*
X026730Y014653D02*
X029761Y014653D01*
X029663Y014751D02*
X026632Y014751D01*
X026533Y014850D02*
X028435Y014850D01*
X028351Y014948D02*
X026435Y014948D01*
X026336Y015047D02*
X028311Y015047D01*
X028303Y015145D02*
X026238Y015145D01*
X026139Y015244D02*
X028312Y015244D01*
X028353Y015342D02*
X026083Y015342D01*
X026083Y015441D02*
X028348Y015441D01*
X028250Y015539D02*
X024594Y015539D01*
X024495Y015638D02*
X028151Y015638D01*
X028053Y015736D02*
X027495Y015736D01*
X027597Y015835D02*
X027954Y015835D01*
X027856Y015933D02*
X027638Y015933D01*
X027646Y016032D02*
X027757Y016032D01*
X027659Y016130D02*
X027627Y016130D01*
X027141Y015736D02*
X025744Y015736D01*
X025723Y015736D02*
X025663Y015736D01*
X025663Y015733D02*
X025663Y016113D01*
X025283Y016113D01*
X025283Y016111D01*
X025293Y016047D01*
X025313Y015986D01*
X025342Y015928D01*
X025380Y015876D01*
X025426Y015831D01*
X025478Y015793D01*
X025535Y015763D01*
X025597Y015743D01*
X025661Y015733D01*
X025663Y015733D01*
X025641Y015736D02*
X024397Y015736D01*
X024472Y015813D02*
X024615Y015753D01*
X024770Y015753D01*
X024914Y015813D01*
X025023Y015922D01*
X025083Y016066D01*
X025083Y016221D01*
X025023Y016364D01*
X024914Y016474D01*
X024770Y016533D01*
X024615Y016533D01*
X024472Y016474D01*
X024362Y016364D01*
X024303Y016221D01*
X024303Y016066D01*
X024362Y015922D01*
X024472Y015813D01*
X024450Y015835D02*
X024298Y015835D01*
X024358Y015933D02*
X019028Y015933D01*
X019069Y016032D02*
X024317Y016032D01*
X024303Y016130D02*
X019083Y016130D01*
X019080Y016229D02*
X024306Y016229D01*
X024347Y016327D02*
X019039Y016327D01*
X018962Y016426D02*
X024424Y016426D01*
X024371Y016524D02*
X024594Y016524D01*
X024469Y016623D02*
X024916Y016623D01*
X024818Y016721D02*
X024568Y016721D01*
X024792Y016524D02*
X025015Y016524D01*
X024962Y016426D02*
X025396Y016426D01*
X025326Y016327D02*
X025039Y016327D01*
X025080Y016229D02*
X025291Y016229D01*
X025298Y016032D02*
X025069Y016032D01*
X025083Y016130D02*
X025663Y016130D01*
X025723Y016130D02*
X026409Y016130D01*
X026507Y016032D02*
X026088Y016032D01*
X026046Y015933D02*
X026606Y015933D01*
X026704Y015835D02*
X025964Y015835D01*
X025723Y015835D02*
X025663Y015835D01*
X025663Y015933D02*
X025723Y015933D01*
X025723Y016032D02*
X025663Y016032D01*
X025421Y015835D02*
X024936Y015835D01*
X025028Y015933D02*
X025340Y015933D01*
X025303Y015441D02*
X024947Y015441D01*
X025033Y015342D02*
X025303Y015342D01*
X025303Y015244D02*
X025073Y015244D01*
X025083Y015145D02*
X025303Y015145D01*
X025303Y015047D02*
X025086Y015047D01*
X025185Y014948D02*
X025303Y014948D01*
X024871Y013668D02*
X024514Y013668D01*
X024416Y013569D02*
X024970Y013569D01*
X024917Y013471D02*
X025068Y013471D01*
X025015Y013372D02*
X025370Y013372D01*
X025325Y013274D02*
X025061Y013274D01*
X025083Y013175D02*
X025303Y013175D01*
X025303Y013077D02*
X025083Y013077D01*
X025047Y012978D02*
X025339Y012978D01*
X025405Y012880D02*
X024981Y012880D01*
X024838Y012781D02*
X025548Y012781D01*
X025838Y012781D02*
X025983Y012781D01*
X025983Y012683D02*
X024529Y012683D01*
X024431Y012584D02*
X025983Y012584D01*
X025983Y012486D02*
X025885Y012486D01*
X025501Y012486D02*
X024885Y012486D01*
X025000Y012387D02*
X025385Y012387D01*
X025331Y012289D02*
X025055Y012289D01*
X025083Y012190D02*
X025303Y012190D01*
X025303Y012092D02*
X025083Y012092D01*
X025053Y011993D02*
X025333Y011993D01*
X025390Y011895D02*
X024996Y011895D01*
X024874Y011796D02*
X025511Y011796D01*
X025841Y011698D02*
X024544Y011698D01*
X024849Y011501D02*
X025537Y011501D01*
X025400Y011402D02*
X024985Y011402D01*
X025048Y011304D02*
X025337Y011304D01*
X025303Y011205D02*
X025083Y011205D01*
X025083Y011107D02*
X025303Y011107D01*
X025327Y011008D02*
X025059Y011008D01*
X025011Y010910D02*
X025375Y010910D01*
X024246Y011993D02*
X019053Y011993D01*
X019083Y012092D02*
X024303Y012092D01*
X024303Y012190D02*
X019083Y012190D01*
X019055Y012289D02*
X024331Y012289D01*
X024385Y012387D02*
X019000Y012387D01*
X018981Y012880D02*
X024132Y012880D01*
X024231Y012978D02*
X019047Y012978D01*
X019083Y013077D02*
X024303Y013077D01*
X024303Y013175D02*
X019083Y013175D01*
X019061Y013274D02*
X024325Y013274D01*
X024370Y013372D02*
X019015Y013372D01*
X021483Y011433D02*
X021903Y011433D01*
X021783Y011313D01*
X021783Y011173D01*
X022163Y011173D01*
X022163Y011113D01*
X021783Y011113D01*
X021783Y010973D01*
X021903Y010853D01*
X021483Y010853D01*
X021603Y010973D01*
X021603Y011113D01*
X021223Y011113D01*
X021223Y011173D01*
X021603Y011173D01*
X021603Y011313D01*
X021483Y011433D01*
X021514Y011402D02*
X021872Y011402D01*
X021783Y011304D02*
X021603Y011304D01*
X021603Y011205D02*
X021783Y011205D01*
X021783Y011107D02*
X021603Y011107D01*
X021603Y011008D02*
X021783Y011008D01*
X021846Y010910D02*
X021539Y010910D01*
X021483Y010433D02*
X021931Y010433D01*
X021803Y010305D01*
X021803Y010107D01*
X021589Y009893D01*
X021523Y009893D01*
X021603Y009973D01*
X021603Y010113D01*
X021223Y010113D01*
X021223Y010173D01*
X021603Y010173D01*
X021603Y010313D01*
X021483Y010433D01*
X021499Y010417D02*
X021915Y010417D01*
X021817Y010319D02*
X021597Y010319D01*
X021603Y010220D02*
X021803Y010220D01*
X021803Y010122D02*
X021223Y010122D01*
X021163Y010122D02*
X019083Y010122D01*
X019083Y010066D02*
X019083Y010221D01*
X019023Y010364D01*
X018954Y010433D01*
X020903Y010433D01*
X020783Y010313D01*
X020783Y010173D01*
X021163Y010173D01*
X021163Y010113D01*
X020783Y010113D01*
X020783Y009973D01*
X020863Y009893D01*
X018994Y009893D01*
X019023Y009922D01*
X019083Y010066D01*
X019065Y010023D02*
X020783Y010023D01*
X020831Y009925D02*
X019024Y009925D01*
X019083Y010220D02*
X020783Y010220D01*
X020789Y010319D02*
X019042Y010319D01*
X018970Y010417D02*
X020887Y010417D01*
X021554Y009925D02*
X021621Y009925D01*
X021603Y010023D02*
X021719Y010023D01*
X022483Y010853D02*
X022603Y010973D01*
X022603Y011113D01*
X022223Y011113D01*
X022223Y011173D01*
X022603Y011173D01*
X022603Y011313D01*
X022483Y011433D01*
X022606Y011433D01*
X022803Y011236D01*
X022803Y010982D01*
X022931Y010853D01*
X022483Y010853D01*
X022539Y010910D02*
X022875Y010910D01*
X022803Y011008D02*
X022603Y011008D01*
X022603Y011107D02*
X022803Y011107D01*
X022803Y011205D02*
X022603Y011205D01*
X022603Y011304D02*
X022735Y011304D01*
X022637Y011402D02*
X022514Y011402D01*
X024332Y012486D02*
X024501Y012486D01*
X024469Y013471D02*
X024317Y013471D01*
X025981Y012880D02*
X025983Y012880D01*
X026403Y012880D02*
X026909Y012880D01*
X026811Y012978D02*
X026403Y012978D01*
X026403Y013077D02*
X026712Y013077D01*
X026614Y013175D02*
X026403Y013175D01*
X026403Y013274D02*
X026515Y013274D01*
X026417Y013372D02*
X026403Y013372D01*
X026403Y012781D02*
X027008Y012781D01*
X027106Y012683D02*
X026403Y012683D01*
X026403Y012584D02*
X027205Y012584D01*
X028874Y011796D02*
X029511Y011796D01*
X029390Y011895D02*
X028996Y011895D01*
X028849Y011501D02*
X029537Y011501D01*
X029400Y011402D02*
X028985Y011402D01*
X029048Y011304D02*
X029337Y011304D01*
X029303Y011205D02*
X029083Y011205D01*
X029083Y011107D02*
X029303Y011107D01*
X029261Y011008D02*
X029059Y011008D01*
X029011Y010910D02*
X029162Y010910D01*
X029461Y010614D02*
X029884Y010614D01*
X029884Y010582D02*
X029931Y010469D01*
X030018Y010382D01*
X030131Y010335D01*
X030204Y010335D01*
X030606Y009933D01*
X031295Y009933D01*
X031515Y009713D01*
X031871Y009713D01*
X032123Y009965D01*
X032123Y010321D01*
X031871Y010573D01*
X031515Y010573D01*
X031295Y010353D01*
X030780Y010353D01*
X030501Y010632D01*
X030501Y010705D01*
X030454Y010818D01*
X030368Y010905D01*
X030254Y010952D01*
X030131Y010952D01*
X030018Y010905D01*
X029931Y010818D01*
X029884Y010705D01*
X029884Y010582D01*
X029912Y010516D02*
X029813Y010516D01*
X029970Y010417D02*
X029983Y010417D01*
X030042Y010319D02*
X030220Y010319D01*
X030319Y010220D02*
X030083Y010220D01*
X030083Y010122D02*
X030417Y010122D01*
X030516Y010023D02*
X030065Y010023D01*
X030024Y009925D02*
X031303Y009925D01*
X031402Y009826D02*
X029927Y009826D01*
X029776Y009531D02*
X031472Y009531D01*
X031515Y009573D02*
X031263Y009321D01*
X031263Y008965D01*
X031515Y008713D01*
X031871Y008713D01*
X032123Y008965D01*
X032123Y009321D01*
X031871Y009573D01*
X031515Y009573D01*
X031500Y009728D02*
X029405Y009728D01*
X029458Y009826D02*
X029307Y009826D01*
X029361Y009925D02*
X029024Y009925D01*
X029504Y009629D02*
X034243Y009629D01*
X034243Y009531D02*
X031913Y009531D01*
X032012Y009432D02*
X034243Y009432D01*
X034243Y009334D02*
X032110Y009334D01*
X032123Y009235D02*
X034243Y009235D01*
X034243Y009137D02*
X032123Y009137D01*
X032123Y009038D02*
X034243Y009038D01*
X034243Y008940D02*
X032097Y008940D01*
X031999Y008841D02*
X034243Y008841D01*
X034243Y008743D02*
X031900Y008743D01*
X031485Y008743D02*
X027485Y008743D01*
X027440Y008841D02*
X027431Y008841D01*
X027696Y008841D02*
X028443Y008841D01*
X028445Y008447D02*
X027433Y008447D01*
X027288Y008349D02*
X028101Y008349D01*
X028003Y008250D02*
X026071Y008250D01*
X026083Y008152D02*
X027904Y008152D01*
X027806Y008053D02*
X026080Y008053D01*
X026178Y007955D02*
X027588Y007955D01*
X027442Y007856D02*
X026277Y007856D01*
X026375Y007758D02*
X027385Y007758D01*
X027365Y007659D02*
X026474Y007659D01*
X026572Y007561D02*
X027372Y007561D01*
X027356Y007462D02*
X026671Y007462D01*
X026769Y007364D02*
X027199Y007364D01*
X027138Y007265D02*
X026868Y007265D01*
X026966Y007167D02*
X027115Y007167D01*
X027119Y007068D02*
X027065Y007068D01*
X028104Y007758D02*
X028604Y007758D01*
X028428Y007856D02*
X028203Y007856D01*
X028957Y007856D02*
X029428Y007856D01*
X029445Y008447D02*
X028940Y008447D01*
X028942Y008841D02*
X029443Y008841D01*
X029355Y008940D02*
X029031Y008940D01*
X029071Y009038D02*
X029314Y009038D01*
X029303Y009137D02*
X029083Y009137D01*
X029077Y009235D02*
X029304Y009235D01*
X029205Y009334D02*
X029036Y009334D01*
X029107Y009432D02*
X028955Y009432D01*
X029602Y009531D02*
X029609Y009531D01*
X029955Y009432D02*
X031374Y009432D01*
X031275Y009334D02*
X030036Y009334D01*
X030077Y009235D02*
X031263Y009235D01*
X031263Y009137D02*
X030083Y009137D01*
X030071Y009038D02*
X031263Y009038D01*
X031288Y008940D02*
X030031Y008940D01*
X029942Y008841D02*
X031387Y008841D01*
X031885Y009728D02*
X034243Y009728D01*
X034243Y009826D02*
X031984Y009826D01*
X032082Y009925D02*
X034243Y009925D01*
X034243Y010023D02*
X032123Y010023D01*
X032123Y010122D02*
X034243Y010122D01*
X034243Y010220D02*
X032123Y010220D01*
X032123Y010319D02*
X034243Y010319D01*
X034243Y010417D02*
X032027Y010417D01*
X031928Y010516D02*
X034243Y010516D01*
X034243Y010614D02*
X030519Y010614D01*
X030498Y010713D02*
X034243Y010713D01*
X034243Y010811D02*
X031969Y010811D01*
X032067Y010910D02*
X034243Y010910D01*
X034243Y011008D02*
X032123Y011008D01*
X032123Y011107D02*
X034243Y011107D01*
X034243Y011205D02*
X032123Y011205D01*
X032123Y011304D02*
X034243Y011304D01*
X034243Y011402D02*
X032042Y011402D01*
X031442Y011501D02*
X029849Y011501D01*
X029985Y011402D02*
X031344Y011402D01*
X031263Y011304D02*
X030048Y011304D01*
X030083Y011205D02*
X031263Y011205D01*
X031263Y011107D02*
X030083Y011107D01*
X030059Y011008D02*
X031263Y011008D01*
X031318Y010910D02*
X030355Y010910D01*
X030457Y010811D02*
X031417Y010811D01*
X031457Y010516D02*
X030617Y010516D01*
X030716Y010417D02*
X031359Y010417D01*
X030030Y010910D02*
X030011Y010910D01*
X029929Y010811D02*
X029910Y010811D01*
X029888Y010713D02*
X029559Y010713D01*
X029573Y010516D02*
X029362Y010516D01*
X029415Y010417D02*
X028970Y010417D01*
X027098Y008349D02*
X026030Y008349D01*
X025604Y007758D02*
X025354Y007758D01*
X025403Y007856D02*
X025428Y007856D01*
X025256Y007659D02*
X025880Y007659D01*
X024808Y006674D02*
X024403Y006674D01*
X024403Y006576D02*
X024907Y006576D01*
X024943Y006540D02*
X024943Y006468D01*
X024908Y006494D01*
X024850Y006523D01*
X024789Y006543D01*
X024725Y006553D01*
X024723Y006553D01*
X024723Y006173D01*
X024663Y006173D01*
X024663Y006553D01*
X024661Y006553D01*
X024597Y006543D01*
X024535Y006523D01*
X024478Y006494D01*
X024426Y006456D01*
X024403Y006433D01*
X024403Y006882D01*
X024472Y006813D01*
X024615Y006753D01*
X024729Y006753D01*
X024943Y006540D01*
X024943Y006477D02*
X024931Y006477D01*
X024723Y006477D02*
X024663Y006477D01*
X024663Y006379D02*
X024723Y006379D01*
X024723Y006280D02*
X024663Y006280D01*
X024663Y006182D02*
X024723Y006182D01*
X024723Y006113D02*
X024723Y005733D01*
X024725Y005733D01*
X024789Y005743D01*
X024850Y005763D01*
X024908Y005793D01*
X024943Y005818D01*
X024943Y005719D01*
X024981Y005627D01*
X025356Y005252D01*
X025426Y005181D01*
X025518Y005143D01*
X026146Y005143D01*
X026108Y005105D01*
X025856Y004853D01*
X024954Y004853D01*
X025023Y004922D01*
X025083Y005066D01*
X025083Y005221D01*
X025023Y005364D01*
X024914Y005474D01*
X024770Y005533D01*
X024615Y005533D01*
X024472Y005474D01*
X024362Y005364D01*
X024303Y005221D01*
X024303Y005066D01*
X024362Y004922D01*
X024431Y004853D01*
X023454Y004853D01*
X023523Y004922D01*
X023583Y005066D01*
X023583Y005221D01*
X023523Y005364D01*
X023454Y005433D01*
X023780Y005433D01*
X023903Y005556D01*
X024319Y005973D01*
X024342Y005928D01*
X024380Y005876D01*
X024426Y005831D01*
X024478Y005793D01*
X024535Y005763D01*
X024597Y005743D01*
X024661Y005733D01*
X024663Y005733D01*
X024663Y006113D01*
X024723Y006113D01*
X024723Y006083D02*
X024663Y006083D01*
X024663Y005985D02*
X024723Y005985D01*
X024723Y005886D02*
X024663Y005886D01*
X024663Y005788D02*
X024723Y005788D01*
X024898Y005788D02*
X024943Y005788D01*
X024955Y005689D02*
X024036Y005689D01*
X023937Y005591D02*
X025017Y005591D01*
X025115Y005492D02*
X024869Y005492D01*
X024994Y005394D02*
X025214Y005394D01*
X025312Y005295D02*
X025052Y005295D01*
X025083Y005197D02*
X025411Y005197D01*
X025083Y005098D02*
X026101Y005098D01*
X026002Y005000D02*
X025056Y005000D01*
X025002Y004901D02*
X025904Y004901D01*
X026210Y004113D02*
X026263Y004113D01*
X026263Y004015D02*
X026111Y004015D01*
X026013Y003916D02*
X026312Y003916D01*
X026410Y003818D02*
X025914Y003818D01*
X025816Y003719D02*
X026509Y003719D01*
X026339Y003573D02*
X026263Y003497D01*
X026263Y002789D01*
X026339Y002713D01*
X027047Y002713D01*
X027123Y002789D01*
X027123Y003497D01*
X027047Y003573D01*
X026339Y003573D01*
X026288Y003522D02*
X025619Y003522D01*
X025717Y003621D02*
X034243Y003621D01*
X034243Y003719D02*
X030877Y003719D01*
X030871Y003713D02*
X031123Y003965D01*
X031123Y004321D01*
X030871Y004573D01*
X030515Y004573D01*
X030263Y004321D01*
X030263Y003965D01*
X030515Y003713D01*
X030871Y003713D01*
X030871Y003573D02*
X030515Y003573D01*
X030263Y003321D01*
X030263Y002965D01*
X030515Y002713D01*
X030871Y002713D01*
X031123Y002965D01*
X031123Y003321D01*
X030871Y003573D01*
X030922Y003522D02*
X034243Y003522D01*
X034243Y003424D02*
X031020Y003424D01*
X031119Y003325D02*
X034243Y003325D01*
X034243Y003227D02*
X031123Y003227D01*
X031123Y003128D02*
X034243Y003128D01*
X034243Y003030D02*
X031123Y003030D01*
X031089Y002931D02*
X034243Y002931D01*
X034243Y002833D02*
X030990Y002833D01*
X030892Y002734D02*
X034243Y002734D01*
X034243Y002636D02*
X002143Y002636D01*
X002143Y002734D02*
X010557Y002734D01*
X010607Y002713D02*
X010778Y002713D01*
X010936Y002779D01*
X011011Y002853D01*
X011431Y002853D01*
X011472Y002813D01*
X011615Y002753D01*
X011770Y002753D01*
X011914Y002813D01*
X012023Y002922D01*
X012083Y003066D01*
X012083Y003221D01*
X012023Y003364D01*
X011914Y003474D01*
X011770Y003533D01*
X011615Y003533D01*
X011472Y003474D01*
X011431Y003433D01*
X011011Y003433D01*
X010936Y003508D01*
X010778Y003573D01*
X010607Y003573D01*
X010449Y003508D01*
X010328Y003387D01*
X010263Y003229D01*
X010263Y003058D01*
X010328Y002900D01*
X010449Y002779D01*
X010607Y002713D01*
X010829Y002734D02*
X016557Y002734D01*
X016395Y002833D02*
X011934Y002833D01*
X012027Y002931D02*
X016315Y002931D01*
X016274Y003030D02*
X012068Y003030D01*
X012083Y003128D02*
X016263Y003128D01*
X016263Y003227D02*
X012080Y003227D01*
X012040Y003325D02*
X016303Y003325D01*
X016365Y003424D02*
X011964Y003424D01*
X011797Y003522D02*
X014017Y003522D01*
X013918Y003621D02*
X002143Y003621D01*
X002143Y003719D02*
X010593Y003719D01*
X010607Y003713D02*
X010778Y003713D01*
X010936Y003779D01*
X011011Y003853D01*
X011431Y003853D01*
X011472Y003813D01*
X011615Y003753D01*
X011770Y003753D01*
X011914Y003813D01*
X012023Y003922D01*
X012083Y004066D01*
X012083Y004221D01*
X012023Y004364D01*
X011914Y004474D01*
X011770Y004533D01*
X011615Y004533D01*
X011472Y004474D01*
X011431Y004433D01*
X011011Y004433D01*
X010936Y004508D01*
X010778Y004573D01*
X010607Y004573D01*
X010449Y004508D01*
X010328Y004387D01*
X010263Y004229D01*
X010263Y004058D01*
X010328Y003900D01*
X010449Y003779D01*
X010607Y003713D01*
X010793Y003719D02*
X013820Y003719D01*
X013721Y003818D02*
X012942Y003818D01*
X012960Y003831D02*
X013006Y003876D01*
X013044Y003928D01*
X013073Y003986D01*
X013093Y004047D01*
X013103Y004111D01*
X013103Y004113D01*
X012723Y004113D01*
X012723Y003733D01*
X012725Y003733D01*
X012789Y003743D01*
X012850Y003763D01*
X012908Y003793D01*
X012960Y003831D01*
X013035Y003916D02*
X013623Y003916D01*
X013524Y004015D02*
X013082Y004015D01*
X013103Y004173D02*
X012723Y004173D01*
X012723Y004113D01*
X012663Y004113D01*
X012663Y003733D01*
X012661Y003733D01*
X012597Y003743D01*
X012535Y003763D01*
X012478Y003793D01*
X012426Y003831D01*
X012380Y003876D01*
X012342Y003928D01*
X012313Y003986D01*
X012293Y004047D01*
X012283Y004111D01*
X012283Y004113D01*
X012663Y004113D01*
X012663Y004173D01*
X012283Y004173D01*
X012283Y004176D01*
X012293Y004239D01*
X012313Y004301D01*
X012342Y004358D01*
X012380Y004410D01*
X012426Y004456D01*
X012478Y004494D01*
X012535Y004523D01*
X012597Y004543D01*
X012661Y004553D01*
X012663Y004553D01*
X012663Y004173D01*
X012723Y004173D01*
X012723Y004553D01*
X012725Y004553D01*
X012789Y004543D01*
X012850Y004523D01*
X012908Y004494D01*
X012960Y004456D01*
X013006Y004410D01*
X013044Y004358D01*
X013073Y004301D01*
X013093Y004239D01*
X013103Y004176D01*
X013103Y004173D01*
X013097Y004212D02*
X013327Y004212D01*
X013229Y004310D02*
X013068Y004310D01*
X013007Y004409D02*
X013130Y004409D01*
X013032Y004507D02*
X012882Y004507D01*
X012933Y004606D02*
X010202Y004606D01*
X010153Y004556D02*
X010403Y004806D01*
X010403Y004825D01*
X010449Y004779D01*
X010607Y004713D01*
X010778Y004713D01*
X010936Y004779D01*
X011011Y004853D01*
X011431Y004853D01*
X011472Y004813D01*
X011615Y004753D01*
X011770Y004753D01*
X011914Y004813D01*
X012023Y004922D01*
X012083Y005066D01*
X012083Y005221D01*
X012023Y005364D01*
X011914Y005474D01*
X011770Y005533D01*
X011615Y005533D01*
X011472Y005474D01*
X011431Y005433D01*
X011011Y005433D01*
X010936Y005508D01*
X010778Y005573D01*
X010607Y005573D01*
X010449Y005508D01*
X010403Y005461D01*
X010403Y005825D01*
X010449Y005779D01*
X010607Y005713D01*
X010778Y005713D01*
X010936Y005779D01*
X011011Y005853D01*
X011431Y005853D01*
X011472Y005813D01*
X011615Y005753D01*
X011770Y005753D01*
X011914Y005813D01*
X012023Y005922D01*
X012083Y006066D01*
X012083Y006221D01*
X012023Y006364D01*
X011914Y006474D01*
X011770Y006533D01*
X011615Y006533D01*
X011472Y006474D01*
X011431Y006433D01*
X011011Y006433D01*
X010936Y006508D01*
X010778Y006573D01*
X010607Y006573D01*
X010449Y006508D01*
X010403Y006461D01*
X010403Y006730D01*
X010280Y006853D01*
X010078Y007055D01*
X010083Y007066D01*
X010083Y007221D01*
X010023Y007364D01*
X009914Y007474D01*
X009770Y007533D01*
X009615Y007533D01*
X009472Y007474D01*
X009362Y007364D01*
X007024Y007364D01*
X007023Y007364D02*
X006914Y007474D01*
X006770Y007533D01*
X006615Y007533D01*
X006472Y007474D01*
X006362Y007364D01*
X006024Y007364D01*
X006023Y007364D02*
X005914Y007474D01*
X005770Y007533D01*
X005615Y007533D01*
X005472Y007474D01*
X005362Y007364D01*
X003024Y007364D01*
X003023Y007364D02*
X002914Y007474D01*
X002770Y007533D01*
X002615Y007533D01*
X002472Y007474D01*
X002362Y007364D01*
X002143Y007364D01*
X002143Y007462D02*
X002460Y007462D01*
X002362Y007364D02*
X002303Y007221D01*
X002303Y007066D01*
X002362Y006922D01*
X002472Y006813D01*
X002615Y006753D01*
X002770Y006753D01*
X002914Y006813D01*
X003023Y006922D01*
X003083Y007066D01*
X003083Y007221D01*
X003023Y007364D01*
X003064Y007265D02*
X005321Y007265D01*
X005303Y007221D02*
X005303Y007066D01*
X005362Y006922D01*
X005472Y006813D01*
X005615Y006753D01*
X005770Y006753D01*
X005914Y006813D01*
X006023Y006922D01*
X006028Y006933D01*
X006358Y006933D01*
X006362Y006922D01*
X006431Y006853D01*
X006106Y006853D01*
X005781Y006529D01*
X005770Y006533D01*
X005615Y006533D01*
X005472Y006474D01*
X005362Y006364D01*
X005303Y006221D01*
X005303Y006066D01*
X005362Y005922D01*
X005472Y005813D01*
X005615Y005753D01*
X005770Y005753D01*
X005914Y005813D01*
X006023Y005922D01*
X006083Y006066D01*
X006083Y006221D01*
X006078Y006232D01*
X006280Y006433D01*
X006403Y006433D01*
X006380Y006410D01*
X006342Y006358D01*
X006313Y006301D01*
X006293Y006239D01*
X006283Y006176D01*
X006283Y006173D01*
X006663Y006173D01*
X006663Y006113D01*
X006723Y006113D01*
X006723Y005733D01*
X006725Y005733D01*
X006789Y005743D01*
X006850Y005763D01*
X006908Y005793D01*
X006960Y005831D01*
X007006Y005876D01*
X007044Y005928D01*
X007073Y005986D01*
X007093Y006047D01*
X007103Y006111D01*
X007103Y006113D01*
X006723Y006113D01*
X006723Y006173D01*
X007103Y006173D01*
X007103Y006176D01*
X007093Y006239D01*
X007073Y006301D01*
X007044Y006358D01*
X007006Y006410D01*
X006983Y006433D01*
X008280Y006433D01*
X008403Y006556D01*
X008412Y006565D01*
X008508Y006565D01*
X008629Y006615D01*
X008721Y006707D01*
X008771Y006828D01*
X008771Y006959D01*
X008721Y007079D01*
X008629Y007171D01*
X008508Y007221D01*
X008378Y007221D01*
X008257Y007171D01*
X008165Y007079D01*
X008115Y006959D01*
X008115Y006862D01*
X008106Y006853D01*
X006954Y006853D01*
X007023Y006922D01*
X007083Y007066D01*
X007083Y007221D01*
X007023Y007364D01*
X007064Y007265D02*
X009321Y007265D01*
X009303Y007221D02*
X009303Y007066D01*
X009362Y006922D01*
X009472Y006813D01*
X009615Y006753D01*
X009770Y006753D01*
X009781Y006758D01*
X009983Y006556D01*
X009983Y006405D01*
X009914Y006474D01*
X009770Y006533D01*
X009615Y006533D01*
X009472Y006474D01*
X009362Y006364D01*
X009303Y006221D01*
X009303Y006066D01*
X009362Y005922D01*
X009472Y005813D01*
X009615Y005753D01*
X009770Y005753D01*
X009914Y005813D01*
X009983Y005882D01*
X009983Y004980D01*
X009856Y004853D01*
X009511Y004853D01*
X009623Y004965D01*
X009623Y005321D01*
X009371Y005573D01*
X009060Y005573D01*
X008653Y005980D01*
X008530Y006103D01*
X008169Y006103D01*
X008118Y006155D01*
X008004Y006202D01*
X007881Y006202D01*
X007768Y006155D01*
X007681Y006068D01*
X007634Y005955D01*
X007634Y005832D01*
X007681Y005719D01*
X007768Y005632D01*
X007881Y005585D01*
X008004Y005585D01*
X008118Y005632D01*
X008169Y005683D01*
X008356Y005683D01*
X008763Y005276D01*
X008763Y004965D01*
X008875Y004853D01*
X008511Y004853D01*
X008623Y004965D01*
X008623Y005321D01*
X008371Y005573D01*
X008015Y005573D01*
X007763Y005321D01*
X007763Y004965D01*
X007875Y004853D01*
X007511Y004853D01*
X007623Y004965D01*
X007623Y005321D01*
X007371Y005573D01*
X007015Y005573D01*
X006763Y005321D01*
X006763Y004965D01*
X006875Y004853D01*
X006511Y004853D01*
X006623Y004965D01*
X006623Y005321D01*
X006371Y005573D01*
X006015Y005573D01*
X005763Y005321D01*
X005763Y004965D01*
X005875Y004853D01*
X005511Y004853D01*
X005623Y004965D01*
X005623Y005321D01*
X005371Y005573D01*
X005015Y005573D01*
X004763Y005321D01*
X004763Y004965D01*
X004875Y004853D01*
X004780Y004853D01*
X004623Y005010D01*
X004623Y005321D01*
X004371Y005573D01*
X004015Y005573D01*
X003763Y005321D01*
X003763Y004965D01*
X004015Y004713D01*
X004326Y004713D01*
X004483Y004556D01*
X004606Y004433D01*
X010030Y004433D01*
X010153Y004556D01*
X010104Y004507D02*
X010449Y004507D01*
X010350Y004409D02*
X002143Y004409D01*
X002143Y004507D02*
X004532Y004507D01*
X004483Y004556D02*
X004483Y004556D01*
X004433Y004606D02*
X002143Y004606D01*
X002143Y004704D02*
X004335Y004704D01*
X004633Y005000D02*
X004763Y005000D01*
X004763Y005098D02*
X004623Y005098D01*
X004623Y005197D02*
X004763Y005197D01*
X004763Y005295D02*
X004623Y005295D01*
X004550Y005394D02*
X004835Y005394D01*
X004934Y005492D02*
X004452Y005492D01*
X003934Y005492D02*
X003452Y005492D01*
X003371Y005573D02*
X003015Y005573D01*
X002763Y005321D01*
X002763Y004965D01*
X003015Y004713D01*
X003371Y004713D01*
X003623Y004965D01*
X003623Y005321D01*
X003371Y005573D01*
X003550Y005394D02*
X003835Y005394D01*
X003763Y005295D02*
X003623Y005295D01*
X003623Y005197D02*
X003763Y005197D01*
X003763Y005098D02*
X003623Y005098D01*
X003623Y005000D02*
X003763Y005000D01*
X003827Y004901D02*
X003559Y004901D01*
X003460Y004803D02*
X003925Y004803D01*
X004732Y004901D02*
X004827Y004901D01*
X005559Y004901D02*
X005827Y004901D01*
X005763Y005000D02*
X005623Y005000D01*
X005623Y005098D02*
X005763Y005098D01*
X005763Y005197D02*
X005623Y005197D01*
X005623Y005295D02*
X005763Y005295D01*
X005835Y005394D02*
X005550Y005394D01*
X005452Y005492D02*
X005934Y005492D01*
X005854Y005788D02*
X006487Y005788D01*
X006478Y005793D02*
X006535Y005763D01*
X006597Y005743D01*
X006661Y005733D01*
X006663Y005733D01*
X006663Y006113D01*
X006283Y006113D01*
X006283Y006111D01*
X006293Y006047D01*
X006313Y005986D01*
X006342Y005928D01*
X006380Y005876D01*
X006426Y005831D01*
X006478Y005793D01*
X006373Y005886D02*
X005987Y005886D01*
X006049Y005985D02*
X006313Y005985D01*
X006287Y006083D02*
X006083Y006083D01*
X006083Y006182D02*
X006284Y006182D01*
X006306Y006280D02*
X006127Y006280D01*
X006225Y006379D02*
X006357Y006379D01*
X006663Y006083D02*
X006723Y006083D01*
X006723Y005985D02*
X006663Y005985D01*
X006663Y005886D02*
X006723Y005886D01*
X006723Y005788D02*
X006663Y005788D01*
X006898Y005788D02*
X007653Y005788D01*
X007634Y005886D02*
X007013Y005886D01*
X007072Y005985D02*
X007647Y005985D01*
X007697Y006083D02*
X007098Y006083D01*
X007102Y006182D02*
X007833Y006182D01*
X008052Y006182D02*
X009303Y006182D01*
X009303Y006083D02*
X008550Y006083D01*
X008648Y005985D02*
X009336Y005985D01*
X009398Y005886D02*
X008747Y005886D01*
X008845Y005788D02*
X009532Y005788D01*
X009452Y005492D02*
X009983Y005492D01*
X009983Y005394D02*
X009550Y005394D01*
X009623Y005295D02*
X009983Y005295D01*
X009983Y005197D02*
X009623Y005197D01*
X009623Y005098D02*
X009983Y005098D01*
X009983Y005000D02*
X009623Y005000D01*
X009559Y004901D02*
X009904Y004901D01*
X010301Y004704D02*
X012835Y004704D01*
X012723Y004507D02*
X012663Y004507D01*
X012663Y004409D02*
X012723Y004409D01*
X012723Y004310D02*
X012663Y004310D01*
X012663Y004212D02*
X012723Y004212D01*
X012723Y004113D02*
X013426Y004113D01*
X013724Y004409D02*
X015407Y004409D01*
X015340Y004310D02*
X013823Y004310D01*
X013921Y004212D02*
X015303Y004212D01*
X015303Y004113D02*
X014020Y004113D01*
X014118Y004015D02*
X015324Y004015D01*
X015368Y003916D02*
X014217Y003916D01*
X013626Y004507D02*
X015553Y004507D01*
X015558Y004606D02*
X013527Y004606D01*
X013429Y004704D02*
X015483Y004704D01*
X015483Y004803D02*
X013330Y004803D01*
X013232Y004901D02*
X015383Y004901D01*
X015330Y005000D02*
X013133Y005000D01*
X013083Y005098D02*
X015303Y005098D01*
X015303Y005197D02*
X013083Y005197D01*
X013052Y005295D02*
X015334Y005295D01*
X015392Y005394D02*
X015130Y005394D01*
X014756Y005394D02*
X012994Y005394D01*
X012869Y005492D02*
X014672Y005492D01*
X014634Y005591D02*
X010403Y005591D01*
X010403Y005689D02*
X014634Y005689D01*
X014669Y005788D02*
X012854Y005788D01*
X012987Y005886D02*
X014750Y005886D01*
X015136Y005886D02*
X015398Y005886D01*
X015336Y005985D02*
X013049Y005985D01*
X013083Y006083D02*
X015303Y006083D01*
X015303Y006182D02*
X013083Y006182D01*
X013058Y006280D02*
X015327Y006280D01*
X015377Y006379D02*
X013009Y006379D01*
X012377Y006379D02*
X012009Y006379D01*
X012058Y006280D02*
X012327Y006280D01*
X012303Y006182D02*
X012083Y006182D01*
X012083Y006083D02*
X012303Y006083D01*
X012336Y005985D02*
X012049Y005985D01*
X011987Y005886D02*
X012398Y005886D01*
X012532Y005788D02*
X011854Y005788D01*
X011869Y005492D02*
X012516Y005492D01*
X012392Y005394D02*
X011994Y005394D01*
X012052Y005295D02*
X012334Y005295D01*
X012303Y005197D02*
X012083Y005197D01*
X012083Y005098D02*
X012303Y005098D01*
X012330Y005000D02*
X012056Y005000D01*
X012002Y004901D02*
X012383Y004901D01*
X012496Y004803D02*
X011890Y004803D01*
X011833Y004507D02*
X012504Y004507D01*
X012379Y004409D02*
X011979Y004409D01*
X012046Y004310D02*
X012318Y004310D01*
X012289Y004212D02*
X012083Y004212D01*
X012083Y004113D02*
X012663Y004113D01*
X012663Y004015D02*
X012723Y004015D01*
X012723Y003916D02*
X012663Y003916D01*
X012663Y003818D02*
X012723Y003818D01*
X012443Y003818D02*
X011919Y003818D01*
X012017Y003916D02*
X012351Y003916D01*
X012303Y004015D02*
X012062Y004015D01*
X011467Y003818D02*
X010975Y003818D01*
X010901Y003522D02*
X011589Y003522D01*
X011452Y002833D02*
X010990Y002833D01*
X010395Y002833D02*
X002143Y002833D01*
X002143Y002931D02*
X010315Y002931D01*
X010274Y003030D02*
X002143Y003030D01*
X002143Y003128D02*
X010263Y003128D01*
X010263Y003227D02*
X002143Y003227D01*
X002143Y003325D02*
X010303Y003325D01*
X010365Y003424D02*
X002143Y003424D01*
X002143Y003522D02*
X010484Y003522D01*
X010410Y003818D02*
X002143Y003818D01*
X002143Y003916D02*
X010321Y003916D01*
X010281Y004015D02*
X002143Y004015D01*
X002143Y004113D02*
X010263Y004113D01*
X010263Y004212D02*
X002143Y004212D01*
X002143Y004310D02*
X010297Y004310D01*
X010399Y004803D02*
X010425Y004803D01*
X010960Y004803D02*
X011496Y004803D01*
X011553Y004507D02*
X010937Y004507D01*
X010952Y005492D02*
X011516Y005492D01*
X011532Y005788D02*
X010945Y005788D01*
X010440Y005788D02*
X010403Y005788D01*
X010403Y005492D02*
X010434Y005492D01*
X009983Y005591D02*
X009042Y005591D01*
X008944Y005689D02*
X009983Y005689D01*
X009983Y005788D02*
X009854Y005788D01*
X009327Y006280D02*
X007079Y006280D01*
X007029Y006379D02*
X009377Y006379D01*
X009480Y006477D02*
X008324Y006477D01*
X008534Y006576D02*
X009963Y006576D01*
X009983Y006477D02*
X009906Y006477D01*
X009865Y006674D02*
X008688Y006674D01*
X008748Y006773D02*
X009568Y006773D01*
X009413Y006871D02*
X008771Y006871D01*
X008766Y006970D02*
X009343Y006970D01*
X009303Y007068D02*
X008725Y007068D01*
X008633Y007167D02*
X009303Y007167D01*
X009303Y007221D02*
X009362Y007364D01*
X009460Y007462D02*
X006925Y007462D01*
X006781Y007758D02*
X009604Y007758D01*
X009428Y007856D02*
X009232Y007856D01*
X009343Y007955D02*
X009349Y007955D01*
X008903Y007856D02*
X006957Y007856D01*
X006604Y007758D02*
X005781Y007758D01*
X005770Y007753D02*
X005914Y007813D01*
X006023Y007922D01*
X006083Y008066D01*
X006083Y008221D01*
X006023Y008364D01*
X005954Y008433D01*
X006280Y008433D01*
X006604Y008758D01*
X006615Y008753D01*
X006770Y008753D01*
X006914Y008813D01*
X007023Y008922D01*
X007083Y009066D01*
X007083Y009221D01*
X007023Y009364D01*
X006914Y009474D01*
X006770Y009533D01*
X006615Y009533D01*
X006472Y009474D01*
X006362Y009364D01*
X006303Y009221D01*
X006303Y009066D01*
X006307Y009055D01*
X006106Y008853D01*
X005954Y008853D01*
X006023Y008922D01*
X006083Y009066D01*
X006083Y009221D01*
X006023Y009364D01*
X005914Y009474D01*
X005770Y009533D01*
X005615Y009533D01*
X005472Y009474D01*
X005362Y009364D01*
X005303Y009221D01*
X005303Y009066D01*
X005362Y008922D01*
X005431Y008853D01*
X003106Y008853D01*
X002983Y008730D01*
X002781Y008529D01*
X002770Y008533D01*
X002615Y008533D01*
X002472Y008474D01*
X002362Y008364D01*
X002303Y008221D01*
X002303Y008066D01*
X002362Y007922D01*
X002472Y007813D01*
X002615Y007753D01*
X002770Y007753D01*
X002914Y007813D01*
X003023Y007922D01*
X003083Y008066D01*
X003083Y008221D01*
X003078Y008232D01*
X003280Y008433D01*
X005431Y008433D01*
X005362Y008364D01*
X005303Y008221D01*
X005303Y008066D01*
X005362Y007922D01*
X005472Y007813D01*
X005615Y007753D01*
X005770Y007753D01*
X005604Y007758D02*
X002781Y007758D01*
X002604Y007758D02*
X002143Y007758D01*
X002143Y007856D02*
X002428Y007856D01*
X002349Y007955D02*
X002143Y007955D01*
X002143Y008053D02*
X002308Y008053D01*
X002303Y008152D02*
X002143Y008152D01*
X002143Y008250D02*
X002315Y008250D01*
X002356Y008349D02*
X002143Y008349D01*
X002143Y008447D02*
X002445Y008447D01*
X002143Y008546D02*
X002798Y008546D01*
X002897Y008644D02*
X002143Y008644D01*
X002143Y008743D02*
X002995Y008743D01*
X002914Y008813D02*
X003023Y008922D01*
X003028Y008933D01*
X003030Y008933D01*
X004412Y010315D01*
X004508Y010315D01*
X004629Y010365D01*
X004721Y010457D01*
X004771Y010578D01*
X004771Y010709D01*
X004721Y010829D01*
X004629Y010921D01*
X004508Y010971D01*
X004378Y010971D01*
X004257Y010921D01*
X004165Y010829D01*
X004115Y010709D01*
X004115Y010612D01*
X002945Y009443D01*
X002914Y009474D01*
X002770Y009533D01*
X002615Y009533D01*
X002472Y009474D01*
X002362Y009364D01*
X002303Y009221D01*
X002303Y009066D01*
X002362Y008922D01*
X002472Y008813D01*
X002615Y008753D01*
X002770Y008753D01*
X002914Y008813D01*
X002942Y008841D02*
X003094Y008841D01*
X003036Y008940D02*
X005355Y008940D01*
X005314Y009038D02*
X003135Y009038D01*
X003233Y009137D02*
X005303Y009137D01*
X005309Y009235D02*
X003332Y009235D01*
X003430Y009334D02*
X005350Y009334D01*
X005430Y009432D02*
X003529Y009432D01*
X003627Y009531D02*
X005609Y009531D01*
X005776Y009531D02*
X006609Y009531D01*
X006776Y009531D02*
X007008Y009531D01*
X006955Y009432D02*
X007107Y009432D01*
X007036Y009334D02*
X007205Y009334D01*
X007304Y009235D02*
X007077Y009235D01*
X007083Y009137D02*
X007402Y009137D01*
X007501Y009038D02*
X007071Y009038D01*
X007031Y008940D02*
X007599Y008940D01*
X007698Y008841D02*
X006942Y008841D01*
X006589Y008743D02*
X007796Y008743D01*
X007895Y008644D02*
X006491Y008644D01*
X006392Y008546D02*
X007993Y008546D01*
X008092Y008447D02*
X006940Y008447D01*
X006445Y008447D02*
X006294Y008447D01*
X006356Y008349D02*
X006030Y008349D01*
X006071Y008250D02*
X006315Y008250D01*
X006303Y008152D02*
X006083Y008152D01*
X006078Y008053D02*
X006308Y008053D01*
X006349Y007955D02*
X006037Y007955D01*
X005957Y007856D02*
X006428Y007856D01*
X006460Y007462D02*
X005925Y007462D01*
X006023Y007364D02*
X006028Y007353D01*
X006358Y007353D01*
X006362Y007364D01*
X006413Y006871D02*
X005972Y006871D01*
X006025Y006773D02*
X005818Y006773D01*
X005927Y006674D02*
X002143Y006674D01*
X002143Y006576D02*
X005828Y006576D01*
X005568Y006773D02*
X002818Y006773D01*
X002972Y006871D02*
X005413Y006871D01*
X005343Y006970D02*
X003043Y006970D01*
X003083Y007068D02*
X005303Y007068D01*
X005303Y007167D02*
X003083Y007167D01*
X002568Y006773D02*
X002143Y006773D01*
X002143Y006871D02*
X002413Y006871D01*
X002343Y006970D02*
X002143Y006970D01*
X002143Y007068D02*
X002303Y007068D01*
X002303Y007167D02*
X002143Y007167D01*
X002143Y007265D02*
X002321Y007265D01*
X002143Y007561D02*
X009978Y007561D01*
X009925Y007462D02*
X010077Y007462D01*
X010024Y007364D02*
X010319Y007364D01*
X010278Y007265D02*
X010064Y007265D01*
X010083Y007167D02*
X010263Y007167D01*
X010263Y007068D02*
X010083Y007068D01*
X010163Y006970D02*
X010299Y006970D01*
X010262Y006871D02*
X010357Y006871D01*
X010360Y006773D02*
X010464Y006773D01*
X010403Y006674D02*
X012115Y006674D01*
X012213Y006576D02*
X010403Y006576D01*
X010403Y006477D02*
X010419Y006477D01*
X010967Y006477D02*
X011480Y006477D01*
X011568Y006773D02*
X010922Y006773D01*
X011818Y006773D02*
X012016Y006773D01*
X011983Y006871D02*
X011972Y006871D01*
X011906Y006477D02*
X012312Y006477D01*
X009880Y007659D02*
X002143Y007659D01*
X002925Y007462D02*
X005460Y007462D01*
X005362Y007364D02*
X005303Y007221D01*
X005428Y007856D02*
X002957Y007856D01*
X003037Y007955D02*
X005349Y007955D01*
X005308Y008053D02*
X003078Y008053D01*
X003083Y008152D02*
X005303Y008152D01*
X005315Y008250D02*
X003097Y008250D01*
X003195Y008349D02*
X005356Y008349D01*
X006031Y008940D02*
X006192Y008940D01*
X006291Y009038D02*
X006071Y009038D01*
X006083Y009137D02*
X006303Y009137D01*
X006309Y009235D02*
X006077Y009235D01*
X006036Y009334D02*
X006350Y009334D01*
X006430Y009432D02*
X005955Y009432D01*
X005770Y009753D02*
X005914Y009813D01*
X006023Y009922D01*
X006083Y010066D01*
X006083Y010221D01*
X006023Y010364D01*
X005914Y010474D01*
X005770Y010533D01*
X005615Y010533D01*
X005472Y010474D01*
X005362Y010364D01*
X005303Y010221D01*
X005303Y010066D01*
X005362Y009922D01*
X005472Y009813D01*
X005615Y009753D01*
X005770Y009753D01*
X005927Y009826D02*
X006458Y009826D01*
X006361Y009925D02*
X006024Y009925D01*
X006065Y010023D02*
X006320Y010023D01*
X006303Y010122D02*
X006083Y010122D01*
X006083Y010220D02*
X006303Y010220D01*
X006343Y010319D02*
X006042Y010319D01*
X005970Y010417D02*
X006415Y010417D01*
X006573Y010516D02*
X005813Y010516D01*
X005573Y010516D02*
X004745Y010516D01*
X004771Y010614D02*
X006925Y010614D01*
X007023Y010516D02*
X006813Y010516D01*
X006970Y010417D02*
X007122Y010417D01*
X007042Y010319D02*
X007220Y010319D01*
X007319Y010220D02*
X007083Y010220D01*
X007083Y010122D02*
X007417Y010122D01*
X007516Y010023D02*
X007110Y010023D01*
X007208Y009925D02*
X007614Y009925D01*
X007713Y009826D02*
X007307Y009826D01*
X007405Y009728D02*
X007811Y009728D01*
X007910Y009629D02*
X007504Y009629D01*
X007602Y009531D02*
X008008Y009531D01*
X007799Y009334D02*
X009350Y009334D01*
X009309Y009235D02*
X007898Y009235D01*
X007996Y009137D02*
X009303Y009137D01*
X009314Y009038D02*
X008095Y009038D01*
X008193Y008940D02*
X009355Y008940D01*
X009430Y009432D02*
X007701Y009432D01*
X008208Y009925D02*
X009361Y009925D01*
X009320Y010023D02*
X008110Y010023D01*
X008011Y010122D02*
X009303Y010122D01*
X009303Y010220D02*
X007913Y010220D01*
X007814Y010319D02*
X009343Y010319D01*
X009415Y010417D02*
X007716Y010417D01*
X007617Y010516D02*
X009023Y010516D01*
X008925Y010614D02*
X007519Y010614D01*
X007420Y010713D02*
X008826Y010713D01*
X008728Y010811D02*
X007322Y010811D01*
X007223Y010910D02*
X008629Y010910D01*
X008531Y011008D02*
X007125Y011008D01*
X007083Y011107D02*
X008432Y011107D01*
X008334Y011205D02*
X007083Y011205D01*
X007048Y011304D02*
X008235Y011304D01*
X008137Y011402D02*
X006985Y011402D01*
X006849Y011501D02*
X008038Y011501D01*
X007940Y011599D02*
X006446Y011599D01*
X006537Y011501D02*
X006347Y011501D01*
X006280Y011433D02*
X006604Y011758D01*
X006615Y011753D01*
X006770Y011753D01*
X006914Y011813D01*
X007023Y011922D01*
X007083Y012066D01*
X007083Y012221D01*
X007023Y012364D01*
X006914Y012474D01*
X006770Y012533D01*
X006615Y012533D01*
X006472Y012474D01*
X006362Y012364D01*
X006303Y012221D01*
X006303Y012066D01*
X006307Y012055D01*
X006106Y011853D01*
X005983Y011853D01*
X006006Y011876D01*
X006044Y011928D01*
X006073Y011986D01*
X006093Y012047D01*
X006103Y012111D01*
X006103Y012113D01*
X005723Y012113D01*
X005723Y012173D01*
X006103Y012173D01*
X006103Y012176D01*
X006093Y012239D01*
X006073Y012301D01*
X006044Y012358D01*
X006006Y012410D01*
X005960Y012456D01*
X005908Y012494D01*
X005850Y012523D01*
X005789Y012543D01*
X005725Y012553D01*
X005723Y012553D01*
X005723Y012173D01*
X005663Y012173D01*
X005663Y012113D01*
X005283Y012113D01*
X005283Y012111D01*
X005293Y012047D01*
X005313Y011986D01*
X005342Y011928D01*
X005380Y011876D01*
X005403Y011853D01*
X003106Y011853D01*
X002983Y011730D01*
X002781Y011529D01*
X002770Y011533D01*
X002615Y011533D01*
X002472Y011474D01*
X002362Y011364D01*
X002303Y011221D01*
X002303Y011066D01*
X002362Y010922D01*
X002472Y010813D01*
X002615Y010753D01*
X002770Y010753D01*
X002914Y010813D01*
X003023Y010922D01*
X003083Y011066D01*
X003083Y011221D01*
X003078Y011232D01*
X003280Y011433D01*
X005431Y011433D01*
X005362Y011364D01*
X005303Y011221D01*
X005303Y011066D01*
X005362Y010922D01*
X005472Y010813D01*
X005615Y010753D01*
X005770Y010753D01*
X005914Y010813D01*
X006023Y010922D01*
X006083Y011066D01*
X006083Y011221D01*
X006023Y011364D01*
X005954Y011433D01*
X006280Y011433D01*
X006400Y011402D02*
X005985Y011402D01*
X006048Y011304D02*
X006337Y011304D01*
X006303Y011205D02*
X006083Y011205D01*
X006083Y011107D02*
X006303Y011107D01*
X006327Y011008D02*
X006059Y011008D01*
X006011Y010910D02*
X006375Y010910D01*
X006475Y010811D02*
X005910Y010811D01*
X005475Y010811D02*
X004728Y010811D01*
X004769Y010713D02*
X006826Y010713D01*
X006811Y009728D02*
X003824Y009728D01*
X003726Y009629D02*
X006910Y009629D01*
X005458Y009826D02*
X003923Y009826D01*
X004021Y009925D02*
X005361Y009925D01*
X005320Y010023D02*
X004120Y010023D01*
X004218Y010122D02*
X005303Y010122D01*
X005303Y010220D02*
X004317Y010220D01*
X004517Y010319D02*
X005343Y010319D01*
X005415Y010417D02*
X004681Y010417D01*
X004640Y010910D02*
X005375Y010910D01*
X005327Y011008D02*
X003059Y011008D01*
X003083Y011107D02*
X005303Y011107D01*
X005303Y011205D02*
X003083Y011205D01*
X003150Y011304D02*
X005337Y011304D01*
X005400Y011402D02*
X003249Y011402D01*
X002950Y011698D02*
X002143Y011698D01*
X002143Y011796D02*
X002511Y011796D01*
X002472Y011813D02*
X002615Y011753D01*
X002770Y011753D01*
X002914Y011813D01*
X003023Y011922D01*
X003028Y011933D01*
X004530Y011933D01*
X004653Y012056D01*
X004912Y012315D01*
X005008Y012315D01*
X005129Y012365D01*
X005221Y012457D01*
X005271Y012578D01*
X005271Y012709D01*
X005221Y012829D01*
X005129Y012921D01*
X005008Y012971D01*
X004878Y012971D01*
X004757Y012921D01*
X004665Y012829D01*
X004615Y012709D01*
X004615Y012612D01*
X004356Y012353D01*
X003028Y012353D01*
X003023Y012364D01*
X002914Y012474D01*
X002770Y012533D01*
X002615Y012533D01*
X002472Y012474D01*
X002362Y012364D01*
X002303Y012221D01*
X002303Y012066D01*
X002362Y011922D01*
X002472Y011813D01*
X002390Y011895D02*
X002143Y011895D01*
X002143Y011993D02*
X002333Y011993D01*
X002303Y012092D02*
X002143Y012092D01*
X002143Y012190D02*
X002303Y012190D01*
X002331Y012289D02*
X002143Y012289D01*
X002143Y012387D02*
X002385Y012387D01*
X002501Y012486D02*
X002143Y012486D01*
X002143Y012584D02*
X004587Y012584D01*
X004615Y012683D02*
X002143Y012683D01*
X002143Y012781D02*
X002351Y012781D01*
X002303Y012880D02*
X002143Y012880D01*
X002143Y012978D02*
X002303Y012978D01*
X002303Y013077D02*
X002143Y013077D01*
X002143Y013175D02*
X002303Y013175D01*
X002303Y013274D02*
X002143Y013274D01*
X002143Y013372D02*
X002303Y013372D01*
X002317Y013471D02*
X002143Y013471D01*
X002143Y013569D02*
X002483Y013569D01*
X002483Y013668D02*
X002143Y013668D01*
X002143Y013766D02*
X002483Y013766D01*
X002483Y013865D02*
X002143Y013865D01*
X002143Y013963D02*
X002483Y013963D01*
X002483Y014062D02*
X002143Y014062D01*
X002143Y014160D02*
X002483Y014160D01*
X002511Y014259D02*
X002143Y014259D01*
X002143Y014357D02*
X002610Y014357D01*
X002708Y014456D02*
X002143Y014456D01*
X002143Y014554D02*
X002807Y014554D01*
X002905Y014653D02*
X002143Y014653D01*
X002143Y014751D02*
X002572Y014751D01*
X002597Y014743D02*
X002661Y014733D01*
X002663Y014733D01*
X002663Y015113D01*
X002723Y015113D01*
X002723Y014733D01*
X002725Y014733D01*
X002789Y014743D01*
X002850Y014763D01*
X002908Y014793D01*
X002960Y014831D01*
X003006Y014876D01*
X003044Y014928D01*
X003073Y014986D01*
X003093Y015047D01*
X003103Y015111D01*
X003103Y015113D01*
X002723Y015113D01*
X002723Y015173D01*
X003103Y015173D01*
X003103Y015176D01*
X003093Y015239D01*
X003073Y015301D01*
X003044Y015358D01*
X003006Y015410D01*
X002960Y015456D01*
X002908Y015494D01*
X002850Y015523D01*
X002789Y015543D01*
X002725Y015553D01*
X002723Y015553D01*
X002723Y015173D01*
X002663Y015173D01*
X002663Y015113D01*
X002283Y015113D01*
X002283Y015111D01*
X002293Y015047D01*
X002143Y015047D01*
X002143Y015145D02*
X002663Y015145D01*
X002663Y015173D02*
X002283Y015173D01*
X002283Y015176D01*
X002293Y015239D01*
X002313Y015301D01*
X002342Y015358D01*
X002380Y015410D01*
X002426Y015456D01*
X002478Y015494D01*
X002535Y015523D01*
X002597Y015543D01*
X002661Y015553D01*
X002663Y015553D01*
X002663Y015173D01*
X002723Y015145D02*
X003398Y015145D01*
X003299Y015047D02*
X003093Y015047D01*
X003054Y014948D02*
X003201Y014948D01*
X003102Y014850D02*
X002979Y014850D01*
X003004Y014751D02*
X002813Y014751D01*
X002723Y014751D02*
X002663Y014751D01*
X002597Y014743D02*
X002535Y014763D01*
X002478Y014793D01*
X002426Y014831D01*
X002380Y014876D01*
X002342Y014928D01*
X002313Y014986D01*
X002293Y015047D01*
X002332Y014948D02*
X002143Y014948D01*
X002143Y014850D02*
X002406Y014850D01*
X002663Y014850D02*
X002723Y014850D01*
X002723Y014948D02*
X002663Y014948D01*
X002663Y015047D02*
X002723Y015047D01*
X002723Y015244D02*
X002663Y015244D01*
X002663Y015342D02*
X002723Y015342D01*
X002723Y015441D02*
X002663Y015441D01*
X002663Y015539D02*
X002723Y015539D01*
X002801Y015539D02*
X005250Y015539D01*
X005348Y015441D02*
X002975Y015441D01*
X003052Y015342D02*
X003595Y015342D01*
X003496Y015244D02*
X003091Y015244D01*
X002585Y015539D02*
X002143Y015539D01*
X002143Y015441D02*
X002411Y015441D01*
X002334Y015342D02*
X002143Y015342D01*
X002143Y015244D02*
X002294Y015244D01*
X002143Y015638D02*
X005151Y015638D01*
X005053Y015736D02*
X002143Y015736D01*
X002143Y015835D02*
X002450Y015835D01*
X002472Y015813D02*
X002615Y015753D01*
X002770Y015753D01*
X002914Y015813D01*
X003023Y015922D01*
X003083Y016066D01*
X003083Y016221D01*
X003023Y016364D01*
X002914Y016474D01*
X002770Y016533D01*
X002615Y016533D01*
X002472Y016474D01*
X002362Y016364D01*
X002303Y016221D01*
X002303Y016066D01*
X002362Y015922D01*
X002472Y015813D01*
X002358Y015933D02*
X002143Y015933D01*
X002143Y016032D02*
X002317Y016032D01*
X002303Y016130D02*
X002143Y016130D01*
X002143Y016229D02*
X002306Y016229D01*
X002347Y016327D02*
X002143Y016327D01*
X002143Y016426D02*
X002424Y016426D01*
X002594Y016524D02*
X002143Y016524D01*
X002143Y016623D02*
X004916Y016623D01*
X004983Y016524D02*
X002792Y016524D01*
X002962Y016426D02*
X004983Y016426D01*
X004983Y016327D02*
X003039Y016327D01*
X003080Y016229D02*
X004983Y016229D01*
X004983Y016130D02*
X003083Y016130D01*
X003069Y016032D02*
X004983Y016032D01*
X004983Y015933D02*
X003028Y015933D01*
X002936Y015835D02*
X004983Y015835D01*
X005403Y016426D02*
X005424Y016426D01*
X005403Y016524D02*
X005594Y016524D01*
X005792Y016524D02*
X006594Y016524D01*
X006424Y016426D02*
X005962Y016426D01*
X006039Y016327D02*
X006347Y016327D01*
X006306Y016229D02*
X006080Y016229D01*
X006083Y016130D02*
X006303Y016130D01*
X006317Y016032D02*
X006069Y016032D01*
X006028Y015933D02*
X006358Y015933D01*
X006875Y016623D02*
X005403Y016623D01*
X005403Y016721D02*
X006974Y016721D01*
X006914Y016813D02*
X007023Y016922D01*
X007083Y017066D01*
X007083Y017221D01*
X007078Y017232D01*
X007280Y017433D01*
X009431Y017433D01*
X009362Y017364D01*
X009303Y017221D01*
X009303Y017066D01*
X009362Y016922D01*
X009431Y016853D01*
X009366Y016918D02*
X007019Y016918D01*
X007063Y017017D02*
X009323Y017017D01*
X009303Y017115D02*
X007083Y017115D01*
X007083Y017214D02*
X009303Y017214D01*
X009341Y017312D02*
X007159Y017312D01*
X007257Y017411D02*
X009409Y017411D01*
X009431Y017853D02*
X009362Y017922D01*
X009303Y018066D01*
X009303Y018221D01*
X009362Y018364D01*
X009431Y018433D01*
X007106Y018433D01*
X006983Y018556D01*
X006781Y018758D01*
X006770Y018753D01*
X006615Y018753D01*
X006472Y018813D01*
X006362Y018922D01*
X006303Y019066D01*
X006303Y019221D01*
X006362Y019364D01*
X006431Y019433D01*
X006280Y019433D01*
X006078Y019232D01*
X006083Y019221D01*
X006083Y019066D01*
X006023Y018922D01*
X005954Y018853D01*
X006280Y018853D01*
X006403Y018730D01*
X006604Y018529D01*
X006615Y018533D01*
X006770Y018533D01*
X006914Y018474D01*
X007023Y018364D01*
X007083Y018221D01*
X007083Y018066D01*
X007023Y017922D01*
X006914Y017813D01*
X006770Y017753D01*
X006615Y017753D01*
X006472Y017813D01*
X006362Y017922D01*
X006303Y018066D01*
X006303Y018221D01*
X006307Y018232D01*
X006106Y018433D01*
X005954Y018433D01*
X006023Y018364D01*
X006083Y018221D01*
X006083Y018066D01*
X006023Y017922D01*
X005914Y017813D01*
X005770Y017753D01*
X005615Y017753D01*
X005472Y017813D01*
X005362Y017922D01*
X005303Y018066D01*
X005303Y018221D01*
X005362Y018364D01*
X005431Y018433D01*
X005106Y018433D01*
X003606Y019933D01*
X003028Y019933D01*
X003023Y019922D01*
X002914Y019813D01*
X002770Y019753D01*
X002615Y019753D01*
X002472Y019813D01*
X002362Y019922D01*
X002303Y020066D01*
X002303Y020221D01*
X002362Y020364D01*
X002472Y020474D01*
X002615Y020533D01*
X002770Y020533D01*
X002914Y020474D01*
X003023Y020364D01*
X003028Y020353D01*
X003780Y020353D01*
X003903Y020230D01*
X005280Y018853D01*
X005431Y018853D01*
X005362Y018922D01*
X005303Y019066D01*
X005303Y019221D01*
X005362Y019364D01*
X005472Y019474D01*
X005615Y019533D01*
X005770Y019533D01*
X005781Y019529D01*
X005983Y019730D01*
X006106Y019853D01*
X006431Y019853D01*
X006362Y019922D01*
X006303Y020066D01*
X006303Y020221D01*
X006362Y020364D01*
X006472Y020474D01*
X006615Y020533D01*
X006770Y020533D01*
X006781Y020529D01*
X006983Y020730D01*
X007006Y020753D01*
X006600Y020753D01*
X006280Y020433D01*
X005954Y020433D01*
X006023Y020364D01*
X006083Y020221D01*
X006083Y020066D01*
X006023Y019922D01*
X005914Y019813D01*
X005770Y019753D01*
X005615Y019753D01*
X005472Y019813D01*
X005362Y019922D01*
X005303Y020066D01*
X005303Y020221D01*
X005362Y020364D01*
X005431Y020433D01*
X003106Y020433D01*
X002983Y020556D01*
X002786Y020753D01*
X002379Y020753D01*
X002303Y020829D01*
X002303Y021457D01*
X002379Y021533D01*
X003007Y021533D01*
X003083Y021457D01*
X003083Y021050D01*
X003280Y020853D01*
X005431Y020853D01*
X005362Y020922D01*
X005303Y021066D01*
X005303Y021180D01*
X004729Y021753D01*
X004531Y021753D01*
X004303Y021982D01*
X004303Y022305D01*
X004531Y022533D01*
X003883Y022533D01*
X003863Y022553D02*
X003723Y022553D01*
X003723Y022173D01*
X004103Y022173D01*
X004103Y022313D01*
X003863Y022553D01*
X003723Y022533D02*
X003663Y022533D01*
X003663Y022553D02*
X003523Y022553D01*
X003283Y022313D01*
X003283Y022173D01*
X003663Y022173D01*
X003663Y022113D01*
X003723Y022113D01*
X003723Y021733D01*
X003863Y021733D01*
X004103Y021973D01*
X004103Y022113D01*
X003723Y022113D01*
X003723Y022173D01*
X003663Y022173D01*
X003663Y022553D01*
X003663Y022434D02*
X003723Y022434D01*
X003723Y022336D02*
X003663Y022336D01*
X003663Y022237D02*
X003723Y022237D01*
X003723Y022139D02*
X004303Y022139D01*
X004303Y022237D02*
X004103Y022237D01*
X004080Y022336D02*
X004334Y022336D01*
X004432Y022434D02*
X003982Y022434D01*
X003663Y022139D02*
X002143Y022139D01*
X002143Y022237D02*
X003283Y022237D01*
X003306Y022336D02*
X002143Y022336D01*
X002143Y022434D02*
X003404Y022434D01*
X003503Y022533D02*
X002143Y022533D01*
X002143Y022040D02*
X003283Y022040D01*
X003283Y021973D02*
X003523Y021733D01*
X003663Y021733D01*
X003663Y022113D01*
X003283Y022113D01*
X003283Y021973D01*
X003314Y021942D02*
X002143Y021942D01*
X002143Y021843D02*
X003413Y021843D01*
X003511Y021745D02*
X002143Y021745D01*
X002143Y021646D02*
X004836Y021646D01*
X004935Y021548D02*
X002143Y021548D01*
X002143Y021449D02*
X002303Y021449D01*
X002303Y021351D02*
X002143Y021351D01*
X002143Y021252D02*
X002303Y021252D01*
X002303Y021154D02*
X002143Y021154D01*
X002143Y021055D02*
X002303Y021055D01*
X002303Y020957D02*
X002143Y020957D01*
X002143Y020858D02*
X002303Y020858D01*
X002372Y020760D02*
X002143Y020760D01*
X002143Y020661D02*
X002878Y020661D01*
X002976Y020563D02*
X002143Y020563D01*
X002143Y020464D02*
X002462Y020464D01*
X002364Y020366D02*
X002143Y020366D01*
X002143Y020267D02*
X002322Y020267D01*
X002303Y020169D02*
X002143Y020169D01*
X002143Y020070D02*
X002303Y020070D01*
X002342Y019972D02*
X002143Y019972D01*
X002143Y019873D02*
X002411Y019873D01*
X002563Y019775D02*
X002143Y019775D01*
X002143Y019676D02*
X003863Y019676D01*
X003961Y019578D02*
X002143Y019578D01*
X002143Y019479D02*
X002485Y019479D01*
X002379Y019381D02*
X002143Y019381D01*
X002143Y019282D02*
X002328Y019282D01*
X002303Y019184D02*
X002143Y019184D01*
X002143Y019085D02*
X002303Y019085D01*
X002336Y018987D02*
X002143Y018987D01*
X002143Y018888D02*
X002396Y018888D01*
X002527Y018790D02*
X002143Y018790D01*
X002143Y018691D02*
X002848Y018691D01*
X002946Y018593D02*
X002143Y018593D01*
X002143Y018494D02*
X002521Y018494D01*
X002472Y018474D02*
X002362Y018364D01*
X002303Y018221D01*
X002303Y018066D01*
X002362Y017922D01*
X002472Y017813D01*
X002615Y017753D01*
X002770Y017753D01*
X002914Y017813D01*
X003023Y017922D01*
X003083Y018066D01*
X003083Y018221D01*
X003023Y018364D01*
X002914Y018474D01*
X002770Y018533D01*
X002615Y018533D01*
X002472Y018474D01*
X002394Y018396D02*
X002143Y018396D01*
X002143Y018297D02*
X002335Y018297D01*
X002303Y018199D02*
X002143Y018199D01*
X002143Y018100D02*
X002303Y018100D01*
X002329Y018002D02*
X002143Y018002D01*
X002143Y017903D02*
X002381Y017903D01*
X002491Y017805D02*
X002143Y017805D01*
X002143Y017706D02*
X003833Y017706D01*
X003931Y017608D02*
X002143Y017608D01*
X002143Y017509D02*
X002557Y017509D01*
X002615Y017533D02*
X002472Y017474D01*
X002362Y017364D01*
X002303Y017221D01*
X002303Y017066D01*
X002362Y016922D01*
X002472Y016813D01*
X002615Y016753D01*
X002770Y016753D01*
X002914Y016813D01*
X003023Y016922D01*
X003083Y017066D01*
X003083Y017221D01*
X003023Y017364D01*
X002914Y017474D01*
X002770Y017533D01*
X002615Y017533D01*
X002828Y017509D02*
X004030Y017509D01*
X004128Y017411D02*
X002977Y017411D01*
X003045Y017312D02*
X004227Y017312D01*
X004325Y017214D02*
X003083Y017214D01*
X003083Y017115D02*
X004424Y017115D01*
X004522Y017017D02*
X003063Y017017D01*
X003019Y016918D02*
X004621Y016918D01*
X004719Y016820D02*
X002921Y016820D01*
X002465Y016820D02*
X002143Y016820D01*
X002143Y016918D02*
X002366Y016918D01*
X002323Y017017D02*
X002143Y017017D01*
X002143Y017115D02*
X002303Y017115D01*
X002303Y017214D02*
X002143Y017214D01*
X002143Y017312D02*
X002341Y017312D01*
X002409Y017411D02*
X002143Y017411D01*
X002143Y016721D02*
X004818Y016721D01*
X005116Y017017D02*
X005323Y017017D01*
X005303Y017066D02*
X005362Y016922D01*
X005472Y016813D01*
X005615Y016753D01*
X005770Y016753D01*
X005914Y016813D01*
X006023Y016922D01*
X006083Y017066D01*
X006083Y017221D01*
X006023Y017364D01*
X005914Y017474D01*
X005770Y017533D01*
X005615Y017533D01*
X005472Y017474D01*
X005362Y017364D01*
X005303Y017221D01*
X005303Y017066D01*
X005303Y017115D02*
X005018Y017115D01*
X004919Y017214D02*
X005303Y017214D01*
X005341Y017312D02*
X004821Y017312D01*
X004722Y017411D02*
X005409Y017411D01*
X005557Y017509D02*
X004624Y017509D01*
X004525Y017608D02*
X006860Y017608D01*
X006781Y017529D02*
X006770Y017533D01*
X006615Y017533D01*
X006472Y017474D01*
X006362Y017364D01*
X006303Y017221D01*
X006303Y017066D01*
X006362Y016922D01*
X006472Y016813D01*
X006615Y016753D01*
X006770Y016753D01*
X006914Y016813D01*
X006921Y016820D02*
X007072Y016820D01*
X006465Y016820D02*
X005921Y016820D01*
X006019Y016918D02*
X006366Y016918D01*
X006323Y017017D02*
X006063Y017017D01*
X006083Y017115D02*
X006303Y017115D01*
X006303Y017214D02*
X006083Y017214D01*
X006045Y017312D02*
X006341Y017312D01*
X006409Y017411D02*
X005977Y017411D01*
X005828Y017509D02*
X006557Y017509D01*
X006781Y017529D02*
X006983Y017730D01*
X007106Y017853D01*
X009431Y017853D01*
X009381Y017903D02*
X007004Y017903D01*
X007057Y017805D02*
X006895Y017805D01*
X006959Y017706D02*
X004427Y017706D01*
X004328Y017805D02*
X005491Y017805D01*
X005381Y017903D02*
X004230Y017903D01*
X004131Y018002D02*
X005329Y018002D01*
X005303Y018100D02*
X004033Y018100D01*
X003934Y018199D02*
X005303Y018199D01*
X005335Y018297D02*
X003836Y018297D01*
X003737Y018396D02*
X005394Y018396D01*
X005045Y018494D02*
X003639Y018494D01*
X003540Y018593D02*
X004946Y018593D01*
X004848Y018691D02*
X003442Y018691D01*
X003343Y018790D02*
X004749Y018790D01*
X004651Y018888D02*
X003245Y018888D01*
X003146Y018987D02*
X004552Y018987D01*
X004454Y019085D02*
X003083Y019085D01*
X003083Y019184D02*
X004355Y019184D01*
X004257Y019282D02*
X003057Y019282D01*
X003007Y019381D02*
X004158Y019381D01*
X004060Y019479D02*
X002901Y019479D01*
X002822Y019775D02*
X003764Y019775D01*
X003666Y019873D02*
X002974Y019873D01*
X003022Y020366D02*
X005364Y020366D01*
X005322Y020267D02*
X003866Y020267D01*
X003964Y020169D02*
X005303Y020169D01*
X005303Y020070D02*
X004063Y020070D01*
X004161Y019972D02*
X005342Y019972D01*
X005411Y019873D02*
X004260Y019873D01*
X004358Y019775D02*
X005563Y019775D01*
X005822Y019775D02*
X006027Y019775D01*
X005974Y019873D02*
X006411Y019873D01*
X006342Y019972D02*
X006044Y019972D01*
X006083Y020070D02*
X006303Y020070D01*
X006303Y020169D02*
X006083Y020169D01*
X006064Y020267D02*
X006322Y020267D01*
X006364Y020366D02*
X006022Y020366D01*
X006311Y020464D02*
X006462Y020464D01*
X006409Y020563D02*
X006815Y020563D01*
X006914Y020661D02*
X006508Y020661D01*
X005426Y020858D02*
X003275Y020858D01*
X003176Y020957D02*
X005348Y020957D01*
X005307Y021055D02*
X003083Y021055D01*
X003083Y021154D02*
X005303Y021154D01*
X005230Y021252D02*
X003083Y021252D01*
X003083Y021351D02*
X005132Y021351D01*
X005033Y021449D02*
X003083Y021449D01*
X003663Y021745D02*
X003723Y021745D01*
X003723Y021843D02*
X003663Y021843D01*
X003663Y021942D02*
X003723Y021942D01*
X003723Y022040D02*
X003663Y022040D01*
X003874Y021745D02*
X004738Y021745D01*
X004441Y021843D02*
X003973Y021843D01*
X004071Y021942D02*
X004343Y021942D01*
X004303Y022040D02*
X004103Y022040D01*
X004531Y022533D02*
X004854Y022533D01*
X005083Y022305D01*
X005083Y022107D01*
X005656Y021533D01*
X005729Y021533D01*
X005981Y021785D01*
X006051Y021855D01*
X006143Y021893D01*
X007363Y021893D01*
X007283Y021973D01*
X007283Y022113D01*
X007663Y022113D01*
X007663Y022173D01*
X007283Y022173D01*
X007283Y022313D01*
X007523Y022553D01*
X007663Y022553D01*
X007663Y022173D01*
X007723Y022173D01*
X008103Y022173D01*
X008103Y022313D01*
X007863Y022553D01*
X007723Y022553D01*
X007723Y022173D01*
X007723Y022113D01*
X008103Y022113D01*
X008103Y021973D01*
X008023Y021893D01*
X008391Y021893D01*
X008303Y021982D01*
X008303Y022305D01*
X008531Y022533D01*
X007883Y022533D01*
X007982Y022434D02*
X008432Y022434D01*
X008334Y022336D02*
X008080Y022336D01*
X008103Y022237D02*
X008303Y022237D01*
X008303Y022139D02*
X007723Y022139D01*
X007663Y022139D02*
X005083Y022139D01*
X005083Y022237D02*
X007283Y022237D01*
X007306Y022336D02*
X005052Y022336D01*
X004953Y022434D02*
X007404Y022434D01*
X007503Y022533D02*
X004855Y022533D01*
X005149Y022040D02*
X007283Y022040D01*
X007314Y021942D02*
X005248Y021942D01*
X005346Y021843D02*
X006039Y021843D01*
X005941Y021745D02*
X005445Y021745D01*
X005543Y021646D02*
X005842Y021646D01*
X005744Y021548D02*
X005642Y021548D01*
X007663Y022237D02*
X007723Y022237D01*
X007723Y022336D02*
X007663Y022336D01*
X007663Y022434D02*
X007723Y022434D01*
X007723Y022533D02*
X007663Y022533D01*
X008103Y022040D02*
X008303Y022040D01*
X008343Y021942D02*
X008071Y021942D01*
X008531Y022533D02*
X008854Y022533D01*
X009083Y022305D01*
X009083Y021982D01*
X008994Y021893D01*
X009243Y021893D01*
X009334Y021855D01*
X009656Y021533D01*
X009729Y021533D01*
X009981Y021785D01*
X010051Y021855D01*
X010143Y021893D01*
X010335Y021893D01*
X010328Y021900D01*
X010263Y022058D01*
X010263Y022229D01*
X010328Y022387D01*
X010449Y022508D01*
X010607Y022573D01*
X010778Y022573D01*
X010936Y022508D01*
X011011Y022433D01*
X011303Y022433D01*
X011303Y022457D01*
X011379Y022533D01*
X012007Y022533D01*
X016510Y022533D01*
X016449Y022508D02*
X016328Y022387D01*
X016263Y022229D01*
X016263Y022058D01*
X016328Y021900D01*
X016335Y021893D01*
X015143Y021893D01*
X015051Y021855D01*
X014981Y021785D01*
X014981Y021785D01*
X014729Y021533D01*
X014656Y021533D01*
X014334Y021855D01*
X014243Y021893D01*
X012083Y021893D01*
X012083Y022457D01*
X012007Y022533D01*
X012083Y022434D02*
X016376Y022434D01*
X016449Y022508D02*
X016607Y022573D01*
X016778Y022573D01*
X016936Y022508D01*
X017011Y022433D01*
X017431Y022433D01*
X017472Y022474D01*
X017615Y022533D01*
X017770Y022533D01*
X017914Y022474D01*
X018023Y022364D01*
X018083Y022221D01*
X018083Y022066D01*
X018023Y021922D01*
X017994Y021893D01*
X018283Y021893D01*
X018283Y022113D01*
X018663Y022113D01*
X018663Y022173D01*
X018283Y022173D01*
X018283Y022423D01*
X018293Y022461D01*
X018313Y022495D01*
X018341Y022523D01*
X018375Y022543D01*
X018413Y022553D01*
X018663Y022553D01*
X018663Y022173D01*
X018723Y022173D01*
X019103Y022173D01*
X019103Y022423D01*
X019093Y022461D01*
X019073Y022495D01*
X019045Y022523D01*
X019011Y022543D01*
X018973Y022553D01*
X018723Y022553D01*
X018723Y022173D01*
X018723Y022113D01*
X019103Y022113D01*
X019103Y021893D01*
X024089Y021893D01*
X024303Y022107D01*
X024303Y022221D01*
X024362Y022364D01*
X024472Y022474D01*
X024615Y022533D01*
X024770Y022533D01*
X024914Y022474D01*
X025023Y022364D01*
X025083Y022221D01*
X025083Y022107D01*
X025296Y021893D01*
X025303Y021893D01*
X025303Y022457D01*
X025379Y022533D01*
X026007Y022533D01*
X026083Y022434D02*
X028432Y022434D01*
X028350Y022336D02*
X026083Y022336D01*
X026083Y022237D02*
X028310Y022237D01*
X028303Y022139D02*
X026083Y022139D01*
X026083Y022040D02*
X028236Y022040D01*
X028138Y021942D02*
X026083Y021942D01*
X026029Y021351D02*
X028357Y021351D01*
X028352Y021449D02*
X028447Y021449D01*
X028405Y021502D02*
X028405Y021502D01*
X028316Y021252D02*
X026070Y021252D01*
X026083Y021154D02*
X028303Y021154D01*
X028307Y021055D02*
X026079Y021055D01*
X026038Y020957D02*
X028348Y020957D01*
X028426Y020858D02*
X025959Y020858D01*
X026012Y020760D02*
X025786Y020760D01*
X025914Y020661D02*
X016501Y020661D01*
X016493Y020563D02*
X016582Y020563D01*
X016495Y020760D02*
X016478Y020760D01*
X016804Y020563D02*
X025815Y020563D01*
X025599Y020760D02*
X024786Y020760D01*
X024770Y020753D02*
X024914Y020813D01*
X025023Y020922D01*
X025083Y021066D01*
X025083Y021221D01*
X025023Y021364D01*
X024914Y021474D01*
X024770Y021533D01*
X024615Y021533D01*
X024472Y021474D01*
X024362Y021364D01*
X024303Y021221D01*
X024303Y021066D01*
X024362Y020922D01*
X024472Y020813D01*
X024615Y020753D01*
X024770Y020753D01*
X024599Y020760D02*
X023418Y020760D01*
X023516Y020858D02*
X024426Y020858D01*
X024348Y020957D02*
X023615Y020957D01*
X023623Y021055D02*
X024307Y021055D01*
X024303Y021154D02*
X023623Y021154D01*
X023623Y021252D02*
X024316Y021252D01*
X024357Y021351D02*
X023593Y021351D01*
X024352Y021449D02*
X024447Y021449D01*
X024451Y021548D02*
X024935Y021548D01*
X024938Y021449D02*
X025033Y021449D01*
X025029Y021351D02*
X025357Y021351D01*
X025316Y021252D02*
X025070Y021252D01*
X025083Y021154D02*
X025303Y021154D01*
X025307Y021055D02*
X025079Y021055D01*
X025038Y020957D02*
X025348Y020957D01*
X025426Y020858D02*
X024959Y020858D01*
X024770Y020533D02*
X024615Y020533D01*
X024472Y020474D01*
X024362Y020364D01*
X024303Y020221D01*
X024303Y020066D01*
X024362Y019922D01*
X024472Y019813D01*
X024615Y019753D01*
X024770Y019753D01*
X024914Y019813D01*
X025023Y019922D01*
X025083Y020066D01*
X025083Y020221D01*
X025023Y020364D01*
X024914Y020474D01*
X024770Y020533D01*
X024923Y020464D02*
X025462Y020464D01*
X025364Y020366D02*
X025022Y020366D01*
X025064Y020267D02*
X025322Y020267D01*
X025303Y020169D02*
X025083Y020169D01*
X025083Y020070D02*
X025303Y020070D01*
X025342Y019972D02*
X025044Y019972D01*
X024974Y019873D02*
X025411Y019873D01*
X025027Y019775D02*
X024822Y019775D01*
X024929Y019676D02*
X023638Y019676D01*
X023638Y019732D02*
X023570Y019895D01*
X023445Y020021D01*
X023281Y020088D01*
X023104Y020088D01*
X022941Y020021D01*
X022816Y019895D01*
X022748Y019732D01*
X022748Y019555D01*
X022816Y019391D01*
X022941Y019266D01*
X023104Y019198D01*
X023281Y019198D01*
X023445Y019266D01*
X023570Y019391D01*
X023638Y019555D01*
X023638Y019732D01*
X023620Y019775D02*
X024563Y019775D01*
X024411Y019873D02*
X023579Y019873D01*
X023494Y019972D02*
X024342Y019972D01*
X024303Y020070D02*
X023325Y020070D01*
X023061Y020070D02*
X022395Y020070D01*
X022377Y020088D02*
X022009Y020088D01*
X021748Y019828D01*
X021748Y019459D01*
X022009Y019198D01*
X022377Y019198D01*
X022638Y019459D01*
X022638Y019828D01*
X022377Y020088D01*
X022494Y019972D02*
X022892Y019972D01*
X022806Y019873D02*
X022592Y019873D01*
X022638Y019775D02*
X022766Y019775D01*
X022748Y019676D02*
X022638Y019676D01*
X022638Y019578D02*
X022748Y019578D01*
X022779Y019479D02*
X022638Y019479D01*
X022560Y019381D02*
X022826Y019381D01*
X022924Y019282D02*
X022461Y019282D01*
X021924Y019282D02*
X021461Y019282D01*
X021377Y019198D02*
X021009Y019198D01*
X020748Y019459D01*
X020748Y019828D01*
X021009Y020088D01*
X021377Y020088D01*
X021638Y019828D01*
X021638Y019459D01*
X021377Y019198D01*
X021560Y019381D02*
X021826Y019381D01*
X021748Y019479D02*
X021638Y019479D01*
X021638Y019578D02*
X021748Y019578D01*
X021748Y019676D02*
X021638Y019676D01*
X021638Y019775D02*
X021748Y019775D01*
X021794Y019873D02*
X021592Y019873D01*
X021494Y019972D02*
X021892Y019972D01*
X021991Y020070D02*
X021395Y020070D01*
X020991Y020070D02*
X020325Y020070D01*
X020281Y020088D02*
X020104Y020088D01*
X019941Y020021D01*
X019816Y019895D01*
X019748Y019732D01*
X019748Y019555D01*
X019816Y019391D01*
X019941Y019266D01*
X020104Y019198D01*
X020281Y019198D01*
X020445Y019266D01*
X020570Y019391D01*
X020638Y019555D01*
X020638Y019732D01*
X020570Y019895D01*
X020445Y020021D01*
X020281Y020088D01*
X020061Y020070D02*
X019083Y020070D01*
X019083Y020169D02*
X024303Y020169D01*
X024322Y020267D02*
X019064Y020267D01*
X019022Y020366D02*
X024364Y020366D01*
X024462Y020464D02*
X018923Y020464D01*
X018786Y020760D02*
X019792Y020760D01*
X019763Y020858D02*
X018959Y020858D01*
X019038Y020957D02*
X019763Y020957D01*
X019763Y021055D02*
X019079Y021055D01*
X019083Y021154D02*
X019763Y021154D01*
X019763Y021252D02*
X019070Y021252D01*
X019029Y021351D02*
X019763Y021351D01*
X019103Y021942D02*
X024138Y021942D01*
X024236Y022040D02*
X019103Y022040D01*
X019103Y022237D02*
X024310Y022237D01*
X024303Y022139D02*
X018723Y022139D01*
X018663Y022139D02*
X018083Y022139D01*
X018076Y022237D02*
X018283Y022237D01*
X018283Y022336D02*
X018035Y022336D01*
X017953Y022434D02*
X018286Y022434D01*
X018357Y022533D02*
X017772Y022533D01*
X017614Y022533D02*
X016876Y022533D01*
X017010Y022434D02*
X017432Y022434D01*
X018072Y022040D02*
X018283Y022040D01*
X018283Y021942D02*
X018032Y021942D01*
X018029Y021351D02*
X018357Y021351D01*
X018316Y021252D02*
X018070Y021252D01*
X018083Y021154D02*
X018303Y021154D01*
X018307Y021055D02*
X018079Y021055D01*
X018038Y020957D02*
X018348Y020957D01*
X018426Y020858D02*
X017959Y020858D01*
X017786Y020760D02*
X018599Y020760D01*
X018462Y020464D02*
X017923Y020464D01*
X018022Y020366D02*
X018364Y020366D01*
X018322Y020267D02*
X018064Y020267D01*
X018083Y020169D02*
X018303Y020169D01*
X018303Y020070D02*
X018083Y020070D01*
X018044Y019972D02*
X018342Y019972D01*
X018411Y019873D02*
X017974Y019873D01*
X017462Y020464D02*
X016980Y020464D01*
X016891Y020760D02*
X017599Y020760D01*
X018974Y019873D02*
X019806Y019873D01*
X019766Y019775D02*
X019233Y019775D01*
X019332Y019676D02*
X019748Y019676D01*
X019748Y019578D02*
X019430Y019578D01*
X019529Y019479D02*
X019779Y019479D01*
X019826Y019381D02*
X019627Y019381D01*
X019726Y019282D02*
X019924Y019282D01*
X019824Y019184D02*
X024303Y019184D01*
X024303Y019085D02*
X019923Y019085D01*
X020021Y018987D02*
X024336Y018987D01*
X024396Y018888D02*
X021620Y018888D01*
X021718Y018790D02*
X024292Y018790D01*
X024194Y018691D02*
X021817Y018691D01*
X021903Y018593D02*
X024095Y018593D01*
X023997Y018494D02*
X023393Y018494D01*
X023492Y018396D02*
X023898Y018396D01*
X023800Y018297D02*
X023583Y018297D01*
X023583Y018199D02*
X023701Y018199D01*
X023603Y018100D02*
X023583Y018100D01*
X022980Y017805D02*
X022406Y017805D01*
X022504Y017903D02*
X022881Y017903D01*
X022803Y018002D02*
X022583Y018002D01*
X022583Y018100D02*
X022803Y018100D01*
X022803Y018199D02*
X022583Y018199D01*
X022583Y018297D02*
X022803Y018297D01*
X022894Y018396D02*
X022492Y018396D01*
X022393Y018494D02*
X022992Y018494D01*
X021992Y018494D02*
X021903Y018494D01*
X021420Y018494D02*
X021393Y018494D01*
X020992Y018494D02*
X020393Y018494D01*
X020354Y018533D02*
X020031Y018533D01*
X019803Y018305D01*
X019803Y017982D01*
X020031Y017753D01*
X020354Y017753D01*
X020583Y017982D01*
X020583Y018305D01*
X020354Y018533D01*
X020492Y018396D02*
X020894Y018396D01*
X020803Y018297D02*
X020583Y018297D01*
X020583Y018199D02*
X020803Y018199D01*
X020803Y018100D02*
X020583Y018100D01*
X020583Y018002D02*
X020803Y018002D01*
X020881Y017903D02*
X020504Y017903D01*
X020406Y017805D02*
X020980Y017805D01*
X021406Y017805D02*
X021980Y017805D01*
X021881Y017903D02*
X021504Y017903D01*
X019980Y017805D02*
X019953Y017805D01*
X019881Y017903D02*
X019855Y017903D01*
X019803Y018002D02*
X019756Y018002D01*
X019803Y018100D02*
X019658Y018100D01*
X019653Y018199D02*
X019803Y018199D01*
X019803Y018297D02*
X019653Y018297D01*
X019612Y018396D02*
X019894Y018396D01*
X019992Y018494D02*
X019514Y018494D01*
X019530Y018478D02*
X019530Y018478D01*
X019415Y018593D02*
X019821Y018593D01*
X019723Y018691D02*
X019317Y018691D01*
X019218Y018790D02*
X019624Y018790D01*
X019526Y018888D02*
X018989Y018888D01*
X019050Y018987D02*
X019427Y018987D01*
X019329Y019085D02*
X019083Y019085D01*
X019083Y019184D02*
X019230Y019184D01*
X019132Y019282D02*
X019057Y019282D01*
X019033Y019381D02*
X019007Y019381D01*
X019044Y019972D02*
X019892Y019972D01*
X020494Y019972D02*
X020892Y019972D01*
X020794Y019873D02*
X020579Y019873D01*
X020620Y019775D02*
X020748Y019775D01*
X020748Y019676D02*
X020638Y019676D01*
X020638Y019578D02*
X020748Y019578D01*
X020748Y019479D02*
X020607Y019479D01*
X020560Y019381D02*
X020826Y019381D01*
X020924Y019282D02*
X020461Y019282D01*
X020593Y020760D02*
X020940Y020760D01*
X021006Y020693D02*
X021143Y020693D01*
X021143Y021093D01*
X020743Y021093D01*
X020743Y020957D01*
X020623Y020957D01*
X020623Y021055D02*
X020743Y021055D01*
X020743Y020957D02*
X021006Y020693D01*
X021143Y020760D02*
X021243Y020760D01*
X021243Y020858D02*
X021143Y020858D01*
X021143Y020957D02*
X021243Y020957D01*
X021243Y021055D02*
X021143Y021055D01*
X021143Y021154D02*
X020623Y021154D01*
X020623Y021252D02*
X020743Y021252D01*
X020764Y021351D02*
X020623Y021351D01*
X021243Y021154D02*
X022143Y021154D01*
X022143Y021093D02*
X021743Y021093D01*
X021743Y020957D01*
X021643Y020957D01*
X021643Y021055D02*
X021743Y021055D01*
X021743Y020957D02*
X022006Y020693D01*
X022143Y020693D01*
X022143Y021093D01*
X022143Y021055D02*
X022243Y021055D01*
X022243Y020957D02*
X022143Y020957D01*
X022143Y020858D02*
X022243Y020858D01*
X022243Y020760D02*
X022143Y020760D01*
X021940Y020760D02*
X021446Y020760D01*
X021544Y020858D02*
X021841Y020858D01*
X021743Y021252D02*
X021643Y021252D01*
X021622Y021351D02*
X021764Y021351D01*
X022243Y021154D02*
X022763Y021154D01*
X022763Y021252D02*
X022643Y021252D01*
X022622Y021351D02*
X022792Y021351D01*
X022763Y021055D02*
X022643Y021055D01*
X022643Y020957D02*
X022771Y020957D01*
X022870Y020858D02*
X022544Y020858D01*
X022446Y020760D02*
X022968Y020760D01*
X023638Y019578D02*
X024830Y019578D01*
X024485Y019479D02*
X023607Y019479D01*
X023560Y019381D02*
X024379Y019381D01*
X024328Y019282D02*
X023461Y019282D01*
X025989Y018888D02*
X028396Y018888D01*
X028336Y018987D02*
X028083Y018987D01*
X028182Y019085D02*
X028303Y019085D01*
X028303Y019184D02*
X028280Y019184D01*
X028527Y018790D02*
X027093Y018790D01*
X027192Y018691D02*
X028848Y018691D01*
X029004Y017903D02*
X030381Y017903D01*
X030491Y017805D02*
X028895Y017805D01*
X029063Y017017D02*
X029283Y017017D01*
X029338Y016918D02*
X029019Y016918D01*
X029063Y016820D02*
X029436Y016820D01*
X029359Y016524D02*
X029522Y016524D01*
X029424Y016426D02*
X029403Y016426D01*
X029723Y017115D02*
X030303Y017115D01*
X030303Y017214D02*
X030103Y017214D01*
X030103Y017312D02*
X030341Y017312D01*
X030409Y017411D02*
X030005Y017411D01*
X029907Y017509D02*
X030557Y017509D01*
X030828Y017509D02*
X030983Y017509D01*
X030977Y017411D02*
X030983Y017411D01*
X030323Y017017D02*
X030103Y017017D01*
X030048Y016918D02*
X030366Y016918D01*
X029723Y017214D02*
X029663Y017214D01*
X029663Y017312D02*
X029723Y017312D01*
X029723Y017411D02*
X029663Y017411D01*
X029663Y017509D02*
X029723Y017509D01*
X030895Y017805D02*
X030983Y017805D01*
X029144Y015145D02*
X029083Y015145D01*
X029075Y015047D02*
X029242Y015047D01*
X029233Y015056D02*
X029233Y015056D01*
X029341Y014948D02*
X029034Y014948D01*
X028951Y014850D02*
X029564Y014850D01*
X029303Y014456D02*
X028932Y014456D01*
X029026Y014357D02*
X029303Y014357D01*
X029303Y014259D02*
X029067Y014259D01*
X029083Y014160D02*
X029303Y014160D01*
X029303Y014062D02*
X029081Y014062D01*
X029170Y013963D02*
X029303Y013963D01*
X029303Y013865D02*
X029268Y013865D01*
X026310Y016229D02*
X026094Y016229D01*
X026059Y016327D02*
X026212Y016327D01*
X026113Y016426D02*
X025990Y016426D01*
X020841Y020858D02*
X020623Y020858D01*
X019103Y022336D02*
X024350Y022336D01*
X024432Y022434D02*
X019100Y022434D01*
X019028Y022533D02*
X024614Y022533D01*
X024772Y022533D02*
X025379Y022533D01*
X025303Y022434D02*
X024953Y022434D01*
X025035Y022336D02*
X025303Y022336D01*
X025303Y022237D02*
X025076Y022237D01*
X025083Y022139D02*
X025303Y022139D01*
X025303Y022040D02*
X025149Y022040D01*
X025248Y021942D02*
X025303Y021942D01*
X024836Y021646D02*
X024549Y021646D01*
X024648Y021745D02*
X024738Y021745D01*
X028648Y021745D02*
X028738Y021745D01*
X018723Y022237D02*
X018663Y022237D01*
X018663Y022336D02*
X018723Y022336D01*
X018723Y022434D02*
X018663Y022434D01*
X018663Y022533D02*
X018723Y022533D01*
X016307Y022336D02*
X012083Y022336D01*
X012083Y022237D02*
X016266Y022237D01*
X016263Y022139D02*
X012083Y022139D01*
X012083Y022040D02*
X016270Y022040D01*
X016311Y021942D02*
X012083Y021942D01*
X011994Y021393D02*
X013363Y021393D01*
X013283Y021313D01*
X013283Y021173D01*
X013663Y021173D01*
X013663Y021113D01*
X013283Y021113D01*
X013283Y020973D01*
X013403Y020853D01*
X011954Y020853D01*
X012023Y020922D01*
X012083Y021066D01*
X012083Y021221D01*
X012023Y021364D01*
X011994Y021393D01*
X012029Y021351D02*
X013321Y021351D01*
X013283Y021252D02*
X012070Y021252D01*
X012083Y021154D02*
X013663Y021154D01*
X013723Y021154D02*
X014303Y021154D01*
X014303Y021180D02*
X014303Y020982D01*
X014431Y020853D01*
X013983Y020853D01*
X014103Y020973D01*
X014103Y021113D01*
X013723Y021113D01*
X013723Y021173D01*
X014103Y021173D01*
X014103Y021313D01*
X014023Y021393D01*
X014089Y021393D01*
X014303Y021180D01*
X014230Y021252D02*
X014103Y021252D01*
X014132Y021351D02*
X014065Y021351D01*
X014103Y021055D02*
X014303Y021055D01*
X014328Y020957D02*
X014086Y020957D01*
X013988Y020858D02*
X014426Y020858D01*
X014642Y021548D02*
X014744Y021548D01*
X014842Y021646D02*
X014543Y021646D01*
X014445Y021745D02*
X014941Y021745D01*
X015039Y021843D02*
X014346Y021843D01*
X013283Y021055D02*
X012079Y021055D01*
X012038Y020957D02*
X013299Y020957D01*
X013398Y020858D02*
X011959Y020858D01*
X010311Y021942D02*
X009043Y021942D01*
X009083Y022040D02*
X010270Y022040D01*
X010263Y022139D02*
X009083Y022139D01*
X009083Y022237D02*
X010266Y022237D01*
X010307Y022336D02*
X009052Y022336D01*
X008953Y022434D02*
X010376Y022434D01*
X010510Y022533D02*
X008855Y022533D01*
X009346Y021843D02*
X010039Y021843D01*
X009941Y021745D02*
X009445Y021745D01*
X009543Y021646D02*
X009842Y021646D01*
X009744Y021548D02*
X009642Y021548D01*
X010876Y022533D02*
X011379Y022533D01*
X011303Y022434D02*
X011010Y022434D01*
X006379Y019381D02*
X006227Y019381D01*
X006129Y019282D02*
X006328Y019282D01*
X006303Y019184D02*
X006083Y019184D01*
X006083Y019085D02*
X006303Y019085D01*
X006336Y018987D02*
X006050Y018987D01*
X005989Y018888D02*
X006396Y018888D01*
X006343Y018790D02*
X006527Y018790D01*
X006442Y018691D02*
X006848Y018691D01*
X006946Y018593D02*
X006540Y018593D01*
X006864Y018494D02*
X007045Y018494D01*
X006992Y018396D02*
X009394Y018396D01*
X009335Y018297D02*
X007051Y018297D01*
X007083Y018199D02*
X009303Y018199D01*
X009303Y018100D02*
X007083Y018100D01*
X007056Y018002D02*
X009329Y018002D01*
X006491Y017805D02*
X005895Y017805D01*
X006004Y017903D02*
X006381Y017903D01*
X006329Y018002D02*
X006056Y018002D01*
X006083Y018100D02*
X006303Y018100D01*
X006303Y018199D02*
X006083Y018199D01*
X006051Y018297D02*
X006242Y018297D01*
X006143Y018396D02*
X005992Y018396D01*
X005396Y018888D02*
X005245Y018888D01*
X005336Y018987D02*
X005146Y018987D01*
X005048Y019085D02*
X005303Y019085D01*
X005303Y019184D02*
X004949Y019184D01*
X004851Y019282D02*
X005328Y019282D01*
X005379Y019381D02*
X004752Y019381D01*
X004654Y019479D02*
X005485Y019479D01*
X005830Y019578D02*
X004555Y019578D01*
X004457Y019676D02*
X005929Y019676D01*
X003734Y017805D02*
X002895Y017805D01*
X003004Y017903D02*
X003636Y017903D01*
X003537Y018002D02*
X003056Y018002D01*
X003083Y018100D02*
X003439Y018100D01*
X003340Y018199D02*
X003083Y018199D01*
X003051Y018297D02*
X003242Y018297D01*
X003143Y018396D02*
X002992Y018396D01*
X003045Y018494D02*
X002864Y018494D01*
X002923Y020464D02*
X003075Y020464D01*
X005215Y016918D02*
X005366Y016918D01*
X005313Y016820D02*
X005465Y016820D01*
X007287Y015441D02*
X009439Y015441D01*
X009472Y015474D02*
X009362Y015364D01*
X009303Y015221D01*
X009303Y015066D01*
X009362Y014922D01*
X009472Y014813D01*
X009615Y014753D01*
X009770Y014753D01*
X009914Y014813D01*
X010023Y014922D01*
X010083Y015066D01*
X010083Y015221D01*
X010023Y015364D01*
X009914Y015474D01*
X009770Y015533D01*
X009615Y015533D01*
X009472Y015474D01*
X009353Y015342D02*
X007052Y015342D01*
X007091Y015244D02*
X009312Y015244D01*
X009303Y015145D02*
X006723Y015145D01*
X006663Y015145D02*
X006083Y015145D01*
X006075Y015047D02*
X006293Y015047D01*
X006313Y014986D01*
X006342Y014928D01*
X006380Y014876D01*
X006426Y014831D01*
X006478Y014793D01*
X006535Y014763D01*
X006597Y014743D01*
X006661Y014733D01*
X006663Y014733D01*
X006663Y015113D01*
X006283Y015113D01*
X006283Y015111D01*
X006293Y015047D01*
X006332Y014948D02*
X006034Y014948D01*
X005951Y014850D02*
X006406Y014850D01*
X006572Y014751D02*
X003598Y014751D01*
X003499Y014653D02*
X012136Y014653D01*
X012023Y013766D02*
X011802Y013766D01*
X011584Y013766D02*
X010906Y013766D01*
X010598Y013569D02*
X009620Y013569D01*
X009522Y013668D02*
X012121Y013668D01*
X010479Y013766D02*
X009423Y013766D01*
X009311Y013865D02*
X010363Y013865D01*
X010302Y013963D02*
X009064Y013963D01*
X009083Y014062D02*
X010263Y014062D01*
X010263Y014160D02*
X009083Y014160D01*
X009083Y014259D02*
X010275Y014259D01*
X010316Y014357D02*
X009030Y014357D01*
X008932Y014456D02*
X010397Y014456D01*
X010562Y014554D02*
X003401Y014554D01*
X003426Y014456D02*
X003302Y014456D01*
X003327Y014357D02*
X003204Y014357D01*
X003283Y014313D02*
X003283Y014173D01*
X003663Y014173D01*
X003663Y014113D01*
X003723Y014113D01*
X003723Y013733D01*
X003863Y013733D01*
X004103Y013973D01*
X004103Y014113D01*
X003723Y014113D01*
X003723Y014173D01*
X004103Y014173D01*
X004103Y014313D01*
X003863Y014553D01*
X003723Y014553D01*
X003723Y014173D01*
X003663Y014173D01*
X003663Y014553D01*
X003523Y014553D01*
X003283Y014313D01*
X003283Y014259D02*
X003105Y014259D01*
X003007Y014160D02*
X003663Y014160D01*
X003663Y014113D02*
X003283Y014113D01*
X003283Y013973D01*
X003523Y013733D01*
X003663Y013733D01*
X003663Y014113D01*
X003663Y014062D02*
X003723Y014062D01*
X003723Y014160D02*
X004303Y014160D01*
X004303Y014062D02*
X004103Y014062D01*
X004093Y013963D02*
X004321Y013963D01*
X004420Y013865D02*
X003994Y013865D01*
X003896Y013766D02*
X004518Y013766D01*
X004815Y013668D02*
X002903Y013668D01*
X002903Y013766D02*
X003490Y013766D01*
X003391Y013865D02*
X002903Y013865D01*
X002903Y013963D02*
X003293Y013963D01*
X003283Y014062D02*
X002908Y014062D01*
X002903Y013569D02*
X004913Y013569D01*
X005012Y013471D02*
X003069Y013471D01*
X003083Y013372D02*
X005110Y013372D01*
X005209Y013274D02*
X003083Y013274D01*
X003083Y013175D02*
X005303Y013175D01*
X005303Y013077D02*
X003083Y013077D01*
X003083Y012978D02*
X005339Y012978D01*
X005405Y012880D02*
X005170Y012880D01*
X005241Y012781D02*
X005548Y012781D01*
X005597Y012543D02*
X005535Y012523D01*
X005478Y012494D01*
X005426Y012456D01*
X005380Y012410D01*
X005342Y012358D01*
X005313Y012301D01*
X005293Y012239D01*
X005283Y012176D01*
X005283Y012173D01*
X005663Y012173D01*
X005663Y012553D01*
X005661Y012553D01*
X005597Y012543D01*
X005663Y012486D02*
X005723Y012486D01*
X005723Y012387D02*
X005663Y012387D01*
X005663Y012289D02*
X005723Y012289D01*
X005723Y012190D02*
X005663Y012190D01*
X005467Y012486D02*
X005233Y012486D01*
X005271Y012584D02*
X006955Y012584D01*
X006885Y012486D02*
X007053Y012486D01*
X007000Y012387D02*
X007152Y012387D01*
X007055Y012289D02*
X007250Y012289D01*
X007349Y012190D02*
X007083Y012190D01*
X007083Y012092D02*
X007447Y012092D01*
X007546Y011993D02*
X007053Y011993D01*
X006996Y011895D02*
X007644Y011895D01*
X007743Y011796D02*
X006874Y011796D01*
X006544Y011698D02*
X007841Y011698D01*
X008534Y011599D02*
X011852Y011599D01*
X011537Y011501D02*
X010943Y011501D01*
X010954Y011796D02*
X011511Y011796D01*
X011475Y010811D02*
X010969Y010811D01*
X010917Y010516D02*
X011573Y010516D01*
X011867Y010614D02*
X010144Y010614D01*
X010242Y010516D02*
X010469Y010516D01*
X010359Y010417D02*
X010341Y010417D01*
X009375Y010910D02*
X009223Y010910D01*
X009125Y011008D02*
X009327Y011008D01*
X009303Y011107D02*
X009026Y011107D01*
X008928Y011205D02*
X009303Y011205D01*
X009337Y011304D02*
X008829Y011304D01*
X008731Y011402D02*
X009400Y011402D01*
X009537Y011501D02*
X008632Y011501D01*
X009548Y012781D02*
X007352Y012781D01*
X007450Y012683D02*
X009800Y012683D01*
X010113Y013077D02*
X010263Y013077D01*
X010263Y013175D02*
X010083Y013175D01*
X010061Y013274D02*
X010281Y013274D01*
X010322Y013372D02*
X010015Y013372D01*
X009917Y013471D02*
X010412Y013471D01*
X010296Y012978D02*
X010211Y012978D01*
X010310Y012880D02*
X010348Y012880D01*
X010408Y012781D02*
X010447Y012781D01*
X009405Y012880D02*
X007253Y012880D01*
X007155Y012978D02*
X009339Y012978D01*
X009303Y013077D02*
X007083Y013077D01*
X007083Y013175D02*
X009303Y013175D01*
X009209Y013274D02*
X007083Y013274D01*
X007083Y013372D02*
X009110Y013372D01*
X008321Y013963D02*
X008093Y013963D01*
X008103Y014062D02*
X008303Y014062D01*
X008303Y014160D02*
X007723Y014160D01*
X007663Y014160D02*
X005083Y014160D01*
X005083Y014259D02*
X007283Y014259D01*
X007327Y014357D02*
X005030Y014357D01*
X004932Y014456D02*
X007426Y014456D01*
X007663Y014456D02*
X007723Y014456D01*
X007723Y014357D02*
X007663Y014357D01*
X007663Y014259D02*
X007723Y014259D01*
X007960Y014456D02*
X008454Y014456D01*
X008355Y014357D02*
X008059Y014357D01*
X008103Y014259D02*
X008303Y014259D01*
X007283Y014062D02*
X005128Y014062D01*
X005226Y013963D02*
X007293Y013963D01*
X006303Y013372D02*
X006275Y013372D01*
X006303Y013274D02*
X006177Y013274D01*
X006083Y013175D02*
X006303Y013175D01*
X006303Y013077D02*
X006083Y013077D01*
X006047Y012978D02*
X006303Y012978D01*
X006303Y012880D02*
X005981Y012880D01*
X005838Y012781D02*
X006351Y012781D01*
X006501Y012486D02*
X005919Y012486D01*
X006022Y012387D02*
X006385Y012387D01*
X006331Y012289D02*
X006077Y012289D01*
X006101Y012190D02*
X006303Y012190D01*
X006303Y012092D02*
X006100Y012092D01*
X006075Y011993D02*
X006246Y011993D01*
X006147Y011895D02*
X006019Y011895D01*
X005367Y011895D02*
X002996Y011895D01*
X003049Y011796D02*
X002874Y011796D01*
X002852Y011599D02*
X002143Y011599D01*
X002143Y011501D02*
X002537Y011501D01*
X002400Y011402D02*
X002143Y011402D01*
X002143Y011304D02*
X002337Y011304D01*
X002303Y011205D02*
X002143Y011205D01*
X002143Y011107D02*
X002303Y011107D01*
X002327Y011008D02*
X002143Y011008D01*
X002143Y010910D02*
X002375Y010910D01*
X002475Y010811D02*
X002143Y010811D01*
X002143Y010713D02*
X004117Y010713D01*
X004115Y010614D02*
X002143Y010614D01*
X002143Y010516D02*
X002573Y010516D01*
X002615Y010533D02*
X002472Y010474D01*
X002362Y010364D01*
X002303Y010221D01*
X002303Y010066D01*
X002362Y009922D01*
X002472Y009813D01*
X002615Y009753D01*
X002770Y009753D01*
X002914Y009813D01*
X003023Y009922D01*
X003083Y010066D01*
X003083Y010221D01*
X003023Y010364D01*
X002914Y010474D01*
X002770Y010533D01*
X002615Y010533D01*
X002813Y010516D02*
X004018Y010516D01*
X003920Y010417D02*
X002970Y010417D01*
X003042Y010319D02*
X003821Y010319D01*
X003723Y010220D02*
X003083Y010220D01*
X003083Y010122D02*
X003624Y010122D01*
X003526Y010023D02*
X003065Y010023D01*
X003024Y009925D02*
X003427Y009925D01*
X003329Y009826D02*
X002927Y009826D01*
X003132Y009629D02*
X002143Y009629D01*
X002143Y009531D02*
X002609Y009531D01*
X002776Y009531D02*
X003033Y009531D01*
X003230Y009728D02*
X002143Y009728D01*
X002143Y009826D02*
X002458Y009826D01*
X002361Y009925D02*
X002143Y009925D01*
X002143Y010023D02*
X002320Y010023D01*
X002303Y010122D02*
X002143Y010122D01*
X002143Y010220D02*
X002303Y010220D01*
X002343Y010319D02*
X002143Y010319D01*
X002143Y010417D02*
X002415Y010417D01*
X002910Y010811D02*
X004157Y010811D01*
X004245Y010910D02*
X003011Y010910D01*
X004590Y011993D02*
X005310Y011993D01*
X005286Y012092D02*
X004688Y012092D01*
X004787Y012190D02*
X005285Y012190D01*
X005309Y012289D02*
X004885Y012289D01*
X005151Y012387D02*
X005363Y012387D01*
X005271Y012683D02*
X006856Y012683D01*
X005765Y013569D02*
X005620Y013569D01*
X005522Y013668D02*
X005864Y013668D01*
X005962Y013766D02*
X005423Y013766D01*
X005325Y013865D02*
X006074Y013865D01*
X006663Y014751D02*
X006723Y014751D01*
X006813Y014751D02*
X010515Y014751D01*
X010378Y014850D02*
X009951Y014850D01*
X010034Y014948D02*
X010308Y014948D01*
X010267Y015047D02*
X010075Y015047D01*
X010083Y015145D02*
X010263Y015145D01*
X010269Y015244D02*
X010073Y015244D01*
X010033Y015342D02*
X010310Y015342D01*
X010382Y015441D02*
X009947Y015441D01*
X009450Y015835D02*
X007681Y015835D01*
X007386Y015539D02*
X010525Y015539D01*
X009435Y014850D02*
X006979Y014850D01*
X007054Y014948D02*
X009351Y014948D01*
X009311Y015047D02*
X007093Y015047D01*
X006723Y015047D02*
X006663Y015047D01*
X006663Y014948D02*
X006723Y014948D01*
X006723Y014850D02*
X006663Y014850D01*
X006294Y015244D02*
X006073Y015244D01*
X006033Y015342D02*
X006334Y015342D01*
X005435Y014850D02*
X003696Y014850D01*
X003723Y014456D02*
X003663Y014456D01*
X003663Y014357D02*
X003723Y014357D01*
X003723Y014259D02*
X003663Y014259D01*
X003663Y013963D02*
X003723Y013963D01*
X003723Y013865D02*
X003663Y013865D01*
X003663Y013766D02*
X003723Y013766D01*
X004103Y014259D02*
X004303Y014259D01*
X004355Y014357D02*
X004059Y014357D01*
X003960Y014456D02*
X004454Y014456D01*
X004715Y012880D02*
X003083Y012880D01*
X003035Y012781D02*
X004645Y012781D01*
X004488Y012486D02*
X002885Y012486D01*
X003000Y012387D02*
X004390Y012387D01*
X002430Y009432D02*
X002143Y009432D01*
X002143Y009334D02*
X002350Y009334D01*
X002309Y009235D02*
X002143Y009235D01*
X002143Y009137D02*
X002303Y009137D01*
X002314Y009038D02*
X002143Y009038D01*
X002143Y008940D02*
X002355Y008940D01*
X002443Y008841D02*
X002143Y008841D01*
X002597Y006543D02*
X002535Y006523D01*
X002478Y006494D01*
X002426Y006456D01*
X002380Y006410D01*
X002342Y006358D01*
X002313Y006301D01*
X002293Y006239D01*
X002283Y006176D01*
X002283Y006173D01*
X002663Y006173D01*
X002663Y006113D01*
X002723Y006113D01*
X002723Y005733D01*
X002725Y005733D01*
X002789Y005743D01*
X002850Y005763D01*
X002908Y005793D01*
X002960Y005831D01*
X003006Y005876D01*
X003044Y005928D01*
X003073Y005986D01*
X003093Y006047D01*
X003103Y006111D01*
X003103Y006113D01*
X002723Y006113D01*
X002723Y006173D01*
X003103Y006173D01*
X003103Y006176D01*
X003093Y006239D01*
X003073Y006301D01*
X003044Y006358D01*
X003006Y006410D01*
X002960Y006456D01*
X002908Y006494D01*
X002850Y006523D01*
X002789Y006543D01*
X002725Y006553D01*
X002723Y006553D01*
X002723Y006173D01*
X002663Y006173D01*
X002663Y006553D01*
X002661Y006553D01*
X002597Y006543D01*
X002663Y006477D02*
X002723Y006477D01*
X002723Y006379D02*
X002663Y006379D01*
X002663Y006280D02*
X002723Y006280D01*
X002723Y006182D02*
X002663Y006182D01*
X002663Y006113D02*
X002283Y006113D01*
X002283Y006111D01*
X002293Y006047D01*
X002313Y005986D01*
X002342Y005928D01*
X002380Y005876D01*
X002426Y005831D01*
X002478Y005793D01*
X002535Y005763D01*
X002597Y005743D01*
X002661Y005733D01*
X002663Y005733D01*
X002663Y006113D01*
X002663Y006083D02*
X002723Y006083D01*
X002723Y005985D02*
X002663Y005985D01*
X002663Y005886D02*
X002723Y005886D01*
X002723Y005788D02*
X002663Y005788D01*
X002487Y005788D02*
X002143Y005788D01*
X002143Y005886D02*
X002373Y005886D01*
X002313Y005985D02*
X002143Y005985D01*
X002143Y006083D02*
X002287Y006083D01*
X002284Y006182D02*
X002143Y006182D01*
X002143Y006280D02*
X002306Y006280D01*
X002357Y006379D02*
X002143Y006379D01*
X002143Y006477D02*
X002455Y006477D01*
X002931Y006477D02*
X005480Y006477D01*
X005377Y006379D02*
X003029Y006379D01*
X003079Y006280D02*
X005327Y006280D01*
X005303Y006182D02*
X003102Y006182D01*
X003098Y006083D02*
X005303Y006083D01*
X005336Y005985D02*
X003072Y005985D01*
X003013Y005886D02*
X005398Y005886D01*
X005532Y005788D02*
X002898Y005788D01*
X002934Y005492D02*
X002143Y005492D01*
X002143Y005394D02*
X002835Y005394D01*
X002763Y005295D02*
X002143Y005295D01*
X002143Y005197D02*
X002763Y005197D01*
X002763Y005098D02*
X002143Y005098D01*
X002143Y005000D02*
X002763Y005000D01*
X002827Y004901D02*
X002143Y004901D01*
X002143Y004803D02*
X002925Y004803D01*
X002143Y005591D02*
X007867Y005591D01*
X007934Y005492D02*
X007452Y005492D01*
X007550Y005394D02*
X007835Y005394D01*
X007763Y005295D02*
X007623Y005295D01*
X007623Y005197D02*
X007763Y005197D01*
X007763Y005098D02*
X007623Y005098D01*
X007623Y005000D02*
X007763Y005000D01*
X007827Y004901D02*
X007559Y004901D01*
X006827Y004901D02*
X006559Y004901D01*
X006623Y005000D02*
X006763Y005000D01*
X006763Y005098D02*
X006623Y005098D01*
X006623Y005197D02*
X006763Y005197D01*
X006763Y005295D02*
X006623Y005295D01*
X006550Y005394D02*
X006835Y005394D01*
X006934Y005492D02*
X006452Y005492D01*
X007711Y005689D02*
X002143Y005689D01*
X006972Y006871D02*
X008115Y006871D01*
X008119Y006970D02*
X007043Y006970D01*
X007083Y007068D02*
X008160Y007068D01*
X008252Y007167D02*
X007083Y007167D01*
X008019Y005591D02*
X008448Y005591D01*
X008452Y005492D02*
X008547Y005492D01*
X008550Y005394D02*
X008645Y005394D01*
X008623Y005295D02*
X008744Y005295D01*
X008763Y005197D02*
X008623Y005197D01*
X008623Y005098D02*
X008763Y005098D01*
X008763Y005000D02*
X008623Y005000D01*
X008559Y004901D02*
X008827Y004901D01*
X013941Y010811D02*
X014473Y010811D01*
X014375Y010910D02*
X014039Y010910D01*
X014103Y011008D02*
X014303Y011008D01*
X014303Y011107D02*
X014103Y011107D01*
X014103Y011205D02*
X014303Y011205D01*
X014303Y011304D02*
X014103Y011304D01*
X014014Y011402D02*
X014400Y011402D01*
X014499Y011501D02*
X013915Y011501D01*
X014887Y011501D02*
X016163Y011501D01*
X016325Y011402D02*
X014985Y011402D01*
X015083Y011304D02*
X016272Y011304D01*
X016247Y011205D02*
X015083Y011205D01*
X023494Y005394D02*
X024392Y005394D01*
X024334Y005295D02*
X023552Y005295D01*
X023583Y005197D02*
X024303Y005197D01*
X024303Y005098D02*
X023583Y005098D01*
X023556Y005000D02*
X024330Y005000D01*
X024383Y004901D02*
X023502Y004901D01*
X023839Y005492D02*
X024516Y005492D01*
X024487Y005788D02*
X024134Y005788D01*
X024233Y005886D02*
X024373Y005886D01*
X024403Y006477D02*
X024455Y006477D01*
X024403Y006773D02*
X024568Y006773D01*
X024413Y006871D02*
X024403Y006871D01*
X025443Y006477D02*
X025455Y006477D01*
X026937Y004507D02*
X027449Y004507D01*
X027350Y004409D02*
X027035Y004409D01*
X027123Y004310D02*
X027263Y004310D01*
X027263Y004212D02*
X027123Y004212D01*
X027123Y004113D02*
X027263Y004113D01*
X027263Y004015D02*
X027123Y004015D01*
X027074Y003916D02*
X027312Y003916D01*
X027410Y003818D02*
X026975Y003818D01*
X026877Y003719D02*
X027509Y003719D01*
X027515Y003573D02*
X027263Y003321D01*
X027263Y002965D01*
X027515Y002713D01*
X027871Y002713D01*
X028123Y002965D01*
X028123Y003321D01*
X027871Y003573D01*
X027515Y003573D01*
X027464Y003522D02*
X027098Y003522D01*
X027123Y003424D02*
X027365Y003424D01*
X027267Y003325D02*
X027123Y003325D01*
X027123Y003227D02*
X027263Y003227D01*
X027263Y003128D02*
X027123Y003128D01*
X027123Y003030D02*
X027263Y003030D01*
X027297Y002931D02*
X027123Y002931D01*
X027123Y002833D02*
X027395Y002833D01*
X027494Y002734D02*
X027068Y002734D01*
X026318Y002734D02*
X020231Y002734D01*
X020223Y002734D02*
X020163Y002734D01*
X020154Y002734D02*
X016829Y002734D01*
X016990Y002833D02*
X017452Y002833D01*
X017934Y002833D02*
X018452Y002833D01*
X018359Y002931D02*
X018027Y002931D01*
X018068Y003030D02*
X018318Y003030D01*
X018303Y003128D02*
X018083Y003128D01*
X018080Y003227D02*
X018305Y003227D01*
X018346Y003325D02*
X018040Y003325D01*
X017964Y003424D02*
X018422Y003424D01*
X018964Y003424D02*
X019894Y003424D01*
X019825Y003325D02*
X019040Y003325D01*
X019080Y003227D02*
X019791Y003227D01*
X019799Y003030D02*
X019068Y003030D01*
X019083Y003128D02*
X020163Y003128D01*
X020223Y003128D02*
X022803Y003128D01*
X022805Y003227D02*
X020595Y003227D01*
X020560Y003325D02*
X022846Y003325D01*
X022922Y003424D02*
X020492Y003424D01*
X020587Y003030D02*
X022818Y003030D01*
X022859Y002931D02*
X020545Y002931D01*
X020462Y002833D02*
X022952Y002833D01*
X023434Y002833D02*
X024452Y002833D01*
X024359Y002931D02*
X023527Y002931D01*
X023568Y003030D02*
X024318Y003030D01*
X024303Y003128D02*
X023583Y003128D01*
X023580Y003227D02*
X024305Y003227D01*
X024346Y003325D02*
X023540Y003325D01*
X023464Y003424D02*
X024422Y003424D01*
X024964Y003424D02*
X026263Y003424D01*
X026263Y003325D02*
X025040Y003325D01*
X025080Y003227D02*
X026263Y003227D01*
X026263Y003128D02*
X025083Y003128D01*
X025068Y003030D02*
X026263Y003030D01*
X026263Y002931D02*
X025027Y002931D01*
X024934Y002833D02*
X026263Y002833D01*
X027892Y002734D02*
X028494Y002734D01*
X028515Y002713D02*
X028871Y002713D01*
X029123Y002965D01*
X029123Y003321D01*
X028871Y003573D01*
X028515Y003573D01*
X028263Y003321D01*
X028263Y002965D01*
X028515Y002713D01*
X028395Y002833D02*
X027990Y002833D01*
X028089Y002931D02*
X028297Y002931D01*
X028263Y003030D02*
X028123Y003030D01*
X028123Y003128D02*
X028263Y003128D01*
X028263Y003227D02*
X028123Y003227D01*
X028119Y003325D02*
X028267Y003325D01*
X028365Y003424D02*
X028020Y003424D01*
X027922Y003522D02*
X028464Y003522D01*
X028509Y003719D02*
X027877Y003719D01*
X027975Y003818D02*
X028410Y003818D01*
X028312Y003916D02*
X028074Y003916D01*
X028123Y004015D02*
X028263Y004015D01*
X028263Y004113D02*
X028123Y004113D01*
X028123Y004212D02*
X028263Y004212D01*
X028263Y004310D02*
X028123Y004310D01*
X028035Y004409D02*
X028350Y004409D01*
X028449Y004507D02*
X027937Y004507D01*
X028937Y004507D02*
X029420Y004507D01*
X029322Y004409D02*
X029035Y004409D01*
X029123Y004310D02*
X029243Y004310D01*
X029243Y004212D02*
X029123Y004212D01*
X029123Y004113D02*
X029643Y004113D01*
X029643Y004015D02*
X029743Y004015D01*
X029743Y004113D02*
X030263Y004113D01*
X030263Y004015D02*
X030143Y004015D01*
X030102Y003916D02*
X030312Y003916D01*
X030410Y003818D02*
X030004Y003818D01*
X029905Y003719D02*
X030509Y003719D01*
X030464Y003522D02*
X029922Y003522D01*
X029871Y003573D02*
X029515Y003573D01*
X029263Y003321D01*
X029263Y002965D01*
X029515Y002713D01*
X029871Y002713D01*
X030123Y002965D01*
X030123Y003321D01*
X029871Y003573D01*
X029743Y003719D02*
X029643Y003719D01*
X029643Y003818D02*
X029743Y003818D01*
X029743Y003916D02*
X029643Y003916D01*
X029480Y003719D02*
X028877Y003719D01*
X028975Y003818D02*
X029382Y003818D01*
X029283Y003916D02*
X029074Y003916D01*
X029123Y004015D02*
X029243Y004015D01*
X029464Y003522D02*
X028922Y003522D01*
X029020Y003424D02*
X029365Y003424D01*
X029267Y003325D02*
X029119Y003325D01*
X029123Y003227D02*
X029263Y003227D01*
X029263Y003128D02*
X029123Y003128D01*
X029123Y003030D02*
X029263Y003030D01*
X029297Y002931D02*
X029089Y002931D01*
X028990Y002833D02*
X029395Y002833D01*
X029494Y002734D02*
X028892Y002734D01*
X029892Y002734D02*
X030494Y002734D01*
X030395Y002833D02*
X029990Y002833D01*
X030089Y002931D02*
X030297Y002931D01*
X030263Y003030D02*
X030123Y003030D01*
X030123Y003128D02*
X030263Y003128D01*
X030263Y003227D02*
X030123Y003227D01*
X030119Y003325D02*
X030267Y003325D01*
X030365Y003424D02*
X030020Y003424D01*
X030975Y003818D02*
X034243Y003818D01*
X034243Y003916D02*
X031074Y003916D01*
X031123Y004015D02*
X034243Y004015D01*
X034243Y004113D02*
X031123Y004113D01*
X031123Y004212D02*
X034243Y004212D01*
X034243Y004310D02*
X031123Y004310D01*
X031035Y004409D02*
X034243Y004409D01*
X034243Y004507D02*
X030937Y004507D01*
X030649Y004803D02*
X034243Y004803D01*
X034243Y004901D02*
X030748Y004901D01*
X030846Y005000D02*
X034243Y005000D01*
X034243Y005098D02*
X030945Y005098D01*
X031043Y005197D02*
X034243Y005197D01*
X034243Y005295D02*
X031142Y005295D01*
X031240Y005394D02*
X034243Y005394D01*
X034243Y005492D02*
X031339Y005492D01*
X031437Y005591D02*
X034243Y005591D01*
X034243Y005689D02*
X031536Y005689D01*
X031945Y005788D02*
X034243Y005788D01*
X034243Y005886D02*
X032044Y005886D01*
X032123Y005985D02*
X034243Y005985D01*
X034243Y006083D02*
X032123Y006083D01*
X032123Y006182D02*
X034243Y006182D01*
X034243Y006280D02*
X032123Y006280D01*
X032065Y006379D02*
X034243Y006379D01*
X034243Y006477D02*
X031967Y006477D01*
X031930Y006773D02*
X034243Y006773D01*
X034243Y006871D02*
X032029Y006871D01*
X032123Y006970D02*
X034243Y006970D01*
X034243Y007068D02*
X032123Y007068D01*
X032123Y007167D02*
X034243Y007167D01*
X034243Y007265D02*
X032123Y007265D01*
X032080Y007364D02*
X034243Y007364D01*
X034243Y007462D02*
X031982Y007462D01*
X031521Y006674D02*
X034243Y006674D01*
X034243Y006576D02*
X031422Y006576D01*
X031419Y006477D02*
X031324Y006477D01*
X031320Y006379D02*
X031278Y006379D01*
X030551Y004704D02*
X034243Y004704D01*
X034243Y004606D02*
X030452Y004606D01*
X030449Y004507D02*
X029965Y004507D01*
X030064Y004409D02*
X030350Y004409D01*
X030263Y004310D02*
X030143Y004310D01*
X030143Y004212D02*
X030263Y004212D01*
X020223Y003030D02*
X020163Y003030D01*
X020163Y002931D02*
X020223Y002931D01*
X020223Y002833D02*
X020163Y002833D01*
X019924Y002833D02*
X018934Y002833D01*
X019027Y002931D02*
X019841Y002931D01*
D19*
X014693Y004143D03*
X009693Y004143D03*
X008443Y006893D03*
X009068Y008143D03*
X004443Y007393D03*
X002693Y004143D03*
X004443Y010643D03*
X004943Y012643D03*
X007443Y019143D03*
X007943Y020143D03*
X026568Y009143D03*
X027568Y009143D03*
X027693Y007643D03*
X027443Y007143D03*
X027193Y006643D03*
X027068Y012143D03*
X027318Y016018D03*
X027818Y019643D03*
D20*
X027193Y021143D03*
X030068Y020143D03*
X029693Y019143D03*
X027193Y014643D03*
X026693Y012768D03*
X023943Y014643D03*
X023193Y016143D03*
X020193Y016143D03*
X018193Y016643D03*
X014818Y016143D03*
X014068Y016768D03*
X014693Y017143D03*
X014193Y017643D03*
X014568Y018643D03*
X013318Y019143D03*
X013943Y019643D03*
X016193Y020643D03*
X014693Y022143D03*
X019693Y020143D03*
X021693Y022268D03*
X023693Y020143D03*
X030818Y014268D03*
X030568Y013768D03*
X030193Y010643D03*
X027818Y010143D03*
X027193Y008643D03*
X029693Y005393D03*
X022568Y006143D03*
X022318Y005143D03*
X021068Y004643D03*
X020943Y005143D03*
X021693Y003143D03*
X022193Y007643D03*
X022568Y008643D03*
X018193Y011643D03*
X020193Y012018D03*
X023193Y012018D03*
X017193Y007643D03*
X014943Y008143D03*
X014318Y009643D03*
X013818Y009643D03*
X011193Y007643D03*
X007943Y005893D03*
X014943Y005643D03*
X014568Y012268D03*
X013568Y012893D03*
X014193Y013893D03*
X013318Y014518D03*
X013318Y015143D03*
X014818Y015143D03*
X014818Y013143D03*
X007693Y013143D03*
X005693Y022143D03*
D21*
X010693Y022143D02*
X011693Y022143D01*
X011693Y021143D02*
X010693Y021143D01*
X010693Y020143D02*
X011693Y020143D01*
X011693Y019143D02*
X010693Y019143D01*
X010693Y018143D02*
X011693Y018143D01*
X011693Y017143D02*
X010693Y017143D01*
X010693Y016143D02*
X011693Y016143D01*
X011693Y015143D02*
X010693Y015143D01*
X010693Y014143D02*
X011693Y014143D01*
X011693Y013143D02*
X010693Y013143D01*
X010693Y012143D02*
X011693Y012143D01*
X011693Y011143D02*
X010693Y011143D01*
X010693Y010143D02*
X011693Y010143D01*
X011693Y009143D02*
X010693Y009143D01*
X010693Y008143D02*
X011693Y008143D01*
X011693Y007143D02*
X010693Y007143D01*
X010693Y006143D02*
X011693Y006143D01*
X011693Y005143D02*
X010693Y005143D01*
X010693Y004143D02*
X011693Y004143D01*
X011693Y003143D02*
X010693Y003143D01*
X016693Y003143D02*
X017693Y003143D01*
X017693Y004143D02*
X016693Y004143D01*
X016693Y005143D02*
X017693Y005143D01*
X017693Y006143D02*
X016693Y006143D01*
X016693Y007143D02*
X017693Y007143D01*
X017693Y008143D02*
X016693Y008143D01*
X016693Y009143D02*
X017693Y009143D01*
X017693Y010143D02*
X016693Y010143D01*
X016693Y012143D02*
X017693Y012143D01*
X017693Y013143D02*
X016693Y013143D01*
X016693Y014143D02*
X017693Y014143D01*
X017693Y015143D02*
X016693Y015143D01*
X016693Y016143D02*
X017693Y016143D01*
X017693Y017143D02*
X016693Y017143D01*
X016693Y018143D02*
X017693Y018143D01*
X017693Y019143D02*
X016693Y019143D01*
X016693Y020143D02*
X017693Y020143D01*
X017693Y021143D02*
X016693Y021143D01*
X016693Y022143D02*
X017693Y022143D01*
D22*
X015193Y021643D02*
X014693Y021143D01*
X014193Y021643D01*
X010193Y021643D01*
X009693Y021143D01*
X009193Y021643D01*
X008693Y021643D01*
X008693Y022143D01*
X008693Y021643D02*
X006193Y021643D01*
X005693Y021143D01*
X004693Y022143D01*
X015193Y021643D02*
X024193Y021643D01*
X024693Y022143D01*
X025193Y021643D01*
X028193Y021643D01*
X028693Y022143D01*
X029693Y021143D01*
X030193Y021643D01*
X031693Y021643D01*
X031693Y022143D01*
X031693Y021643D02*
X033193Y021643D01*
X033693Y021143D01*
X022193Y010143D02*
X021693Y009643D01*
X016193Y009643D01*
X015693Y010143D01*
X015193Y009643D01*
X014318Y009643D01*
X014568Y012143D02*
X011693Y012143D01*
X010693Y012143D02*
X009693Y013143D01*
X009193Y013643D01*
X008693Y013643D01*
X008693Y014143D01*
X008693Y013643D02*
X006193Y013643D01*
X005693Y013143D01*
X004693Y014143D01*
X014568Y012268D02*
X014568Y012143D01*
X024693Y007143D02*
X025193Y006643D01*
X025193Y005768D01*
X025568Y005393D01*
X029693Y005393D01*
D23*
X029943Y005018D02*
X031068Y006143D01*
X031068Y006518D01*
X031693Y007143D01*
X031693Y006143D02*
X030318Y004768D01*
X026568Y004768D01*
X025443Y003643D01*
X014193Y003643D01*
X012693Y005143D01*
X012443Y006643D02*
X012193Y006893D01*
X012193Y007393D01*
X011693Y007893D01*
X011693Y008143D01*
X012193Y007893D02*
X012443Y007643D01*
X017193Y007643D01*
X017693Y008143D02*
X017943Y008143D01*
X018443Y007643D01*
X022193Y007643D01*
X022818Y007643D02*
X021818Y006643D01*
X012443Y006643D01*
X011193Y007643D02*
X010193Y007643D01*
X009693Y008143D01*
X009068Y008143D02*
X006693Y008143D01*
X006193Y008643D02*
X006693Y009143D01*
X006193Y008643D02*
X003193Y008643D01*
X002693Y008143D01*
X002693Y009143D02*
X002943Y009143D01*
X004443Y010643D01*
X003193Y011643D02*
X006193Y011643D01*
X006693Y012143D01*
X006693Y011143D02*
X008193Y009643D01*
X009818Y009643D01*
X010318Y009143D01*
X010693Y009143D01*
X010568Y009143D01*
X010443Y009643D02*
X011943Y009643D01*
X012193Y009393D01*
X012193Y008893D01*
X012443Y008643D01*
X015943Y008643D01*
X016443Y008143D01*
X016693Y008143D01*
X016443Y008643D02*
X021818Y008643D01*
X024318Y011143D01*
X024693Y011143D01*
X024443Y010643D02*
X023818Y010018D01*
X023818Y009018D01*
X023443Y008643D01*
X022568Y008643D01*
X023693Y008393D02*
X023693Y007893D01*
X023443Y007643D01*
X022818Y007643D01*
X023693Y008393D02*
X024193Y008893D01*
X024193Y009393D01*
X024443Y009643D01*
X025193Y009643D01*
X025693Y009143D01*
X026568Y009143D01*
X026193Y009643D02*
X025693Y010143D01*
X026068Y010643D02*
X024443Y010643D01*
X023943Y011143D02*
X023943Y011393D01*
X024693Y012143D01*
X024193Y012643D02*
X024693Y013143D01*
X024193Y012643D02*
X014318Y012643D01*
X014193Y012518D01*
X013068Y012518D01*
X012943Y012643D01*
X012193Y012643D01*
X011693Y013143D01*
X012443Y013643D02*
X011943Y014143D01*
X011693Y014143D01*
X012443Y013643D02*
X013693Y013643D01*
X013818Y013518D01*
X014568Y013518D01*
X014693Y013643D01*
X024193Y013643D01*
X024693Y014143D01*
X025193Y013643D01*
X025943Y013643D01*
X026193Y013393D01*
X026193Y012143D01*
X027193Y011143D01*
X028693Y011143D01*
X029193Y010643D02*
X027193Y010643D01*
X025693Y012143D01*
X027068Y012143D02*
X028693Y012143D01*
X029693Y012143D01*
X029193Y012643D02*
X027443Y012643D01*
X025943Y014143D01*
X025693Y014143D01*
X025943Y014643D02*
X025193Y014643D01*
X024693Y015143D01*
X024193Y015643D01*
X012193Y015643D01*
X011693Y016143D01*
X011693Y015143D02*
X011943Y015143D01*
X012443Y014643D01*
X013193Y014643D01*
X013318Y014518D01*
X013443Y014643D01*
X023943Y014643D01*
X023193Y014143D02*
X022193Y014143D01*
X021193Y014143D02*
X020193Y014143D01*
X020193Y015143D02*
X021193Y015143D01*
X022193Y015143D02*
X023193Y015143D01*
X024193Y016643D02*
X024693Y017143D01*
X025193Y016643D01*
X026193Y016643D01*
X026818Y016018D01*
X027318Y016018D01*
X028443Y016143D02*
X028693Y016143D01*
X028443Y016143D02*
X026943Y017643D01*
X024193Y017643D01*
X023693Y017143D01*
X019568Y017143D01*
X019068Y017643D01*
X018193Y017643D01*
X017693Y017143D01*
X018193Y016643D02*
X024193Y016643D01*
X023318Y017518D02*
X024443Y018643D01*
X026943Y018643D01*
X028443Y017143D01*
X028693Y017143D01*
X028443Y016643D02*
X028943Y016643D01*
X029193Y016393D01*
X029193Y015893D01*
X030818Y014268D01*
X030318Y014393D02*
X030318Y014018D01*
X030568Y013768D01*
X030193Y013393D02*
X031068Y013393D01*
X031318Y013643D01*
X033193Y013643D01*
X033693Y014143D01*
X033693Y015143D01*
X033693Y017143D02*
X033193Y017643D01*
X033193Y020143D01*
X032693Y020643D01*
X029443Y020643D01*
X028943Y021143D01*
X028693Y021143D01*
X028943Y020643D02*
X029318Y020268D01*
X029943Y020268D01*
X030068Y020143D01*
X030193Y019643D02*
X030693Y020143D01*
X030193Y019643D02*
X028443Y019643D01*
X027943Y019143D01*
X025693Y019143D01*
X025193Y019643D02*
X024693Y019143D01*
X025193Y019643D02*
X027818Y019643D01*
X028693Y019143D02*
X029193Y018643D01*
X030943Y018643D01*
X031193Y018393D01*
X031193Y016643D01*
X030693Y016143D01*
X029568Y015143D02*
X030318Y014393D01*
X029943Y013643D02*
X030193Y013393D01*
X029943Y013643D02*
X029193Y013643D01*
X028693Y014143D01*
X026943Y014143D01*
X025943Y015143D01*
X025693Y015143D01*
X025943Y014643D02*
X027443Y013143D01*
X028693Y013143D01*
X029193Y012643D02*
X029693Y013143D01*
X029693Y011143D02*
X029193Y010643D01*
X028693Y010143D02*
X029693Y010143D01*
X029193Y009643D02*
X026193Y009643D01*
X026568Y010143D02*
X026068Y010643D01*
X026568Y010143D02*
X027818Y010143D01*
X027568Y009143D02*
X028693Y009143D01*
X029193Y009643D02*
X029693Y009143D01*
X029693Y008143D02*
X028693Y008143D01*
X028193Y008143D01*
X027693Y007643D01*
X027443Y007143D02*
X028693Y007143D01*
X029193Y006643D02*
X029693Y007143D01*
X029193Y006643D02*
X027193Y006643D01*
X025693Y008143D01*
X025193Y007893D02*
X025193Y008393D01*
X025443Y008643D01*
X027193Y008643D01*
X025193Y007893D02*
X024943Y007643D01*
X024443Y007643D01*
X024193Y007393D01*
X024193Y006143D01*
X023693Y005643D01*
X022818Y005643D01*
X022318Y005143D01*
X022068Y004643D02*
X025943Y004643D01*
X026318Y005018D01*
X029943Y005018D01*
X029693Y006143D02*
X028693Y006143D01*
X024693Y004143D02*
X023193Y004143D01*
X022068Y004643D02*
X021568Y005143D01*
X020943Y005143D01*
X021068Y004643D02*
X016318Y004643D01*
X016193Y004768D01*
X016193Y005393D01*
X015943Y005643D01*
X014943Y005643D01*
X015693Y005143D02*
X015693Y004768D01*
X016318Y004143D01*
X016693Y004143D01*
X016443Y005643D02*
X015943Y006143D01*
X015693Y006143D01*
X016443Y005643D02*
X021443Y005643D01*
X022443Y006643D01*
X023568Y006643D01*
X023943Y007018D01*
X023943Y008143D01*
X024693Y008893D01*
X024693Y009143D01*
X023443Y010643D02*
X023943Y011143D01*
X023443Y010643D02*
X015443Y010643D01*
X015068Y010268D01*
X013318Y010268D01*
X012943Y010643D01*
X012193Y010643D01*
X011693Y010143D01*
X012693Y010143D02*
X013193Y009643D01*
X013818Y009643D01*
X012193Y008393D02*
X011693Y008893D01*
X011693Y009143D01*
X012193Y008393D02*
X012193Y007893D01*
X012693Y008143D02*
X014943Y008143D01*
X015693Y009143D02*
X015943Y009143D01*
X016443Y008643D01*
X020193Y011143D02*
X020693Y011643D01*
X022693Y011643D01*
X023193Y011143D01*
X018193Y011643D02*
X016318Y011643D01*
X016193Y011768D01*
X012318Y011768D01*
X011693Y011143D01*
X010193Y010268D02*
X010193Y009893D01*
X010443Y009643D01*
X010193Y010268D02*
X009818Y010643D01*
X009193Y010643D01*
X006693Y013143D01*
X004943Y012643D02*
X004443Y012143D01*
X002693Y012143D01*
X003193Y011643D02*
X002693Y011143D01*
X002693Y013143D02*
X002693Y014143D01*
X003693Y015143D01*
X005693Y015143D01*
X005443Y015643D02*
X005193Y015893D01*
X005193Y016643D01*
X002693Y019143D01*
X002693Y020143D02*
X003693Y020143D01*
X005193Y018643D01*
X006193Y018643D01*
X006693Y018143D01*
X007193Y017643D02*
X014193Y017643D01*
X014318Y017643D01*
X015318Y018643D01*
X019068Y018643D01*
X019443Y018268D01*
X019443Y018018D01*
X019943Y017518D01*
X023318Y017518D01*
X022193Y018143D02*
X021693Y018143D01*
X021693Y018518D01*
X021443Y018768D01*
X019943Y018768D01*
X019068Y019643D01*
X013943Y019643D01*
X013318Y019143D02*
X015693Y019143D01*
X015693Y018143D02*
X014693Y017143D01*
X014068Y016768D02*
X013943Y016643D01*
X007193Y016643D01*
X006693Y016143D01*
X007193Y015643D02*
X007693Y016143D01*
X009693Y016143D01*
X007193Y015643D02*
X005443Y015643D01*
X006693Y017143D02*
X007193Y017643D01*
X007193Y018643D02*
X010193Y018643D01*
X010693Y018143D01*
X010693Y019143D02*
X010193Y019643D01*
X006193Y019643D01*
X005693Y019143D01*
X006693Y019143D02*
X007193Y018643D01*
X007443Y019143D02*
X009693Y019143D01*
X009693Y020143D02*
X007943Y020143D01*
X007193Y020643D02*
X016193Y020643D01*
X014568Y018643D02*
X012193Y018643D01*
X011693Y019143D01*
X011693Y020143D02*
X012693Y019143D01*
X014818Y016268D02*
X015693Y017143D01*
X014818Y016268D02*
X014818Y016143D01*
X014818Y015143D02*
X013318Y015143D01*
X014818Y013143D02*
X016693Y013143D01*
X010693Y008143D02*
X010193Y008643D01*
X008193Y008643D01*
X006693Y010143D01*
X006693Y007143D02*
X005693Y007143D01*
X006193Y006643D02*
X005693Y006143D01*
X006193Y006643D02*
X008193Y006643D01*
X008443Y006893D01*
X009693Y007143D02*
X010193Y006643D01*
X010193Y004893D01*
X009943Y004643D01*
X004693Y004643D01*
X004193Y005143D01*
X007943Y005893D02*
X008443Y005893D01*
X009193Y005143D01*
X022568Y006143D02*
X023193Y006143D01*
X030193Y010643D02*
X030693Y010143D01*
X031693Y010143D01*
X029568Y015143D02*
X029443Y015143D01*
X028943Y015643D01*
X028443Y015643D01*
X026943Y017143D01*
X025693Y017143D01*
X025693Y018143D02*
X026943Y018143D01*
X028443Y016643D01*
X028693Y018143D02*
X030693Y018143D01*
X028943Y020643D02*
X026193Y020643D01*
X025693Y020143D01*
X021693Y018143D02*
X021193Y018143D01*
X007193Y020643D02*
X006693Y020143D01*
X006193Y020643D02*
X006693Y021143D01*
X006193Y020643D02*
X003193Y020643D01*
X002693Y021143D01*
M02*
