G75*
G70*
%OFA0B0*%
%FSLAX24Y24*%
%IPPOS*%
%LPD*%
%AMOC8*
5,1,8,0,0,1.08239X$1,22.5*
%
%ADD10C,0.0060*%
%ADD11R,0.0600X0.0600*%
%ADD12C,0.0600*%
%ADD13C,0.0680*%
%ADD14OC8,0.0680*%
%ADD15OC8,0.0600*%
%ADD16R,0.0680X0.0680*%
%ADD17OC8,0.0710*%
%ADD18C,0.0710*%
D10*
X002572Y003048D02*
X002515Y003105D01*
X002515Y003332D01*
X002572Y003389D01*
X002685Y003389D01*
X002742Y003332D01*
X002742Y003275D01*
X002685Y003218D01*
X002515Y003218D01*
X002572Y003048D02*
X002685Y003048D01*
X002742Y003105D01*
X002884Y003048D02*
X003110Y003048D01*
X002997Y003048D02*
X002997Y003389D01*
X003110Y003275D01*
X003252Y003332D02*
X003309Y003389D01*
X003422Y003389D01*
X003479Y003332D01*
X003479Y003105D01*
X003252Y003332D01*
X003252Y003105D01*
X003309Y003048D01*
X003422Y003048D01*
X003479Y003105D01*
X003620Y003048D02*
X003847Y003048D01*
X003620Y003275D01*
X003620Y003332D01*
X003677Y003389D01*
X003790Y003389D01*
X003847Y003332D01*
X003988Y003389D02*
X004215Y003048D01*
X004357Y003048D02*
X004584Y003048D01*
X004470Y003048D02*
X004470Y003389D01*
X004584Y003275D01*
X004725Y003332D02*
X004952Y003105D01*
X004895Y003048D01*
X004782Y003048D01*
X004725Y003105D01*
X004725Y003332D01*
X004782Y003389D01*
X004895Y003389D01*
X004952Y003332D01*
X004952Y003105D01*
X004921Y003648D02*
X004751Y003648D01*
X004694Y003705D01*
X004751Y003762D01*
X004865Y003762D01*
X004921Y003818D01*
X004865Y003875D01*
X004694Y003875D01*
X004553Y003818D02*
X004496Y003875D01*
X004383Y003875D01*
X004326Y003818D01*
X004326Y003648D01*
X004185Y003705D02*
X004128Y003648D01*
X004014Y003648D01*
X003958Y003705D01*
X003958Y003818D01*
X004014Y003875D01*
X004128Y003875D01*
X004185Y003818D01*
X004185Y003705D01*
X004553Y003648D02*
X004553Y003989D01*
X003816Y003818D02*
X003816Y003705D01*
X003760Y003648D01*
X003589Y003648D01*
X003448Y003648D02*
X003448Y003989D01*
X003589Y003875D02*
X003760Y003875D01*
X003816Y003818D01*
X003448Y003762D02*
X003278Y003875D01*
X003448Y003762D02*
X003278Y003648D01*
X003141Y003592D02*
X002914Y003592D01*
X002773Y003592D02*
X002546Y003592D01*
X005840Y003705D02*
X005897Y003648D01*
X006010Y003648D01*
X006067Y003705D01*
X006067Y003762D01*
X006010Y003818D01*
X005897Y003818D01*
X005840Y003762D01*
X005840Y003705D01*
X005897Y003818D02*
X005840Y003875D01*
X005840Y003932D01*
X005897Y003989D01*
X006010Y003989D01*
X006067Y003932D01*
X006067Y003875D01*
X006010Y003818D01*
X006208Y003818D02*
X006435Y003818D01*
X006265Y003989D01*
X006265Y003648D01*
X006392Y003389D02*
X006392Y003332D01*
X006506Y003218D01*
X006506Y003048D01*
X006506Y003218D02*
X006619Y003332D01*
X006619Y003389D01*
X006761Y003275D02*
X006761Y003048D01*
X006761Y003218D02*
X006988Y003218D01*
X006988Y003275D02*
X006874Y003389D01*
X006761Y003275D01*
X006988Y003275D02*
X006988Y003048D01*
X007129Y003048D02*
X007299Y003218D01*
X007356Y003162D02*
X007129Y003389D01*
X007356Y003389D02*
X007356Y003048D01*
X007488Y003048D02*
X007601Y003048D01*
X007545Y003048D02*
X007545Y003389D01*
X007601Y003389D02*
X007488Y003389D01*
X007743Y003389D02*
X007856Y003275D01*
X007970Y003389D01*
X007970Y003048D01*
X008111Y003105D02*
X008168Y003048D01*
X008281Y003048D01*
X008338Y003105D01*
X008338Y003162D01*
X008281Y003218D01*
X008168Y003218D01*
X008111Y003162D01*
X008111Y003105D01*
X008168Y003218D02*
X008111Y003275D01*
X008111Y003332D01*
X008168Y003389D01*
X008281Y003389D01*
X008338Y003332D01*
X008338Y003275D01*
X008281Y003218D01*
X008480Y003275D02*
X008706Y003048D01*
X008480Y003048D01*
X008480Y003275D02*
X008480Y003332D01*
X008536Y003389D01*
X008650Y003389D01*
X008706Y003332D01*
X008961Y003389D02*
X008961Y003048D01*
X008848Y003048D02*
X009075Y003048D01*
X009075Y003275D02*
X008961Y003389D01*
X008891Y003648D02*
X008891Y003875D01*
X008720Y003875D01*
X008664Y003818D01*
X008664Y003648D01*
X008466Y003705D02*
X008409Y003648D01*
X008466Y003705D02*
X008466Y003932D01*
X008522Y003875D02*
X008409Y003875D01*
X008220Y003875D02*
X008107Y003875D01*
X008050Y003818D01*
X008050Y003648D01*
X008220Y003648D01*
X008277Y003705D01*
X008220Y003762D01*
X008050Y003762D01*
X007908Y003818D02*
X007852Y003875D01*
X007682Y003875D01*
X007682Y003592D01*
X007738Y003535D01*
X007795Y003535D01*
X007852Y003648D02*
X007682Y003648D01*
X007540Y003705D02*
X007483Y003648D01*
X007370Y003648D01*
X007313Y003705D01*
X007313Y003818D01*
X007370Y003875D01*
X007483Y003875D01*
X007540Y003818D01*
X007540Y003705D01*
X007852Y003648D02*
X007908Y003705D01*
X007908Y003818D01*
X007743Y003389D02*
X007743Y003048D01*
X007172Y003648D02*
X007172Y003875D01*
X007002Y003875D01*
X006945Y003818D01*
X006945Y003648D01*
X009032Y003762D02*
X009259Y003762D01*
X009259Y003818D02*
X009202Y003875D01*
X009089Y003875D01*
X009032Y003818D01*
X009032Y003762D01*
X009089Y003648D02*
X009202Y003648D01*
X009259Y003705D01*
X009259Y003818D01*
X009400Y003818D02*
X009457Y003762D01*
X009627Y003762D01*
X009627Y003648D02*
X009627Y003989D01*
X009457Y003989D01*
X009400Y003932D01*
X009400Y003818D01*
D11*
X012693Y010143D03*
X006693Y013143D03*
X002693Y013143D03*
X012693Y020143D03*
X011693Y022143D03*
X006693Y021143D03*
X002693Y021143D03*
X018693Y022143D03*
X025693Y022143D03*
X030693Y021143D03*
X025693Y015143D03*
X029693Y014143D03*
X020193Y009143D03*
D12*
X020193Y008143D03*
X020193Y007143D03*
X020193Y006143D03*
X020193Y005143D03*
X020193Y004143D03*
X020193Y003143D03*
X018693Y003143D03*
X017693Y003143D03*
X017693Y004143D03*
X018693Y004143D03*
X018693Y005143D03*
X017693Y005143D03*
X017693Y006143D03*
X018693Y006143D03*
X018693Y007143D03*
X017693Y007143D03*
X017693Y008143D03*
X018693Y008143D03*
X018693Y009143D03*
X017693Y009143D03*
X017693Y010143D03*
X018693Y010143D03*
X018693Y011143D03*
X017693Y011143D03*
X017693Y012143D03*
X018693Y012143D03*
X018693Y013143D03*
X017693Y013143D03*
X017693Y014143D03*
X018693Y014143D03*
X018693Y015143D03*
X017693Y015143D03*
X017693Y016143D03*
X018693Y016143D03*
X018693Y017143D03*
X017693Y017143D03*
X017693Y018143D03*
X018693Y018143D03*
X018693Y019143D03*
X017693Y019143D03*
X017693Y020143D03*
X018693Y020143D03*
X018693Y021143D03*
X017693Y021143D03*
X017693Y022143D03*
X015693Y020143D03*
X015693Y019143D03*
X015693Y018143D03*
X015693Y017143D03*
X015693Y016143D03*
X015693Y015143D03*
X015693Y014143D03*
X012693Y014143D03*
X011693Y014143D03*
X011693Y013143D03*
X011693Y012143D03*
X011693Y011143D03*
X011693Y010143D03*
X011693Y009143D03*
X012693Y009143D03*
X012693Y008143D03*
X011693Y008143D03*
X011693Y007143D03*
X012693Y007143D03*
X012693Y006143D03*
X012693Y005143D03*
X011693Y005143D03*
X011693Y006143D03*
X009693Y006143D03*
X009693Y007143D03*
X009693Y008143D03*
X009693Y009143D03*
X009693Y010143D03*
X009693Y011143D03*
X009693Y012143D03*
X009693Y013143D03*
X009693Y015143D03*
X009693Y016143D03*
X009693Y017143D03*
X009693Y018143D03*
X009693Y019143D03*
X009693Y020143D03*
X009693Y021143D03*
X011693Y021143D03*
X011693Y020143D03*
X011693Y019143D03*
X012693Y019143D03*
X012693Y018143D03*
X011693Y018143D03*
X011693Y017143D03*
X012693Y017143D03*
X012693Y016143D03*
X012693Y015143D03*
X011693Y015143D03*
X011693Y016143D03*
X006693Y016143D03*
X006693Y015143D03*
X005693Y015143D03*
X005693Y016143D03*
X005693Y017143D03*
X006693Y017143D03*
X006693Y018143D03*
X005693Y018143D03*
X005693Y019143D03*
X006693Y019143D03*
X006693Y020143D03*
X005693Y020143D03*
X005693Y021143D03*
X002693Y020143D03*
X002693Y019143D03*
X002693Y018143D03*
X002693Y017143D03*
X002693Y016143D03*
X002693Y015143D03*
X005693Y013143D03*
X005693Y012143D03*
X006693Y012143D03*
X006693Y011143D03*
X005693Y011143D03*
X005693Y010143D03*
X006693Y010143D03*
X006693Y009143D03*
X005693Y009143D03*
X005693Y008143D03*
X006693Y008143D03*
X006693Y007143D03*
X005693Y007143D03*
X005693Y006143D03*
X006693Y006143D03*
X002693Y006143D03*
X002693Y007143D03*
X002693Y008143D03*
X002693Y009143D03*
X002693Y010143D03*
X002693Y011143D03*
X002693Y012143D03*
X011693Y004143D03*
X012693Y004143D03*
X011693Y003143D03*
X015693Y004143D03*
X015693Y005143D03*
X015693Y006143D03*
X015693Y007143D03*
X015693Y008143D03*
X015693Y009143D03*
X015693Y010143D03*
X023193Y009143D03*
X023193Y008143D03*
X023193Y007143D03*
X023193Y006143D03*
X023193Y005143D03*
X023193Y004143D03*
X023193Y003143D03*
X024693Y003143D03*
X024693Y004143D03*
X024693Y005143D03*
X024693Y006143D03*
X025693Y006143D03*
X025693Y007143D03*
X024693Y007143D03*
X024693Y008143D03*
X025693Y008143D03*
X025693Y009143D03*
X024693Y009143D03*
X024693Y010143D03*
X025693Y010143D03*
X025693Y011143D03*
X024693Y011143D03*
X024693Y012143D03*
X025693Y012143D03*
X025693Y013143D03*
X024693Y013143D03*
X024693Y014143D03*
X025693Y014143D03*
X024693Y015143D03*
X024693Y016143D03*
X025693Y016143D03*
X025693Y017143D03*
X024693Y017143D03*
X024693Y018143D03*
X025693Y018143D03*
X025693Y019143D03*
X024693Y019143D03*
X024693Y020143D03*
X025693Y020143D03*
X025693Y021143D03*
X024693Y021143D03*
X024693Y022143D03*
X028693Y022143D03*
X028693Y021143D03*
X028693Y020143D03*
X028693Y019143D03*
X028693Y018143D03*
X028693Y017143D03*
X028693Y016143D03*
X028693Y015143D03*
X028693Y014143D03*
X028693Y013143D03*
X029693Y013143D03*
X029693Y012143D03*
X028693Y012143D03*
X028693Y011143D03*
X029693Y011143D03*
X029693Y010143D03*
X028693Y010143D03*
X028693Y009143D03*
X029693Y009143D03*
X029693Y008143D03*
X028693Y008143D03*
X028693Y007143D03*
X029693Y007143D03*
X029693Y006143D03*
X028693Y006143D03*
X030693Y015143D03*
X030693Y016143D03*
X030693Y017143D03*
X030693Y018143D03*
X030693Y019143D03*
X030693Y020143D03*
X033693Y020143D03*
X033693Y019143D03*
X033693Y018143D03*
X033693Y017143D03*
X033693Y016143D03*
X033693Y015143D03*
X033693Y021143D03*
D13*
X016693Y021143D03*
X016693Y020143D03*
X016693Y019143D03*
X016693Y018143D03*
X016693Y017143D03*
X016693Y016143D03*
X016693Y015143D03*
X016693Y014143D03*
X016693Y013143D03*
X016693Y012143D03*
X016693Y011143D03*
X016693Y010143D03*
X016693Y009143D03*
X016693Y008143D03*
X016693Y007143D03*
X016693Y006143D03*
X016693Y005143D03*
X016693Y004143D03*
X016693Y003143D03*
X010693Y003143D03*
X010693Y004143D03*
X010693Y005143D03*
X010693Y006143D03*
X010693Y007143D03*
X010693Y008143D03*
X010693Y009143D03*
X010693Y010143D03*
X010693Y011143D03*
X010693Y012143D03*
X010693Y013143D03*
X010693Y014143D03*
X010693Y015143D03*
X010693Y016143D03*
X010693Y017143D03*
X010693Y018143D03*
X010693Y019143D03*
X010693Y020143D03*
X010693Y021143D03*
X010693Y022143D03*
X016693Y022143D03*
D14*
X021193Y021143D03*
X022193Y021143D03*
X023193Y021143D03*
X031693Y013143D03*
X031693Y012143D03*
X031693Y011143D03*
X031693Y010143D03*
X031693Y009143D03*
X031693Y008143D03*
X031693Y007143D03*
X031693Y006143D03*
X030693Y004143D03*
X029693Y004143D03*
X028693Y004143D03*
X027693Y004143D03*
X026693Y004143D03*
X027693Y003143D03*
X028693Y003143D03*
X029693Y003143D03*
X030693Y003143D03*
X009193Y005143D03*
X008193Y005143D03*
X007193Y005143D03*
X006193Y005143D03*
X005193Y005143D03*
X004193Y005143D03*
X003193Y005143D03*
D15*
X013693Y011143D03*
X014693Y011143D03*
X020193Y011143D03*
X021193Y011143D03*
X022193Y011143D03*
X023193Y011143D03*
X022193Y010143D03*
X021193Y010143D03*
X021193Y014143D03*
X022193Y014143D03*
X023193Y014143D03*
X023193Y015143D03*
X022193Y015143D03*
X021193Y015143D03*
X020193Y015143D03*
X020193Y014143D03*
X020193Y018143D03*
X021193Y018143D03*
X022193Y018143D03*
X023193Y018143D03*
X029693Y017143D03*
X029693Y016143D03*
X031693Y014143D03*
X032693Y014143D03*
X029693Y021143D03*
X029693Y022143D03*
X031693Y022143D03*
X032693Y022143D03*
X014693Y021143D03*
X013693Y021143D03*
X008693Y022143D03*
X007693Y022143D03*
X004693Y022143D03*
X003693Y022143D03*
X003693Y014143D03*
X004693Y014143D03*
X007693Y014143D03*
X008693Y014143D03*
D16*
X020193Y021143D03*
X026693Y003143D03*
D17*
X022193Y019643D03*
X021193Y019643D03*
D18*
X020193Y019643D03*
X023193Y019643D03*
M02*
