G75*
G70*
%OFA0B0*%
%FSLAX24Y24*%
%IPPOS*%
%LPD*%
%AMOC8*
5,1,8,0,0,1.08239X$1,22.5*
%
%ADD10R,0.0600X0.0600*%
%ADD11C,0.0600*%
%ADD12C,0.0680*%
%ADD13OC8,0.0680*%
%ADD14OC8,0.0600*%
%ADD15R,0.0680X0.0680*%
%ADD16OC8,0.0710*%
%ADD17C,0.0710*%
D10*
X012693Y010143D03*
X006693Y013143D03*
X002693Y013143D03*
X012693Y020143D03*
X011693Y022143D03*
X006693Y021143D03*
X002693Y021143D03*
X018693Y022143D03*
X025693Y022143D03*
X030693Y021143D03*
X025693Y015143D03*
X029693Y014143D03*
X020193Y009143D03*
D11*
X020193Y008143D03*
X020193Y007143D03*
X020193Y006143D03*
X020193Y005143D03*
X020193Y004143D03*
X020193Y003143D03*
X018693Y003143D03*
X017693Y003143D03*
X017693Y004143D03*
X018693Y004143D03*
X018693Y005143D03*
X017693Y005143D03*
X017693Y006143D03*
X018693Y006143D03*
X018693Y007143D03*
X017693Y007143D03*
X017693Y008143D03*
X018693Y008143D03*
X018693Y009143D03*
X017693Y009143D03*
X017693Y010143D03*
X018693Y010143D03*
X018693Y011143D03*
X017693Y011143D03*
X017693Y012143D03*
X018693Y012143D03*
X018693Y013143D03*
X017693Y013143D03*
X017693Y014143D03*
X018693Y014143D03*
X018693Y015143D03*
X017693Y015143D03*
X017693Y016143D03*
X018693Y016143D03*
X018693Y017143D03*
X017693Y017143D03*
X017693Y018143D03*
X018693Y018143D03*
X018693Y019143D03*
X017693Y019143D03*
X017693Y020143D03*
X018693Y020143D03*
X018693Y021143D03*
X017693Y021143D03*
X017693Y022143D03*
X015693Y020143D03*
X015693Y019143D03*
X015693Y018143D03*
X015693Y017143D03*
X015693Y016143D03*
X015693Y015143D03*
X015693Y014143D03*
X012693Y014143D03*
X011693Y014143D03*
X011693Y013143D03*
X011693Y012143D03*
X011693Y011143D03*
X011693Y010143D03*
X011693Y009143D03*
X012693Y009143D03*
X012693Y008143D03*
X011693Y008143D03*
X011693Y007143D03*
X012693Y007143D03*
X012693Y006143D03*
X012693Y005143D03*
X011693Y005143D03*
X011693Y006143D03*
X009693Y006143D03*
X009693Y007143D03*
X009693Y008143D03*
X009693Y009143D03*
X009693Y010143D03*
X009693Y011143D03*
X009693Y012143D03*
X009693Y013143D03*
X009693Y015143D03*
X009693Y016143D03*
X009693Y017143D03*
X009693Y018143D03*
X009693Y019143D03*
X009693Y020143D03*
X009693Y021143D03*
X011693Y021143D03*
X011693Y020143D03*
X011693Y019143D03*
X012693Y019143D03*
X012693Y018143D03*
X011693Y018143D03*
X011693Y017143D03*
X012693Y017143D03*
X012693Y016143D03*
X012693Y015143D03*
X011693Y015143D03*
X011693Y016143D03*
X006693Y016143D03*
X006693Y015143D03*
X005693Y015143D03*
X005693Y016143D03*
X005693Y017143D03*
X006693Y017143D03*
X006693Y018143D03*
X005693Y018143D03*
X005693Y019143D03*
X006693Y019143D03*
X006693Y020143D03*
X005693Y020143D03*
X005693Y021143D03*
X002693Y020143D03*
X002693Y019143D03*
X002693Y018143D03*
X002693Y017143D03*
X002693Y016143D03*
X002693Y015143D03*
X005693Y013143D03*
X005693Y012143D03*
X006693Y012143D03*
X006693Y011143D03*
X005693Y011143D03*
X005693Y010143D03*
X006693Y010143D03*
X006693Y009143D03*
X005693Y009143D03*
X005693Y008143D03*
X006693Y008143D03*
X006693Y007143D03*
X005693Y007143D03*
X005693Y006143D03*
X006693Y006143D03*
X002693Y006143D03*
X002693Y007143D03*
X002693Y008143D03*
X002693Y009143D03*
X002693Y010143D03*
X002693Y011143D03*
X002693Y012143D03*
X011693Y004143D03*
X012693Y004143D03*
X011693Y003143D03*
X015693Y004143D03*
X015693Y005143D03*
X015693Y006143D03*
X015693Y007143D03*
X015693Y008143D03*
X015693Y009143D03*
X015693Y010143D03*
X023193Y009143D03*
X023193Y008143D03*
X023193Y007143D03*
X023193Y006143D03*
X023193Y005143D03*
X023193Y004143D03*
X023193Y003143D03*
X024693Y003143D03*
X024693Y004143D03*
X024693Y005143D03*
X024693Y006143D03*
X025693Y006143D03*
X025693Y007143D03*
X024693Y007143D03*
X024693Y008143D03*
X025693Y008143D03*
X025693Y009143D03*
X024693Y009143D03*
X024693Y010143D03*
X025693Y010143D03*
X025693Y011143D03*
X024693Y011143D03*
X024693Y012143D03*
X025693Y012143D03*
X025693Y013143D03*
X024693Y013143D03*
X024693Y014143D03*
X025693Y014143D03*
X024693Y015143D03*
X024693Y016143D03*
X025693Y016143D03*
X025693Y017143D03*
X024693Y017143D03*
X024693Y018143D03*
X025693Y018143D03*
X025693Y019143D03*
X024693Y019143D03*
X024693Y020143D03*
X025693Y020143D03*
X025693Y021143D03*
X024693Y021143D03*
X024693Y022143D03*
X028693Y022143D03*
X028693Y021143D03*
X028693Y020143D03*
X028693Y019143D03*
X028693Y018143D03*
X028693Y017143D03*
X028693Y016143D03*
X028693Y015143D03*
X028693Y014143D03*
X028693Y013143D03*
X029693Y013143D03*
X029693Y012143D03*
X028693Y012143D03*
X028693Y011143D03*
X029693Y011143D03*
X029693Y010143D03*
X028693Y010143D03*
X028693Y009143D03*
X029693Y009143D03*
X029693Y008143D03*
X028693Y008143D03*
X028693Y007143D03*
X029693Y007143D03*
X029693Y006143D03*
X028693Y006143D03*
X030693Y015143D03*
X030693Y016143D03*
X030693Y017143D03*
X030693Y018143D03*
X030693Y019143D03*
X030693Y020143D03*
X033693Y020143D03*
X033693Y019143D03*
X033693Y018143D03*
X033693Y017143D03*
X033693Y016143D03*
X033693Y015143D03*
X033693Y021143D03*
D12*
X016693Y021143D03*
X016693Y020143D03*
X016693Y019143D03*
X016693Y018143D03*
X016693Y017143D03*
X016693Y016143D03*
X016693Y015143D03*
X016693Y014143D03*
X016693Y013143D03*
X016693Y012143D03*
X016693Y011143D03*
X016693Y010143D03*
X016693Y009143D03*
X016693Y008143D03*
X016693Y007143D03*
X016693Y006143D03*
X016693Y005143D03*
X016693Y004143D03*
X016693Y003143D03*
X010693Y003143D03*
X010693Y004143D03*
X010693Y005143D03*
X010693Y006143D03*
X010693Y007143D03*
X010693Y008143D03*
X010693Y009143D03*
X010693Y010143D03*
X010693Y011143D03*
X010693Y012143D03*
X010693Y013143D03*
X010693Y014143D03*
X010693Y015143D03*
X010693Y016143D03*
X010693Y017143D03*
X010693Y018143D03*
X010693Y019143D03*
X010693Y020143D03*
X010693Y021143D03*
X010693Y022143D03*
X016693Y022143D03*
D13*
X003193Y005143D03*
X004193Y005143D03*
X005193Y005143D03*
X006193Y005143D03*
X007193Y005143D03*
X008193Y005143D03*
X009193Y005143D03*
X026693Y004143D03*
X027693Y004143D03*
X028693Y004143D03*
X029693Y004143D03*
X030693Y004143D03*
X030693Y003143D03*
X029693Y003143D03*
X028693Y003143D03*
X027693Y003143D03*
X031693Y006143D03*
X031693Y007143D03*
X031693Y008143D03*
X031693Y009143D03*
X031693Y010143D03*
X031693Y011143D03*
X031693Y012143D03*
X031693Y013143D03*
X023193Y021143D03*
X022193Y021143D03*
X021193Y021143D03*
D14*
X021193Y018143D03*
X022193Y018143D03*
X023193Y018143D03*
X020193Y018143D03*
X020193Y015143D03*
X021193Y015143D03*
X022193Y015143D03*
X023193Y015143D03*
X023193Y014143D03*
X022193Y014143D03*
X021193Y014143D03*
X020193Y014143D03*
X020193Y011143D03*
X021193Y011143D03*
X022193Y011143D03*
X023193Y011143D03*
X022193Y010143D03*
X021193Y010143D03*
X014693Y011143D03*
X013693Y011143D03*
X008693Y014143D03*
X007693Y014143D03*
X004693Y014143D03*
X003693Y014143D03*
X013693Y021143D03*
X014693Y021143D03*
X008693Y022143D03*
X007693Y022143D03*
X004693Y022143D03*
X003693Y022143D03*
X029693Y022143D03*
X029693Y021143D03*
X031693Y022143D03*
X032693Y022143D03*
X029693Y017143D03*
X029693Y016143D03*
X031693Y014143D03*
X032693Y014143D03*
D15*
X020193Y021143D03*
X026693Y003143D03*
D16*
X022193Y019643D03*
X021193Y019643D03*
D17*
X020193Y019643D03*
X023193Y019643D03*
M02*
