G75*
G70*
%OFA0B0*%
%FSLAX24Y24*%
%IPPOS*%
%LPD*%
%AMOC8*
5,1,8,0,0,1.08239X$1,22.5*
%
%ADD10C,0.0000*%
%ADD11C,0.0060*%
%ADD12C,0.0050*%
%ADD13C,0.0100*%
%ADD14C,0.0300*%
%ADD15R,0.0300X0.0200*%
%ADD16R,0.0300X0.0400*%
D10*
X001693Y002143D02*
X001693Y023143D01*
X034693Y023143D01*
X034693Y002143D01*
X001693Y002143D01*
D11*
X002943Y004643D02*
X003443Y004643D01*
X003693Y004893D01*
X003693Y005393D01*
X003443Y005643D01*
X002943Y005643D01*
X002693Y005393D01*
X002693Y004893D01*
X002943Y004643D01*
X003693Y004893D02*
X003943Y004643D01*
X004443Y004643D01*
X004693Y004893D01*
X004943Y004643D01*
X005443Y004643D01*
X005693Y004893D01*
X005943Y004643D01*
X006443Y004643D01*
X006693Y004893D01*
X006943Y004643D01*
X007443Y004643D01*
X007693Y004893D01*
X007693Y005393D01*
X007443Y005643D01*
X006943Y005643D01*
X006693Y005393D01*
X006693Y004893D01*
X006693Y005393D01*
X006443Y005643D01*
X005943Y005643D01*
X005693Y005393D01*
X005693Y004893D01*
X005693Y005393D01*
X005443Y005643D01*
X004943Y005643D01*
X004693Y005393D01*
X004693Y004893D01*
X004693Y005393D01*
X004443Y005643D01*
X003943Y005643D01*
X003693Y005393D01*
X003693Y004893D01*
X003043Y005643D02*
X005343Y005643D01*
X005343Y013643D01*
X004593Y013643D01*
X004591Y013604D01*
X004585Y013565D01*
X004576Y013527D01*
X004563Y013490D01*
X004546Y013454D01*
X004526Y013421D01*
X004502Y013389D01*
X004476Y013360D01*
X004447Y013334D01*
X004415Y013310D01*
X004382Y013290D01*
X004346Y013273D01*
X004309Y013260D01*
X004271Y013251D01*
X004232Y013245D01*
X004193Y013243D01*
X004154Y013245D01*
X004115Y013251D01*
X004077Y013260D01*
X004040Y013273D01*
X004004Y013290D01*
X003971Y013310D01*
X003939Y013334D01*
X003910Y013360D01*
X003884Y013389D01*
X003860Y013421D01*
X003840Y013454D01*
X003823Y013490D01*
X003810Y013527D01*
X003801Y013565D01*
X003795Y013604D01*
X003793Y013643D01*
X003043Y013643D01*
X003043Y005643D01*
X003473Y006327D02*
X003473Y006621D01*
X003473Y006474D02*
X003913Y006474D01*
X003766Y006621D01*
X003473Y006788D02*
X003473Y007081D01*
X003473Y006934D02*
X003913Y006934D01*
X003766Y007081D01*
X003693Y007248D02*
X003620Y007321D01*
X003620Y007542D01*
X003473Y007542D02*
X003913Y007542D01*
X003913Y007321D01*
X003840Y007248D01*
X003693Y007248D01*
X003473Y007708D02*
X003693Y007929D01*
X003620Y008002D02*
X003913Y007708D01*
X003913Y008002D02*
X003473Y008002D01*
X003546Y008169D02*
X003473Y008242D01*
X003473Y008389D01*
X003546Y008462D01*
X003693Y008462D02*
X003766Y008316D01*
X003766Y008242D01*
X003693Y008169D01*
X003546Y008169D01*
X003913Y008169D02*
X003913Y008462D01*
X003693Y008462D01*
X003693Y008629D02*
X003546Y008629D01*
X003473Y008703D01*
X003473Y008849D01*
X003546Y008923D01*
X003693Y008923D02*
X003766Y008776D01*
X003766Y008703D01*
X003693Y008629D01*
X003913Y008629D02*
X003913Y008923D01*
X003693Y008923D01*
X003693Y009090D02*
X003546Y009090D01*
X003473Y009163D01*
X003473Y009310D01*
X003546Y009383D01*
X003693Y009383D02*
X003766Y009236D01*
X003766Y009163D01*
X003693Y009090D01*
X003913Y009090D02*
X003913Y009383D01*
X003693Y009383D01*
X003913Y009550D02*
X003473Y009844D01*
X003840Y010010D02*
X003546Y010304D01*
X003473Y010304D01*
X003546Y010471D02*
X003473Y010544D01*
X003473Y010691D01*
X003546Y010764D01*
X003693Y010764D02*
X003766Y010618D01*
X003766Y010544D01*
X003693Y010471D01*
X003546Y010471D01*
X003693Y010764D02*
X003913Y010764D01*
X003913Y010471D01*
X003913Y010304D02*
X003913Y010010D01*
X003840Y010010D01*
X004473Y010080D02*
X004473Y010227D01*
X004473Y010154D02*
X004913Y010154D01*
X004913Y010227D02*
X004913Y010080D01*
X004840Y009920D02*
X004546Y009920D01*
X004473Y009847D01*
X004473Y009700D01*
X004546Y009627D01*
X004693Y009460D02*
X004693Y009166D01*
X004473Y009240D02*
X004913Y009240D01*
X004693Y009460D01*
X004840Y009627D02*
X004913Y009700D01*
X004913Y009847D01*
X004840Y009920D01*
X003840Y010931D02*
X003766Y010931D01*
X003473Y011225D01*
X003473Y010931D01*
X003840Y010931D02*
X003913Y011004D01*
X003913Y011151D01*
X003840Y011225D01*
X003840Y011391D02*
X003913Y011465D01*
X003913Y011612D01*
X003840Y011685D01*
X003766Y011685D01*
X003693Y011612D01*
X003693Y011465D01*
X003620Y011391D01*
X003546Y011391D01*
X003473Y011465D01*
X003473Y011612D01*
X003546Y011685D01*
X003473Y011852D02*
X003473Y012145D01*
X003913Y012145D01*
X003913Y012386D02*
X003693Y012606D01*
X003693Y012312D01*
X003473Y012386D02*
X003913Y012386D01*
X003913Y012773D02*
X003840Y012773D01*
X003546Y013066D01*
X003473Y013066D01*
X003913Y013066D02*
X003913Y012773D01*
X003343Y013643D02*
X005043Y013643D01*
X005060Y013645D01*
X005077Y013649D01*
X005093Y013656D01*
X005107Y013666D01*
X005120Y013679D01*
X005130Y013693D01*
X005137Y013709D01*
X005141Y013726D01*
X005143Y013743D01*
X005143Y014543D01*
X005141Y014560D01*
X005137Y014577D01*
X005130Y014593D01*
X005120Y014607D01*
X005107Y014620D01*
X005093Y014630D01*
X005077Y014637D01*
X005060Y014641D01*
X005043Y014643D01*
X003343Y014643D01*
X003326Y014641D01*
X003309Y014637D01*
X003293Y014630D01*
X003279Y014620D01*
X003266Y014607D01*
X003256Y014593D01*
X003249Y014577D01*
X003245Y014560D01*
X003243Y014543D01*
X003243Y013743D01*
X003245Y013726D01*
X003249Y013709D01*
X003256Y013693D01*
X003266Y013679D01*
X003279Y013666D01*
X003293Y013656D01*
X003309Y013649D01*
X003326Y013645D01*
X003343Y013643D01*
X004043Y014143D02*
X004093Y014143D01*
X004293Y014143D02*
X004343Y014143D01*
X005343Y014643D02*
X003043Y014643D01*
X003043Y021643D01*
X003793Y021643D01*
X003343Y021643D02*
X005043Y021643D01*
X005060Y021645D01*
X005077Y021649D01*
X005093Y021656D01*
X005107Y021666D01*
X005120Y021679D01*
X005130Y021693D01*
X005137Y021709D01*
X005141Y021726D01*
X005143Y021743D01*
X005143Y022543D01*
X005141Y022560D01*
X005137Y022577D01*
X005130Y022593D01*
X005120Y022607D01*
X005107Y022620D01*
X005093Y022630D01*
X005077Y022637D01*
X005060Y022641D01*
X005043Y022643D01*
X003343Y022643D01*
X003326Y022641D01*
X003309Y022637D01*
X003293Y022630D01*
X003279Y022620D01*
X003266Y022607D01*
X003256Y022593D01*
X003249Y022577D01*
X003245Y022560D01*
X003243Y022543D01*
X003243Y021743D01*
X003245Y021726D01*
X003249Y021709D01*
X003256Y021693D01*
X003266Y021679D01*
X003279Y021666D01*
X003293Y021656D01*
X003309Y021649D01*
X003326Y021645D01*
X003343Y021643D01*
X003473Y021106D02*
X003546Y021106D01*
X003840Y020812D01*
X003913Y020812D01*
X003913Y021106D01*
X003693Y020645D02*
X003693Y020352D01*
X003473Y020425D02*
X003913Y020425D01*
X003693Y020645D01*
X003473Y020185D02*
X003473Y019891D01*
X003546Y019725D02*
X003473Y019651D01*
X003473Y019504D01*
X003546Y019431D01*
X003620Y019431D01*
X003693Y019504D01*
X003693Y019651D01*
X003766Y019725D01*
X003840Y019725D01*
X003913Y019651D01*
X003913Y019504D01*
X003840Y019431D01*
X003840Y019264D02*
X003913Y019191D01*
X003913Y019044D01*
X003840Y018971D01*
X003546Y019264D01*
X003473Y019191D01*
X003473Y019044D01*
X003546Y018971D01*
X003840Y018971D01*
X003840Y018804D02*
X003913Y018731D01*
X003913Y018584D01*
X003840Y018510D01*
X003546Y018804D01*
X003473Y018731D01*
X003473Y018584D01*
X003546Y018510D01*
X003840Y018510D01*
X003840Y018804D02*
X003546Y018804D01*
X003546Y019264D02*
X003840Y019264D01*
X004473Y018727D02*
X004473Y018580D01*
X004473Y018654D02*
X004913Y018654D01*
X004913Y018727D02*
X004913Y018580D01*
X004840Y018420D02*
X004546Y018420D01*
X004473Y018347D01*
X004473Y018200D01*
X004546Y018127D01*
X004546Y017960D02*
X004473Y017886D01*
X004473Y017740D01*
X004546Y017666D01*
X004693Y017666D01*
X004766Y017740D01*
X004766Y017813D01*
X004693Y017960D01*
X004913Y017960D01*
X004913Y017666D01*
X004840Y018127D02*
X004913Y018200D01*
X004913Y018347D01*
X004840Y018420D01*
X003913Y018050D02*
X003473Y018344D01*
X003546Y017883D02*
X003473Y017810D01*
X003473Y017663D01*
X003546Y017590D01*
X003693Y017590D01*
X003766Y017663D01*
X003766Y017736D01*
X003693Y017883D01*
X003913Y017883D01*
X003913Y017590D01*
X003913Y017423D02*
X003693Y017423D01*
X003766Y017276D01*
X003766Y017203D01*
X003693Y017129D01*
X003546Y017129D01*
X003473Y017203D01*
X003473Y017349D01*
X003546Y017423D01*
X003913Y017423D02*
X003913Y017129D01*
X003913Y016962D02*
X003693Y016962D01*
X003766Y016816D01*
X003766Y016742D01*
X003693Y016669D01*
X003546Y016669D01*
X003473Y016742D01*
X003473Y016889D01*
X003546Y016962D01*
X003913Y016962D02*
X003913Y016669D01*
X003913Y016502D02*
X003473Y016502D01*
X003473Y016208D01*
X003473Y016042D02*
X003766Y016042D01*
X003913Y015895D01*
X003766Y015748D01*
X003473Y015748D01*
X003546Y015581D02*
X003473Y015508D01*
X003473Y015361D01*
X003546Y015288D01*
X003620Y015288D01*
X003693Y015361D01*
X003693Y015434D01*
X003693Y015361D02*
X003766Y015288D01*
X003840Y015288D01*
X003913Y015361D01*
X003913Y015508D01*
X003840Y015581D01*
X003693Y015748D02*
X003693Y016042D01*
X005343Y014643D02*
X005343Y021643D01*
X004593Y021643D01*
X004591Y021604D01*
X004585Y021565D01*
X004576Y021527D01*
X004563Y021490D01*
X004546Y021454D01*
X004526Y021421D01*
X004502Y021389D01*
X004476Y021360D01*
X004447Y021334D01*
X004415Y021310D01*
X004382Y021290D01*
X004346Y021273D01*
X004309Y021260D01*
X004271Y021251D01*
X004232Y021245D01*
X004193Y021243D01*
X004154Y021245D01*
X004115Y021251D01*
X004077Y021260D01*
X004040Y021273D01*
X004004Y021290D01*
X003971Y021310D01*
X003939Y021334D01*
X003910Y021360D01*
X003884Y021389D01*
X003860Y021421D01*
X003840Y021454D01*
X003823Y021490D01*
X003810Y021527D01*
X003801Y021565D01*
X003795Y021604D01*
X003793Y021643D01*
X004043Y022143D02*
X004093Y022143D01*
X004293Y022143D02*
X004343Y022143D01*
X003913Y020185D02*
X003473Y020185D01*
X007043Y021643D02*
X007793Y021643D01*
X007795Y021604D01*
X007801Y021565D01*
X007810Y021527D01*
X007823Y021490D01*
X007840Y021454D01*
X007860Y021421D01*
X007884Y021389D01*
X007910Y021360D01*
X007939Y021334D01*
X007971Y021310D01*
X008004Y021290D01*
X008040Y021273D01*
X008077Y021260D01*
X008115Y021251D01*
X008154Y021245D01*
X008193Y021243D01*
X008232Y021245D01*
X008271Y021251D01*
X008309Y021260D01*
X008346Y021273D01*
X008382Y021290D01*
X008415Y021310D01*
X008447Y021334D01*
X008476Y021360D01*
X008502Y021389D01*
X008526Y021421D01*
X008546Y021454D01*
X008563Y021490D01*
X008576Y021527D01*
X008585Y021565D01*
X008591Y021604D01*
X008593Y021643D01*
X009343Y021643D01*
X009343Y014643D01*
X007043Y014643D01*
X007043Y021643D01*
X007243Y021743D02*
X007243Y022543D01*
X007245Y022560D01*
X007249Y022577D01*
X007256Y022593D01*
X007266Y022607D01*
X007279Y022620D01*
X007293Y022630D01*
X007309Y022637D01*
X007326Y022641D01*
X007343Y022643D01*
X009043Y022643D01*
X009060Y022641D01*
X009077Y022637D01*
X009093Y022630D01*
X009107Y022620D01*
X009120Y022607D01*
X009130Y022593D01*
X009137Y022577D01*
X009141Y022560D01*
X009143Y022543D01*
X009143Y021743D01*
X009141Y021726D01*
X009137Y021709D01*
X009130Y021693D01*
X009120Y021679D01*
X009107Y021666D01*
X009093Y021656D01*
X009077Y021649D01*
X009060Y021645D01*
X009043Y021643D01*
X007343Y021643D01*
X007326Y021645D01*
X007309Y021649D01*
X007293Y021656D01*
X007279Y021666D01*
X007266Y021679D01*
X007256Y021693D01*
X007249Y021709D01*
X007245Y021726D01*
X007243Y021743D01*
X007473Y021106D02*
X007546Y021106D01*
X007840Y020812D01*
X007913Y020812D01*
X007913Y021106D01*
X007693Y020645D02*
X007693Y020352D01*
X007473Y020425D02*
X007913Y020425D01*
X007693Y020645D01*
X007473Y020185D02*
X007473Y019891D01*
X007546Y019725D02*
X007473Y019651D01*
X007473Y019504D01*
X007546Y019431D01*
X007620Y019431D01*
X007693Y019504D01*
X007693Y019651D01*
X007766Y019725D01*
X007840Y019725D01*
X007913Y019651D01*
X007913Y019504D01*
X007840Y019431D01*
X007840Y019264D02*
X007913Y019191D01*
X007913Y019044D01*
X007840Y018971D01*
X007546Y019264D01*
X007473Y019191D01*
X007473Y019044D01*
X007546Y018971D01*
X007840Y018971D01*
X007840Y018804D02*
X007913Y018731D01*
X007913Y018584D01*
X007840Y018510D01*
X007766Y018510D01*
X007473Y018804D01*
X007473Y018510D01*
X007473Y018344D02*
X007913Y018050D01*
X007913Y017883D02*
X007693Y017883D01*
X007766Y017736D01*
X007766Y017663D01*
X007693Y017590D01*
X007546Y017590D01*
X007473Y017663D01*
X007473Y017810D01*
X007546Y017883D01*
X007913Y017883D02*
X007913Y017590D01*
X007913Y017423D02*
X007693Y017423D01*
X007766Y017276D01*
X007766Y017203D01*
X007693Y017129D01*
X007546Y017129D01*
X007473Y017203D01*
X007473Y017349D01*
X007546Y017423D01*
X007913Y017423D02*
X007913Y017129D01*
X007913Y016962D02*
X007693Y016962D01*
X007766Y016816D01*
X007766Y016742D01*
X007693Y016669D01*
X007546Y016669D01*
X007473Y016742D01*
X007473Y016889D01*
X007546Y016962D01*
X007913Y016962D02*
X007913Y016669D01*
X007913Y016502D02*
X007473Y016502D01*
X007473Y016208D01*
X007473Y016042D02*
X007473Y015748D01*
X007473Y015581D02*
X007473Y015288D01*
X007473Y015434D02*
X007913Y015434D01*
X007766Y015581D01*
X007913Y015748D02*
X007913Y016042D01*
X007473Y016042D01*
X007693Y016042D02*
X007693Y015895D01*
X007343Y014643D02*
X009043Y014643D01*
X009060Y014641D01*
X009077Y014637D01*
X009093Y014630D01*
X009107Y014620D01*
X009120Y014607D01*
X009130Y014593D01*
X009137Y014577D01*
X009141Y014560D01*
X009143Y014543D01*
X009143Y013743D01*
X009141Y013726D01*
X009137Y013709D01*
X009130Y013693D01*
X009120Y013679D01*
X009107Y013666D01*
X009093Y013656D01*
X009077Y013649D01*
X009060Y013645D01*
X009043Y013643D01*
X007343Y013643D01*
X007326Y013645D01*
X007309Y013649D01*
X007293Y013656D01*
X007279Y013666D01*
X007266Y013679D01*
X007256Y013693D01*
X007249Y013709D01*
X007245Y013726D01*
X007243Y013743D01*
X007243Y014543D01*
X007245Y014560D01*
X007249Y014577D01*
X007256Y014593D01*
X007266Y014607D01*
X007279Y014620D01*
X007293Y014630D01*
X007309Y014637D01*
X007326Y014641D01*
X007343Y014643D01*
X008043Y014143D02*
X008093Y014143D01*
X008293Y014143D02*
X008343Y014143D01*
X008593Y013643D02*
X008591Y013604D01*
X008585Y013565D01*
X008576Y013527D01*
X008563Y013490D01*
X008546Y013454D01*
X008526Y013421D01*
X008502Y013389D01*
X008476Y013360D01*
X008447Y013334D01*
X008415Y013310D01*
X008382Y013290D01*
X008346Y013273D01*
X008309Y013260D01*
X008271Y013251D01*
X008232Y013245D01*
X008193Y013243D01*
X008154Y013245D01*
X008115Y013251D01*
X008077Y013260D01*
X008040Y013273D01*
X008004Y013290D01*
X007971Y013310D01*
X007939Y013334D01*
X007910Y013360D01*
X007884Y013389D01*
X007860Y013421D01*
X007840Y013454D01*
X007823Y013490D01*
X007810Y013527D01*
X007801Y013565D01*
X007795Y013604D01*
X007793Y013643D01*
X007043Y013643D01*
X007043Y005643D01*
X009343Y005643D01*
X009343Y013643D01*
X008593Y013643D01*
X007913Y012836D02*
X007913Y012542D01*
X007840Y012542D01*
X007546Y012836D01*
X007473Y012836D01*
X007693Y012376D02*
X007693Y012082D01*
X007473Y012155D02*
X007913Y012155D01*
X007693Y012376D01*
X007473Y011915D02*
X007473Y011622D01*
X007546Y011455D02*
X007473Y011381D01*
X007473Y011235D01*
X007546Y011161D01*
X007620Y011161D01*
X007693Y011235D01*
X007693Y011381D01*
X007766Y011455D01*
X007840Y011455D01*
X007913Y011381D01*
X007913Y011235D01*
X007840Y011161D01*
X007766Y010994D02*
X007913Y010848D01*
X007473Y010848D01*
X007473Y010994D02*
X007473Y010701D01*
X007473Y010534D02*
X007546Y010534D01*
X007840Y010241D01*
X007913Y010241D01*
X007913Y010534D01*
X007693Y010074D02*
X007693Y009780D01*
X007473Y009854D02*
X007913Y009854D01*
X007693Y010074D01*
X007473Y009613D02*
X007913Y009320D01*
X007913Y009153D02*
X007693Y009153D01*
X007766Y009006D01*
X007766Y008933D01*
X007693Y008859D01*
X007546Y008859D01*
X007473Y008933D01*
X007473Y009080D01*
X007546Y009153D01*
X007913Y009153D02*
X007913Y008859D01*
X007913Y008693D02*
X007693Y008693D01*
X007766Y008546D01*
X007766Y008472D01*
X007693Y008399D01*
X007546Y008399D01*
X007473Y008472D01*
X007473Y008619D01*
X007546Y008693D01*
X007913Y008693D02*
X007913Y008399D01*
X007913Y008232D02*
X007693Y008232D01*
X007766Y008085D01*
X007766Y008012D01*
X007693Y007939D01*
X007546Y007939D01*
X007473Y008012D01*
X007473Y008159D01*
X007546Y008232D01*
X007913Y008232D02*
X007913Y007939D01*
X007913Y007772D02*
X007913Y007478D01*
X007913Y007625D02*
X007473Y007625D01*
X007473Y007311D02*
X007913Y007311D01*
X007766Y007165D01*
X007913Y007018D01*
X007473Y007018D01*
X007546Y006851D02*
X007473Y006778D01*
X007473Y006631D01*
X007546Y006557D01*
X007840Y006557D01*
X007913Y006631D01*
X007913Y006778D01*
X007840Y006851D01*
X007766Y006851D01*
X007693Y006778D01*
X007693Y006557D01*
X007943Y005643D02*
X007693Y005393D01*
X007693Y004893D01*
X007943Y004643D01*
X008443Y004643D01*
X008693Y004893D01*
X008943Y004643D01*
X009443Y004643D01*
X009693Y004893D01*
X009693Y005393D01*
X009443Y005643D01*
X008943Y005643D01*
X008693Y005393D01*
X008693Y004893D01*
X008693Y005393D01*
X008443Y005643D01*
X007943Y005643D01*
X012043Y002643D02*
X017343Y002643D01*
X017343Y022643D01*
X015043Y022643D01*
X015041Y022604D01*
X015035Y022565D01*
X015026Y022527D01*
X015013Y022490D01*
X014996Y022454D01*
X014976Y022421D01*
X014952Y022389D01*
X014926Y022360D01*
X014897Y022334D01*
X014865Y022310D01*
X014832Y022290D01*
X014796Y022273D01*
X014759Y022260D01*
X014721Y022251D01*
X014682Y022245D01*
X014643Y022243D01*
X014604Y022245D01*
X014565Y022251D01*
X014527Y022260D01*
X014490Y022273D01*
X014454Y022290D01*
X014421Y022310D01*
X014389Y022334D01*
X014360Y022360D01*
X014334Y022389D01*
X014310Y022421D01*
X014290Y022454D01*
X014273Y022490D01*
X014260Y022527D01*
X014251Y022565D01*
X014245Y022604D01*
X014243Y022643D01*
X012043Y022643D01*
X012043Y002643D01*
X013043Y003643D02*
X015343Y003643D01*
X015343Y010643D01*
X014593Y010643D01*
X014591Y010604D01*
X014585Y010565D01*
X014576Y010527D01*
X014563Y010490D01*
X014546Y010454D01*
X014526Y010421D01*
X014502Y010389D01*
X014476Y010360D01*
X014447Y010334D01*
X014415Y010310D01*
X014382Y010290D01*
X014346Y010273D01*
X014309Y010260D01*
X014271Y010251D01*
X014232Y010245D01*
X014193Y010243D01*
X014154Y010245D01*
X014115Y010251D01*
X014077Y010260D01*
X014040Y010273D01*
X014004Y010290D01*
X013971Y010310D01*
X013939Y010334D01*
X013910Y010360D01*
X013884Y010389D01*
X013860Y010421D01*
X013840Y010454D01*
X013823Y010490D01*
X013810Y010527D01*
X013801Y010565D01*
X013795Y010604D01*
X013793Y010643D01*
X013043Y010643D01*
X013043Y003643D01*
X013473Y004288D02*
X013473Y004581D01*
X013473Y004434D02*
X013913Y004434D01*
X013766Y004581D01*
X013913Y004748D02*
X013913Y005042D01*
X013473Y005042D01*
X013473Y004748D01*
X013693Y004895D02*
X013693Y005042D01*
X013473Y005208D02*
X013473Y005502D01*
X013913Y005502D01*
X013913Y005669D02*
X013913Y005962D01*
X013693Y005962D01*
X013766Y005816D01*
X013766Y005742D01*
X013693Y005669D01*
X013546Y005669D01*
X013473Y005742D01*
X013473Y005889D01*
X013546Y005962D01*
X013546Y006129D02*
X013473Y006203D01*
X013473Y006349D01*
X013546Y006423D01*
X013693Y006423D02*
X013766Y006276D01*
X013766Y006203D01*
X013693Y006129D01*
X013546Y006129D01*
X013913Y006129D02*
X013913Y006423D01*
X013693Y006423D01*
X013693Y006590D02*
X013546Y006590D01*
X013473Y006663D01*
X013473Y006810D01*
X013546Y006883D01*
X013693Y006883D02*
X013766Y006736D01*
X013766Y006663D01*
X013693Y006590D01*
X013913Y006590D02*
X013913Y006883D01*
X013693Y006883D01*
X013913Y007050D02*
X013473Y007344D01*
X013473Y007510D02*
X013473Y007804D01*
X013766Y007510D01*
X013840Y007510D01*
X013913Y007584D01*
X013913Y007731D01*
X013840Y007804D01*
X013840Y007971D02*
X013546Y007971D01*
X013473Y008044D01*
X013473Y008191D01*
X013546Y008264D01*
X013840Y007971D01*
X013913Y008044D01*
X013913Y008191D01*
X013840Y008264D01*
X013546Y008264D01*
X013546Y008431D02*
X013473Y008504D01*
X013473Y008651D01*
X013546Y008725D01*
X013693Y008651D02*
X013693Y008504D01*
X013620Y008431D01*
X013546Y008431D01*
X013693Y008651D02*
X013766Y008725D01*
X013840Y008725D01*
X013913Y008651D01*
X013913Y008504D01*
X013840Y008431D01*
X013473Y008891D02*
X013473Y009185D01*
X013913Y009185D01*
X013913Y009425D02*
X013473Y009425D01*
X013693Y009352D02*
X013693Y009645D01*
X013913Y009425D01*
X013913Y009812D02*
X013840Y009812D01*
X013546Y010106D01*
X013473Y010106D01*
X013913Y010106D02*
X013913Y009812D01*
X013343Y010643D02*
X015043Y010643D01*
X015060Y010645D01*
X015077Y010649D01*
X015093Y010656D01*
X015107Y010666D01*
X015120Y010679D01*
X015130Y010693D01*
X015137Y010709D01*
X015141Y010726D01*
X015143Y010743D01*
X015143Y011543D01*
X015141Y011560D01*
X015137Y011577D01*
X015130Y011593D01*
X015120Y011607D01*
X015107Y011620D01*
X015093Y011630D01*
X015077Y011637D01*
X015060Y011641D01*
X015043Y011643D01*
X013343Y011643D01*
X013326Y011641D01*
X013309Y011637D01*
X013293Y011630D01*
X013279Y011620D01*
X013266Y011607D01*
X013256Y011593D01*
X013249Y011577D01*
X013245Y011560D01*
X013243Y011543D01*
X013243Y010743D01*
X013245Y010726D01*
X013249Y010709D01*
X013256Y010693D01*
X013266Y010679D01*
X013279Y010666D01*
X013293Y010656D01*
X013309Y010649D01*
X013326Y010645D01*
X013343Y010643D01*
X014043Y011143D02*
X014093Y011143D01*
X014293Y011143D02*
X014343Y011143D01*
X014016Y011859D02*
X013723Y011859D01*
X013943Y011859D02*
X013943Y012153D01*
X014016Y012153D02*
X014163Y012006D01*
X014016Y011859D01*
X014016Y012153D02*
X013723Y012153D01*
X013796Y012320D02*
X013723Y012393D01*
X013723Y012540D01*
X013796Y012613D01*
X014090Y012320D01*
X013796Y012320D01*
X013796Y012613D02*
X014090Y012613D01*
X014163Y012540D01*
X014163Y012393D01*
X014090Y012320D01*
X014090Y012780D02*
X014016Y012780D01*
X013943Y012854D01*
X013943Y013000D01*
X014016Y013074D01*
X014090Y013074D01*
X014163Y013000D01*
X014163Y012854D01*
X014090Y012780D01*
X013943Y012854D02*
X013870Y012780D01*
X013796Y012780D01*
X013723Y012854D01*
X013723Y013000D01*
X013796Y013074D01*
X013870Y013074D01*
X013943Y013000D01*
X014090Y013241D02*
X013796Y013534D01*
X013723Y013534D01*
X013723Y013241D01*
X014090Y013241D02*
X014163Y013241D01*
X014163Y013534D01*
X013840Y014288D02*
X013766Y014288D01*
X013693Y014361D01*
X013620Y014288D01*
X013546Y014288D01*
X013473Y014361D01*
X013473Y014508D01*
X013546Y014581D01*
X013473Y014748D02*
X013766Y014748D01*
X013913Y014895D01*
X013766Y015042D01*
X013473Y015042D01*
X013473Y015208D02*
X013473Y015502D01*
X013913Y015502D01*
X013913Y015669D02*
X013913Y015962D01*
X013693Y015962D01*
X013766Y015816D01*
X013766Y015742D01*
X013693Y015669D01*
X013546Y015669D01*
X013473Y015742D01*
X013473Y015889D01*
X013546Y015962D01*
X013546Y016129D02*
X013473Y016203D01*
X013473Y016349D01*
X013546Y016423D01*
X013693Y016423D02*
X013766Y016276D01*
X013766Y016203D01*
X013693Y016129D01*
X013546Y016129D01*
X013913Y016129D02*
X013913Y016423D01*
X013693Y016423D01*
X013693Y016590D02*
X013546Y016590D01*
X013473Y016663D01*
X013473Y016810D01*
X013546Y016883D01*
X013693Y016883D02*
X013766Y016736D01*
X013766Y016663D01*
X013693Y016590D01*
X013913Y016590D02*
X013913Y016883D01*
X013693Y016883D01*
X013913Y017050D02*
X013473Y017344D01*
X013546Y017510D02*
X013473Y017584D01*
X013473Y017731D01*
X013546Y017804D01*
X013840Y017510D01*
X013546Y017510D01*
X013840Y017510D02*
X013913Y017584D01*
X013913Y017731D01*
X013840Y017804D01*
X013546Y017804D01*
X013546Y017971D02*
X013473Y018044D01*
X013473Y018191D01*
X013546Y018264D01*
X013840Y017971D01*
X013546Y017971D01*
X013546Y018264D02*
X013840Y018264D01*
X013913Y018191D01*
X013913Y018044D01*
X013840Y017971D01*
X013840Y018431D02*
X013913Y018504D01*
X013913Y018651D01*
X013840Y018725D01*
X013766Y018725D01*
X013693Y018651D01*
X013693Y018504D01*
X013620Y018431D01*
X013546Y018431D01*
X013473Y018504D01*
X013473Y018651D01*
X013546Y018725D01*
X013473Y018891D02*
X013473Y019185D01*
X013913Y019185D01*
X013913Y019425D02*
X013473Y019425D01*
X013693Y019352D02*
X013693Y019645D01*
X013913Y019425D01*
X013913Y019812D02*
X013840Y019812D01*
X013546Y020106D01*
X013473Y020106D01*
X013913Y020106D02*
X013913Y019812D01*
X013793Y020643D02*
X013043Y020643D01*
X013043Y013643D01*
X015343Y013643D01*
X015343Y020643D01*
X014593Y020643D01*
X014591Y020604D01*
X014585Y020565D01*
X014576Y020527D01*
X014563Y020490D01*
X014546Y020454D01*
X014526Y020421D01*
X014502Y020389D01*
X014476Y020360D01*
X014447Y020334D01*
X014415Y020310D01*
X014382Y020290D01*
X014346Y020273D01*
X014309Y020260D01*
X014271Y020251D01*
X014232Y020245D01*
X014193Y020243D01*
X014154Y020245D01*
X014115Y020251D01*
X014077Y020260D01*
X014040Y020273D01*
X014004Y020290D01*
X013971Y020310D01*
X013939Y020334D01*
X013910Y020360D01*
X013884Y020389D01*
X013860Y020421D01*
X013840Y020454D01*
X013823Y020490D01*
X013810Y020527D01*
X013801Y020565D01*
X013795Y020604D01*
X013793Y020643D01*
X013343Y020643D02*
X015043Y020643D01*
X015060Y020645D01*
X015077Y020649D01*
X015093Y020656D01*
X015107Y020666D01*
X015120Y020679D01*
X015130Y020693D01*
X015137Y020709D01*
X015141Y020726D01*
X015143Y020743D01*
X015143Y021543D01*
X015141Y021560D01*
X015137Y021577D01*
X015130Y021593D01*
X015120Y021607D01*
X015107Y021620D01*
X015093Y021630D01*
X015077Y021637D01*
X015060Y021641D01*
X015043Y021643D01*
X013343Y021643D01*
X013326Y021641D01*
X013309Y021637D01*
X013293Y021630D01*
X013279Y021620D01*
X013266Y021607D01*
X013256Y021593D01*
X013249Y021577D01*
X013245Y021560D01*
X013243Y021543D01*
X013243Y020743D01*
X013245Y020726D01*
X013249Y020709D01*
X013256Y020693D01*
X013266Y020679D01*
X013279Y020666D01*
X013293Y020656D01*
X013309Y020649D01*
X013326Y020645D01*
X013343Y020643D01*
X014043Y021143D02*
X014093Y021143D01*
X014293Y021143D02*
X014343Y021143D01*
X014473Y017727D02*
X014473Y017580D01*
X014473Y017654D02*
X014913Y017654D01*
X014913Y017727D02*
X014913Y017580D01*
X014840Y017420D02*
X014546Y017420D01*
X014473Y017347D01*
X014473Y017200D01*
X014546Y017127D01*
X014546Y016960D02*
X014473Y016886D01*
X014473Y016740D01*
X014546Y016666D01*
X014840Y016666D01*
X014913Y016740D01*
X014913Y016886D01*
X014840Y016960D01*
X014766Y016960D01*
X014693Y016886D01*
X014693Y016666D01*
X014840Y017127D02*
X014913Y017200D01*
X014913Y017347D01*
X014840Y017420D01*
X013693Y015042D02*
X013693Y014748D01*
X013840Y014581D02*
X013913Y014508D01*
X013913Y014361D01*
X013840Y014288D01*
X013693Y014361D02*
X013693Y014434D01*
X015223Y013227D02*
X015223Y013080D01*
X015223Y013154D02*
X015663Y013154D01*
X015663Y013227D02*
X015663Y013080D01*
X015590Y012920D02*
X015296Y012920D01*
X015223Y012847D01*
X015223Y012700D01*
X015296Y012627D01*
X015223Y012460D02*
X015223Y012166D01*
X015223Y012313D02*
X015663Y012313D01*
X015516Y012460D01*
X015590Y012627D02*
X015663Y012700D01*
X015663Y012847D01*
X015590Y012920D01*
X019223Y012844D02*
X019516Y012844D01*
X019663Y012697D01*
X019516Y012550D01*
X019223Y012550D01*
X019443Y012550D02*
X019443Y012844D01*
X019663Y013010D02*
X019223Y013304D01*
X019663Y013471D02*
X019663Y013764D01*
X019223Y013764D01*
X019296Y013931D02*
X019590Y013931D01*
X019663Y014005D01*
X019663Y014151D01*
X019590Y014225D01*
X019516Y014225D01*
X019443Y014151D01*
X019443Y013931D01*
X019296Y013931D02*
X019223Y014005D01*
X019223Y014151D01*
X019296Y014225D01*
X019443Y014391D02*
X019443Y014685D01*
X019663Y014465D01*
X019223Y014465D01*
X019223Y014852D02*
X019223Y015145D01*
X019223Y014999D02*
X019663Y014999D01*
X019516Y015145D01*
X019516Y015312D02*
X019590Y015312D01*
X019663Y015386D01*
X019663Y015532D01*
X019590Y015606D01*
X019743Y015643D02*
X019743Y015493D01*
X019745Y015476D01*
X019749Y015459D01*
X019756Y015443D01*
X019766Y015429D01*
X019779Y015416D01*
X019793Y015406D01*
X019809Y015399D01*
X019826Y015395D01*
X019843Y015393D01*
X019743Y015643D02*
X019793Y015693D01*
X019793Y017593D01*
X019743Y017643D01*
X019743Y017793D01*
X019745Y017810D01*
X019749Y017827D01*
X019756Y017843D01*
X019766Y017857D01*
X019779Y017870D01*
X019793Y017880D01*
X019809Y017887D01*
X019826Y017891D01*
X019843Y017893D01*
X020543Y017893D02*
X020560Y017891D01*
X020577Y017887D01*
X020593Y017880D01*
X020607Y017870D01*
X020620Y017857D01*
X020630Y017843D01*
X020637Y017827D01*
X020641Y017810D01*
X020643Y017793D01*
X020643Y017643D01*
X020593Y017593D01*
X020593Y015693D01*
X020643Y015643D01*
X020643Y015493D01*
X020743Y015493D02*
X020743Y015643D01*
X020793Y015693D01*
X020793Y017593D01*
X020743Y017643D01*
X020743Y017793D01*
X020745Y017810D01*
X020749Y017827D01*
X020756Y017843D01*
X020766Y017857D01*
X020779Y017870D01*
X020793Y017880D01*
X020809Y017887D01*
X020826Y017891D01*
X020843Y017893D01*
X021543Y017893D02*
X021560Y017891D01*
X021577Y017887D01*
X021593Y017880D01*
X021607Y017870D01*
X021620Y017857D01*
X021630Y017843D01*
X021637Y017827D01*
X021641Y017810D01*
X021643Y017793D01*
X021643Y017643D01*
X021593Y017593D01*
X021593Y015693D01*
X021643Y015643D01*
X021643Y015493D01*
X021743Y015493D02*
X021743Y015643D01*
X021793Y015693D01*
X021793Y017593D01*
X021743Y017643D01*
X021743Y017793D01*
X021745Y017810D01*
X021749Y017827D01*
X021756Y017843D01*
X021766Y017857D01*
X021779Y017870D01*
X021793Y017880D01*
X021809Y017887D01*
X021826Y017891D01*
X021843Y017893D01*
X022543Y017893D02*
X022560Y017891D01*
X022577Y017887D01*
X022593Y017880D01*
X022607Y017870D01*
X022620Y017857D01*
X022630Y017843D01*
X022637Y017827D01*
X022641Y017810D01*
X022643Y017793D01*
X022643Y017643D01*
X022593Y017593D01*
X022593Y015693D01*
X022643Y015643D01*
X022643Y015493D01*
X022743Y015493D02*
X022743Y015643D01*
X022793Y015693D01*
X022793Y017593D01*
X022743Y017643D01*
X022743Y017793D01*
X022745Y017810D01*
X022749Y017827D01*
X022756Y017843D01*
X022766Y017857D01*
X022779Y017870D01*
X022793Y017880D01*
X022809Y017887D01*
X022826Y017891D01*
X022843Y017893D01*
X023543Y017893D02*
X023560Y017891D01*
X023577Y017887D01*
X023593Y017880D01*
X023607Y017870D01*
X023620Y017857D01*
X023630Y017843D01*
X023637Y017827D01*
X023641Y017810D01*
X023643Y017793D01*
X023643Y017643D01*
X023593Y017593D01*
X023593Y015693D01*
X023643Y015643D01*
X023643Y015493D01*
X023641Y015476D01*
X023637Y015459D01*
X023630Y015443D01*
X023620Y015429D01*
X023607Y015416D01*
X023593Y015406D01*
X023577Y015399D01*
X023560Y015395D01*
X023543Y015393D01*
X022843Y015393D02*
X022826Y015395D01*
X022809Y015399D01*
X022793Y015406D01*
X022779Y015416D01*
X022766Y015429D01*
X022756Y015443D01*
X022749Y015459D01*
X022745Y015476D01*
X022743Y015493D01*
X022643Y015493D02*
X022641Y015476D01*
X022637Y015459D01*
X022630Y015443D01*
X022620Y015429D01*
X022607Y015416D01*
X022593Y015406D01*
X022577Y015399D01*
X022560Y015395D01*
X022543Y015393D01*
X021843Y015393D02*
X021826Y015395D01*
X021809Y015399D01*
X021793Y015406D01*
X021779Y015416D01*
X021766Y015429D01*
X021756Y015443D01*
X021749Y015459D01*
X021745Y015476D01*
X021743Y015493D01*
X021643Y015493D02*
X021641Y015476D01*
X021637Y015459D01*
X021630Y015443D01*
X021620Y015429D01*
X021607Y015416D01*
X021593Y015406D01*
X021577Y015399D01*
X021560Y015395D01*
X021543Y015393D01*
X020843Y015393D02*
X020826Y015395D01*
X020809Y015399D01*
X020793Y015406D01*
X020779Y015416D01*
X020766Y015429D01*
X020756Y015443D01*
X020749Y015459D01*
X020745Y015476D01*
X020743Y015493D01*
X020643Y015493D02*
X020641Y015476D01*
X020637Y015459D01*
X020630Y015443D01*
X020620Y015429D01*
X020607Y015416D01*
X020593Y015406D01*
X020577Y015399D01*
X020560Y015395D01*
X020543Y015393D01*
X019663Y015773D02*
X019516Y015919D01*
X019663Y016066D01*
X019223Y016066D01*
X019223Y015773D02*
X019663Y015773D01*
X019223Y015606D02*
X019516Y015312D01*
X019223Y015312D02*
X019223Y015606D01*
X019590Y016233D02*
X019443Y016380D01*
X019223Y016380D01*
X019443Y016380D02*
X019590Y016527D01*
X019663Y016527D01*
X019663Y016233D02*
X019590Y016233D01*
X019973Y016320D02*
X019973Y016613D01*
X019973Y016467D02*
X020413Y016467D01*
X020266Y016613D01*
X020193Y016780D02*
X020120Y016854D01*
X020120Y017074D01*
X020120Y016927D02*
X019973Y016780D01*
X020193Y016780D02*
X020340Y016780D01*
X020413Y016854D01*
X020413Y017074D01*
X019973Y017074D01*
X020973Y017074D02*
X021413Y017074D01*
X021413Y016854D01*
X021340Y016780D01*
X021193Y016780D01*
X021120Y016854D01*
X021120Y017074D01*
X021120Y016927D02*
X020973Y016780D01*
X021046Y016613D02*
X020973Y016540D01*
X020973Y016393D01*
X021046Y016320D01*
X021193Y016320D01*
X021266Y016393D01*
X021266Y016467D01*
X021193Y016613D01*
X021413Y016613D01*
X021413Y016320D01*
X021973Y016393D02*
X022046Y016320D01*
X022120Y016320D01*
X022193Y016393D01*
X022193Y016613D01*
X022046Y016613D01*
X021973Y016540D01*
X021973Y016393D01*
X022193Y016613D02*
X022340Y016467D01*
X022413Y016320D01*
X022973Y016393D02*
X023413Y016393D01*
X023193Y016613D01*
X023193Y016320D01*
X023193Y016780D02*
X023120Y016854D01*
X023120Y017074D01*
X023120Y016927D02*
X022973Y016780D01*
X023193Y016780D02*
X023340Y016780D01*
X023413Y016854D01*
X023413Y017074D01*
X022973Y017074D01*
X022413Y017074D02*
X022413Y016854D01*
X022340Y016780D01*
X022193Y016780D01*
X022120Y016854D01*
X022120Y017074D01*
X022120Y016927D02*
X021973Y016780D01*
X021973Y017074D02*
X022413Y017074D01*
X023243Y019043D02*
X023243Y019143D01*
X023143Y019143D01*
X023243Y019143D02*
X023243Y019243D01*
X023243Y019143D02*
X023343Y019143D01*
X021693Y019643D02*
X021695Y019706D01*
X021701Y019768D01*
X021711Y019830D01*
X021724Y019892D01*
X021742Y019952D01*
X021763Y020011D01*
X021788Y020069D01*
X021817Y020125D01*
X021849Y020179D01*
X021884Y020231D01*
X021922Y020280D01*
X021964Y020328D01*
X022008Y020372D01*
X022056Y020414D01*
X022105Y020452D01*
X022157Y020487D01*
X022211Y020519D01*
X022267Y020548D01*
X022325Y020573D01*
X022384Y020594D01*
X022444Y020612D01*
X022506Y020625D01*
X022568Y020635D01*
X022630Y020641D01*
X022693Y020643D01*
X022756Y020641D01*
X022818Y020635D01*
X022880Y020625D01*
X022942Y020612D01*
X023002Y020594D01*
X023061Y020573D01*
X023119Y020548D01*
X023175Y020519D01*
X023229Y020487D01*
X023281Y020452D01*
X023330Y020414D01*
X023378Y020372D01*
X023422Y020328D01*
X023464Y020280D01*
X023502Y020231D01*
X023537Y020179D01*
X023569Y020125D01*
X023598Y020069D01*
X023623Y020011D01*
X023644Y019952D01*
X023662Y019892D01*
X023675Y019830D01*
X023685Y019768D01*
X023691Y019706D01*
X023693Y019643D01*
X023691Y019580D01*
X023685Y019518D01*
X023675Y019456D01*
X023662Y019394D01*
X023644Y019334D01*
X023623Y019275D01*
X023598Y019217D01*
X023569Y019161D01*
X023537Y019107D01*
X023502Y019055D01*
X023464Y019006D01*
X023422Y018958D01*
X023378Y018914D01*
X023330Y018872D01*
X023281Y018834D01*
X023229Y018799D01*
X023175Y018767D01*
X023119Y018738D01*
X023061Y018713D01*
X023002Y018692D01*
X022942Y018674D01*
X022880Y018661D01*
X022818Y018651D01*
X022756Y018645D01*
X022693Y018643D01*
X022630Y018645D01*
X022568Y018651D01*
X022506Y018661D01*
X022444Y018674D01*
X022384Y018692D01*
X022325Y018713D01*
X022267Y018738D01*
X022211Y018767D01*
X022157Y018799D01*
X022105Y018834D01*
X022056Y018872D01*
X022008Y018914D01*
X021964Y018958D01*
X021922Y019006D01*
X021884Y019055D01*
X021849Y019107D01*
X021817Y019161D01*
X021788Y019217D01*
X021763Y019275D01*
X021742Y019334D01*
X021724Y019394D01*
X021711Y019456D01*
X021701Y019518D01*
X021695Y019580D01*
X021693Y019643D01*
X019693Y019643D02*
X019695Y019706D01*
X019701Y019768D01*
X019711Y019830D01*
X019724Y019892D01*
X019742Y019952D01*
X019763Y020011D01*
X019788Y020069D01*
X019817Y020125D01*
X019849Y020179D01*
X019884Y020231D01*
X019922Y020280D01*
X019964Y020328D01*
X020008Y020372D01*
X020056Y020414D01*
X020105Y020452D01*
X020157Y020487D01*
X020211Y020519D01*
X020267Y020548D01*
X020325Y020573D01*
X020384Y020594D01*
X020444Y020612D01*
X020506Y020625D01*
X020568Y020635D01*
X020630Y020641D01*
X020693Y020643D01*
X020756Y020641D01*
X020818Y020635D01*
X020880Y020625D01*
X020942Y020612D01*
X021002Y020594D01*
X021061Y020573D01*
X021119Y020548D01*
X021175Y020519D01*
X021229Y020487D01*
X021281Y020452D01*
X021330Y020414D01*
X021378Y020372D01*
X021422Y020328D01*
X021464Y020280D01*
X021502Y020231D01*
X021537Y020179D01*
X021569Y020125D01*
X021598Y020069D01*
X021623Y020011D01*
X021644Y019952D01*
X021662Y019892D01*
X021675Y019830D01*
X021685Y019768D01*
X021691Y019706D01*
X021693Y019643D01*
X021691Y019580D01*
X021685Y019518D01*
X021675Y019456D01*
X021662Y019394D01*
X021644Y019334D01*
X021623Y019275D01*
X021598Y019217D01*
X021569Y019161D01*
X021537Y019107D01*
X021502Y019055D01*
X021464Y019006D01*
X021422Y018958D01*
X021378Y018914D01*
X021330Y018872D01*
X021281Y018834D01*
X021229Y018799D01*
X021175Y018767D01*
X021119Y018738D01*
X021061Y018713D01*
X021002Y018692D01*
X020942Y018674D01*
X020880Y018661D01*
X020818Y018651D01*
X020756Y018645D01*
X020693Y018643D01*
X020630Y018645D01*
X020568Y018651D01*
X020506Y018661D01*
X020444Y018674D01*
X020384Y018692D01*
X020325Y018713D01*
X020267Y018738D01*
X020211Y018767D01*
X020157Y018799D01*
X020105Y018834D01*
X020056Y018872D01*
X020008Y018914D01*
X019964Y018958D01*
X019922Y019006D01*
X019884Y019055D01*
X019849Y019107D01*
X019817Y019161D01*
X019788Y019217D01*
X019763Y019275D01*
X019742Y019334D01*
X019724Y019394D01*
X019711Y019456D01*
X019701Y019518D01*
X019695Y019580D01*
X019693Y019643D01*
X020143Y020043D02*
X020143Y020143D01*
X020143Y020243D01*
X020143Y020143D02*
X020243Y020143D01*
X020143Y020143D02*
X020043Y020143D01*
X019590Y020524D02*
X019516Y020524D01*
X019443Y020597D01*
X019370Y020524D01*
X019296Y020524D01*
X019223Y020597D01*
X019223Y020744D01*
X019296Y020818D01*
X019443Y020671D02*
X019443Y020597D01*
X019590Y020524D02*
X019663Y020597D01*
X019663Y020744D01*
X019590Y020818D01*
X019590Y020984D02*
X019443Y020984D01*
X019370Y021058D01*
X019370Y021278D01*
X019223Y021278D02*
X019663Y021278D01*
X019663Y021058D01*
X019590Y020984D01*
X019663Y021445D02*
X019663Y021592D01*
X019663Y021518D02*
X019296Y021518D01*
X019223Y021592D01*
X019223Y021665D01*
X019296Y021738D01*
X019693Y021893D02*
X019693Y022893D01*
X020693Y022893D01*
X021693Y022893D01*
X022693Y022893D01*
X023693Y022893D01*
X023693Y021893D01*
X022693Y021893D01*
X022693Y022893D01*
X022043Y022643D02*
X024343Y022643D01*
X024343Y002643D01*
X019043Y002643D01*
X019043Y022643D01*
X021243Y022643D01*
X020693Y022893D02*
X020693Y021893D01*
X021693Y021893D01*
X022693Y021893D01*
X021693Y021893D02*
X021693Y022893D01*
X022043Y022643D02*
X022041Y022604D01*
X022035Y022565D01*
X022026Y022527D01*
X022013Y022490D01*
X021996Y022454D01*
X021976Y022421D01*
X021952Y022389D01*
X021926Y022360D01*
X021897Y022334D01*
X021865Y022310D01*
X021832Y022290D01*
X021796Y022273D01*
X021759Y022260D01*
X021721Y022251D01*
X021682Y022245D01*
X021643Y022243D01*
X021604Y022245D01*
X021565Y022251D01*
X021527Y022260D01*
X021490Y022273D01*
X021454Y022290D01*
X021421Y022310D01*
X021389Y022334D01*
X021360Y022360D01*
X021334Y022389D01*
X021310Y022421D01*
X021290Y022454D01*
X021273Y022490D01*
X021260Y022527D01*
X021251Y022565D01*
X021245Y022604D01*
X021243Y022643D01*
X020693Y021893D02*
X019693Y021893D01*
X026043Y022643D02*
X026793Y022643D01*
X026795Y022604D01*
X026801Y022565D01*
X026810Y022527D01*
X026823Y022490D01*
X026840Y022454D01*
X026860Y022421D01*
X026884Y022389D01*
X026910Y022360D01*
X026939Y022334D01*
X026971Y022310D01*
X027004Y022290D01*
X027040Y022273D01*
X027077Y022260D01*
X027115Y022251D01*
X027154Y022245D01*
X027193Y022243D01*
X027232Y022245D01*
X027271Y022251D01*
X027309Y022260D01*
X027346Y022273D01*
X027382Y022290D01*
X027415Y022310D01*
X027447Y022334D01*
X027476Y022360D01*
X027502Y022389D01*
X027526Y022421D01*
X027546Y022454D01*
X027563Y022490D01*
X027576Y022527D01*
X027585Y022565D01*
X027591Y022604D01*
X027593Y022643D01*
X028343Y022643D01*
X028343Y015643D01*
X026043Y015643D01*
X026043Y022643D01*
X026473Y022106D02*
X026546Y022106D01*
X026840Y021812D01*
X026913Y021812D01*
X026913Y022106D01*
X026693Y021645D02*
X026693Y021352D01*
X026473Y021425D02*
X026913Y021425D01*
X026693Y021645D01*
X026473Y021185D02*
X026473Y020891D01*
X026546Y020725D02*
X026473Y020651D01*
X026473Y020504D01*
X026546Y020431D01*
X026620Y020431D01*
X026693Y020504D01*
X026693Y020651D01*
X026766Y020725D01*
X026840Y020725D01*
X026913Y020651D01*
X026913Y020504D01*
X026840Y020431D01*
X026840Y020264D02*
X026913Y020191D01*
X026913Y020044D01*
X026840Y019971D01*
X026546Y020264D01*
X026473Y020191D01*
X026473Y020044D01*
X026546Y019971D01*
X026840Y019971D01*
X026840Y019804D02*
X026913Y019731D01*
X026913Y019584D01*
X026840Y019510D01*
X026766Y019510D01*
X026473Y019804D01*
X026473Y019510D01*
X026473Y019344D02*
X026913Y019050D01*
X026913Y018883D02*
X026693Y018883D01*
X026766Y018736D01*
X026766Y018663D01*
X026693Y018590D01*
X026546Y018590D01*
X026473Y018663D01*
X026473Y018810D01*
X026546Y018883D01*
X026913Y018883D02*
X026913Y018590D01*
X026913Y018423D02*
X026693Y018423D01*
X026766Y018276D01*
X026766Y018203D01*
X026693Y018129D01*
X026546Y018129D01*
X026473Y018203D01*
X026473Y018349D01*
X026546Y018423D01*
X026913Y018423D02*
X026913Y018129D01*
X026913Y017962D02*
X026693Y017962D01*
X026766Y017816D01*
X026766Y017742D01*
X026693Y017669D01*
X026546Y017669D01*
X026473Y017742D01*
X026473Y017889D01*
X026546Y017962D01*
X026913Y017962D02*
X026913Y017669D01*
X026913Y017502D02*
X026473Y017502D01*
X026473Y017208D01*
X026473Y017042D02*
X026473Y016748D01*
X026473Y016581D02*
X026473Y016288D01*
X026473Y016434D02*
X026913Y016434D01*
X026766Y016581D01*
X026913Y016748D02*
X026913Y017042D01*
X026473Y017042D01*
X026693Y017042D02*
X026693Y016895D01*
X026793Y015643D02*
X026043Y015643D01*
X026043Y005643D01*
X028343Y005643D01*
X028343Y015643D01*
X027593Y015643D01*
X027591Y015604D01*
X027585Y015565D01*
X027576Y015527D01*
X027563Y015490D01*
X027546Y015454D01*
X027526Y015421D01*
X027502Y015389D01*
X027476Y015360D01*
X027447Y015334D01*
X027415Y015310D01*
X027382Y015290D01*
X027346Y015273D01*
X027309Y015260D01*
X027271Y015251D01*
X027232Y015245D01*
X027193Y015243D01*
X027154Y015245D01*
X027115Y015251D01*
X027077Y015260D01*
X027040Y015273D01*
X027004Y015290D01*
X026971Y015310D01*
X026939Y015334D01*
X026910Y015360D01*
X026884Y015389D01*
X026860Y015421D01*
X026840Y015454D01*
X026823Y015490D01*
X026810Y015527D01*
X026801Y015565D01*
X026795Y015604D01*
X026793Y015643D01*
X029193Y015793D02*
X029193Y017493D01*
X029195Y017510D01*
X029199Y017527D01*
X029206Y017543D01*
X029216Y017557D01*
X029229Y017570D01*
X029243Y017580D01*
X029259Y017587D01*
X029276Y017591D01*
X029293Y017593D01*
X030093Y017593D01*
X030110Y017591D01*
X030127Y017587D01*
X030143Y017580D01*
X030157Y017570D01*
X030170Y017557D01*
X030180Y017543D01*
X030187Y017527D01*
X030191Y017510D01*
X030193Y017493D01*
X030193Y015793D01*
X030191Y015776D01*
X030187Y015759D01*
X030180Y015743D01*
X030170Y015729D01*
X030157Y015716D01*
X030143Y015706D01*
X030127Y015699D01*
X030110Y015695D01*
X030093Y015693D01*
X029293Y015693D01*
X029276Y015695D01*
X029259Y015699D01*
X029243Y015706D01*
X029229Y015716D01*
X029216Y015729D01*
X029206Y015743D01*
X029199Y015759D01*
X029195Y015776D01*
X029193Y015793D01*
X029693Y016493D02*
X029693Y016543D01*
X029693Y016743D02*
X029693Y016793D01*
X031473Y016742D02*
X031473Y016889D01*
X031546Y016962D01*
X031693Y016962D02*
X031766Y016816D01*
X031766Y016742D01*
X031693Y016669D01*
X031546Y016669D01*
X031473Y016742D01*
X031473Y016502D02*
X031473Y016208D01*
X031473Y016042D02*
X031766Y016042D01*
X031913Y015895D01*
X031766Y015748D01*
X031473Y015748D01*
X031546Y015581D02*
X031473Y015508D01*
X031473Y015361D01*
X031546Y015288D01*
X031620Y015288D01*
X031693Y015361D01*
X031693Y015434D01*
X031693Y015361D02*
X031766Y015288D01*
X031840Y015288D01*
X031913Y015361D01*
X031913Y015508D01*
X031840Y015581D01*
X031693Y015748D02*
X031693Y016042D01*
X031913Y016502D02*
X031473Y016502D01*
X031913Y016669D02*
X031913Y016962D01*
X031693Y016962D01*
X031693Y017129D02*
X031546Y017129D01*
X031473Y017203D01*
X031473Y017349D01*
X031546Y017423D01*
X031693Y017423D02*
X031766Y017276D01*
X031766Y017203D01*
X031693Y017129D01*
X031913Y017129D02*
X031913Y017423D01*
X031693Y017423D01*
X031693Y017590D02*
X031546Y017590D01*
X031473Y017663D01*
X031473Y017810D01*
X031546Y017883D01*
X031693Y017883D02*
X031766Y017736D01*
X031766Y017663D01*
X031693Y017590D01*
X031913Y017590D02*
X031913Y017883D01*
X031693Y017883D01*
X031913Y018050D02*
X031473Y018344D01*
X031546Y018510D02*
X031473Y018584D01*
X031473Y018731D01*
X031546Y018804D01*
X031840Y018510D01*
X031546Y018510D01*
X031840Y018510D02*
X031913Y018584D01*
X031913Y018731D01*
X031840Y018804D01*
X031546Y018804D01*
X031546Y018971D02*
X031473Y019044D01*
X031473Y019191D01*
X031546Y019264D01*
X031840Y018971D01*
X031546Y018971D01*
X031840Y018971D02*
X031913Y019044D01*
X031913Y019191D01*
X031840Y019264D01*
X031546Y019264D01*
X031546Y019431D02*
X031473Y019504D01*
X031473Y019651D01*
X031546Y019725D01*
X031693Y019651D02*
X031693Y019504D01*
X031620Y019431D01*
X031546Y019431D01*
X031693Y019651D02*
X031766Y019725D01*
X031840Y019725D01*
X031913Y019651D01*
X031913Y019504D01*
X031840Y019431D01*
X031473Y019891D02*
X031473Y020185D01*
X031913Y020185D01*
X031913Y020425D02*
X031473Y020425D01*
X031693Y020352D02*
X031693Y020645D01*
X031913Y020425D01*
X031913Y020812D02*
X031840Y020812D01*
X031546Y021106D01*
X031473Y021106D01*
X031913Y021106D02*
X031913Y020812D01*
X031793Y021643D02*
X031043Y021643D01*
X031043Y014643D01*
X033343Y014643D01*
X033343Y021643D01*
X032593Y021643D01*
X032591Y021604D01*
X032585Y021565D01*
X032576Y021527D01*
X032563Y021490D01*
X032546Y021454D01*
X032526Y021421D01*
X032502Y021389D01*
X032476Y021360D01*
X032447Y021334D01*
X032415Y021310D01*
X032382Y021290D01*
X032346Y021273D01*
X032309Y021260D01*
X032271Y021251D01*
X032232Y021245D01*
X032193Y021243D01*
X032154Y021245D01*
X032115Y021251D01*
X032077Y021260D01*
X032040Y021273D01*
X032004Y021290D01*
X031971Y021310D01*
X031939Y021334D01*
X031910Y021360D01*
X031884Y021389D01*
X031860Y021421D01*
X031840Y021454D01*
X031823Y021490D01*
X031810Y021527D01*
X031801Y021565D01*
X031795Y021604D01*
X031793Y021643D01*
X031343Y021643D02*
X033043Y021643D01*
X033060Y021645D01*
X033077Y021649D01*
X033093Y021656D01*
X033107Y021666D01*
X033120Y021679D01*
X033130Y021693D01*
X033137Y021709D01*
X033141Y021726D01*
X033143Y021743D01*
X033143Y022543D01*
X033141Y022560D01*
X033137Y022577D01*
X033130Y022593D01*
X033120Y022607D01*
X033107Y022620D01*
X033093Y022630D01*
X033077Y022637D01*
X033060Y022641D01*
X033043Y022643D01*
X031343Y022643D01*
X031326Y022641D01*
X031309Y022637D01*
X031293Y022630D01*
X031279Y022620D01*
X031266Y022607D01*
X031256Y022593D01*
X031249Y022577D01*
X031245Y022560D01*
X031243Y022543D01*
X031243Y021743D01*
X031245Y021726D01*
X031249Y021709D01*
X031256Y021693D01*
X031266Y021679D01*
X031279Y021666D01*
X031293Y021656D01*
X031309Y021649D01*
X031326Y021645D01*
X031343Y021643D01*
X032043Y022143D02*
X032093Y022143D01*
X032293Y022143D02*
X032343Y022143D01*
X030193Y022493D02*
X030193Y020793D01*
X030191Y020776D01*
X030187Y020759D01*
X030180Y020743D01*
X030170Y020729D01*
X030157Y020716D01*
X030143Y020706D01*
X030127Y020699D01*
X030110Y020695D01*
X030093Y020693D01*
X029293Y020693D01*
X029276Y020695D01*
X029259Y020699D01*
X029243Y020706D01*
X029229Y020716D01*
X029216Y020729D01*
X029206Y020743D01*
X029199Y020759D01*
X029195Y020776D01*
X029193Y020793D01*
X029193Y022493D01*
X029195Y022510D01*
X029199Y022527D01*
X029206Y022543D01*
X029216Y022557D01*
X029229Y022570D01*
X029243Y022580D01*
X029259Y022587D01*
X029276Y022591D01*
X029293Y022593D01*
X030093Y022593D01*
X030110Y022591D01*
X030127Y022587D01*
X030143Y022580D01*
X030157Y022570D01*
X030170Y022557D01*
X030180Y022543D01*
X030187Y022527D01*
X030191Y022510D01*
X030193Y022493D01*
X029693Y021793D02*
X029693Y021743D01*
X029693Y021543D02*
X029693Y021493D01*
X027913Y019957D02*
X027913Y019811D01*
X027913Y019884D02*
X027473Y019884D01*
X027473Y019957D02*
X027473Y019811D01*
X027546Y019650D02*
X027473Y019577D01*
X027473Y019430D01*
X027546Y019357D01*
X027473Y019190D02*
X027473Y018896D01*
X027473Y019043D02*
X027913Y019043D01*
X027766Y019190D01*
X027840Y019357D02*
X027913Y019430D01*
X027913Y019577D01*
X027840Y019650D01*
X027546Y019650D01*
X027546Y018730D02*
X027840Y018436D01*
X027546Y018436D01*
X027473Y018509D01*
X027473Y018656D01*
X027546Y018730D01*
X027840Y018730D01*
X027913Y018656D01*
X027913Y018509D01*
X027840Y018436D01*
X026840Y020264D02*
X026546Y020264D01*
X026473Y021185D02*
X026913Y021185D01*
X032473Y018957D02*
X032473Y018811D01*
X032473Y018884D02*
X032913Y018884D01*
X032913Y018957D02*
X032913Y018811D01*
X032840Y018650D02*
X032546Y018650D01*
X032473Y018577D01*
X032473Y018430D01*
X032546Y018357D01*
X032473Y018190D02*
X032473Y017896D01*
X032473Y018043D02*
X032913Y018043D01*
X032766Y018190D01*
X032840Y018357D02*
X032913Y018430D01*
X032913Y018577D01*
X032840Y018650D01*
X032840Y017730D02*
X032913Y017656D01*
X032913Y017509D01*
X032840Y017436D01*
X032766Y017436D01*
X032473Y017730D01*
X032473Y017436D01*
X033043Y014643D02*
X031343Y014643D01*
X031326Y014641D01*
X031309Y014637D01*
X031293Y014630D01*
X031279Y014620D01*
X031266Y014607D01*
X031256Y014593D01*
X031249Y014577D01*
X031245Y014560D01*
X031243Y014543D01*
X031243Y013743D01*
X031245Y013726D01*
X031249Y013709D01*
X031256Y013693D01*
X031266Y013679D01*
X031279Y013666D01*
X031293Y013656D01*
X031309Y013649D01*
X031326Y013645D01*
X031343Y013643D01*
X033043Y013643D01*
X033060Y013645D01*
X033077Y013649D01*
X033093Y013656D01*
X033107Y013666D01*
X033120Y013679D01*
X033130Y013693D01*
X033137Y013709D01*
X033141Y013726D01*
X033143Y013743D01*
X033143Y014543D01*
X033141Y014560D01*
X033137Y014577D01*
X033130Y014593D01*
X033120Y014607D01*
X033107Y014620D01*
X033093Y014630D01*
X033077Y014637D01*
X033060Y014641D01*
X033043Y014643D01*
X032343Y014143D02*
X032293Y014143D01*
X032093Y014143D02*
X032043Y014143D01*
X031943Y013643D02*
X031443Y013643D01*
X031193Y013393D01*
X031193Y012893D01*
X031443Y012643D01*
X031193Y012393D01*
X031193Y011893D01*
X031443Y011643D01*
X031193Y011393D01*
X031193Y010893D01*
X031443Y010643D01*
X031193Y010393D01*
X031193Y009893D01*
X031443Y009643D01*
X031193Y009393D01*
X031193Y008893D01*
X031443Y008643D01*
X031193Y008393D01*
X031193Y007893D01*
X031443Y007643D01*
X031943Y007643D01*
X032193Y007893D01*
X032193Y008393D01*
X031943Y008643D01*
X031443Y008643D01*
X031943Y008643D01*
X032193Y008893D01*
X032193Y009393D01*
X031943Y009643D01*
X031443Y009643D01*
X031943Y009643D01*
X032193Y009893D01*
X032193Y010393D01*
X031943Y010643D01*
X031443Y010643D01*
X031943Y010643D01*
X032193Y010893D01*
X032193Y011393D01*
X031943Y011643D01*
X031443Y011643D01*
X031943Y011643D01*
X032193Y011893D01*
X032193Y012393D01*
X031943Y012643D01*
X031443Y012643D01*
X031943Y012643D01*
X032193Y012893D01*
X032193Y013393D01*
X031943Y013643D01*
X030193Y013643D02*
X030193Y014643D01*
X029943Y014393D01*
X030193Y014643D02*
X029193Y014643D01*
X029193Y013643D01*
X029193Y005643D01*
X030193Y005643D01*
X030193Y013643D01*
X029193Y013643D01*
X029443Y013893D01*
X029943Y013893D02*
X030193Y013643D01*
X029443Y014393D02*
X029193Y014643D01*
X026913Y013836D02*
X026913Y013542D01*
X026840Y013542D01*
X026546Y013836D01*
X026473Y013836D01*
X026693Y013376D02*
X026693Y013082D01*
X026473Y013155D02*
X026913Y013155D01*
X026693Y013376D01*
X026473Y012915D02*
X026473Y012622D01*
X026546Y012455D02*
X026473Y012381D01*
X026473Y012235D01*
X026546Y012161D01*
X026620Y012161D01*
X026693Y012235D01*
X026693Y012381D01*
X026766Y012455D01*
X026840Y012455D01*
X026913Y012381D01*
X026913Y012235D01*
X026840Y012161D01*
X026840Y011994D02*
X026913Y011921D01*
X026913Y011774D01*
X026840Y011701D01*
X026766Y011701D01*
X026473Y011994D01*
X026473Y011701D01*
X026693Y011534D02*
X026693Y011241D01*
X026546Y011074D02*
X026840Y010780D01*
X026546Y010780D01*
X026473Y010854D01*
X026473Y011000D01*
X026546Y011074D01*
X026840Y011074D01*
X026913Y011000D01*
X026913Y010854D01*
X026840Y010780D01*
X027473Y010690D02*
X027473Y010396D01*
X027473Y010543D02*
X027913Y010543D01*
X027766Y010690D01*
X027840Y010857D02*
X027913Y010930D01*
X027913Y011077D01*
X027840Y011150D01*
X027546Y011150D01*
X027473Y011077D01*
X027473Y010930D01*
X027546Y010857D01*
X027473Y011311D02*
X027473Y011457D01*
X027473Y011384D02*
X027913Y011384D01*
X027913Y011457D02*
X027913Y011311D01*
X026913Y011314D02*
X026693Y011534D01*
X026473Y011314D02*
X026913Y011314D01*
X026473Y010613D02*
X026913Y010320D01*
X026913Y010153D02*
X026693Y010153D01*
X026766Y010006D01*
X026766Y009933D01*
X026693Y009859D01*
X026546Y009859D01*
X026473Y009933D01*
X026473Y010080D01*
X026546Y010153D01*
X026913Y010153D02*
X026913Y009859D01*
X026913Y009693D02*
X026693Y009693D01*
X026766Y009546D01*
X026766Y009472D01*
X026693Y009399D01*
X026546Y009399D01*
X026473Y009472D01*
X026473Y009619D01*
X026546Y009693D01*
X026913Y009693D02*
X026913Y009399D01*
X026913Y009232D02*
X026693Y009232D01*
X026766Y009085D01*
X026766Y009012D01*
X026693Y008939D01*
X026546Y008939D01*
X026473Y009012D01*
X026473Y009159D01*
X026546Y009232D01*
X026913Y009232D02*
X026913Y008939D01*
X026766Y008772D02*
X026913Y008625D01*
X026766Y008478D01*
X026473Y008478D01*
X026473Y008311D02*
X026913Y008311D01*
X026913Y008091D01*
X026840Y008018D01*
X026693Y008018D01*
X026620Y008091D01*
X026620Y008311D01*
X026693Y008478D02*
X026693Y008772D01*
X026766Y008772D02*
X026473Y008772D01*
X026546Y007851D02*
X026473Y007778D01*
X026473Y007631D01*
X026546Y007557D01*
X026620Y007557D01*
X026693Y007631D01*
X026693Y007704D01*
X026693Y007631D02*
X026766Y007557D01*
X026840Y007557D01*
X026913Y007631D01*
X026913Y007778D01*
X026840Y007851D01*
X027473Y009936D02*
X027473Y010230D01*
X027473Y010083D02*
X027913Y010083D01*
X027766Y010230D01*
X024163Y012166D02*
X024090Y012313D01*
X023943Y012460D01*
X023943Y012240D01*
X023870Y012166D01*
X023796Y012166D01*
X023723Y012240D01*
X023723Y012386D01*
X023796Y012460D01*
X023943Y012460D01*
X023796Y012627D02*
X023723Y012700D01*
X023723Y012847D01*
X023796Y012920D01*
X024090Y012920D01*
X024163Y012847D01*
X024163Y012700D01*
X024090Y012627D01*
X024163Y013080D02*
X024163Y013227D01*
X024163Y013154D02*
X023723Y013154D01*
X023723Y013227D02*
X023723Y013080D01*
X023413Y013074D02*
X023413Y012854D01*
X023340Y012780D01*
X023193Y012780D01*
X023120Y012854D01*
X023120Y013074D01*
X023120Y012927D02*
X022973Y012780D01*
X023046Y012613D02*
X022973Y012540D01*
X022973Y012393D01*
X023046Y012320D01*
X023120Y012320D01*
X023193Y012393D01*
X023193Y012467D01*
X023193Y012393D02*
X023266Y012320D01*
X023340Y012320D01*
X023413Y012393D01*
X023413Y012540D01*
X023340Y012613D01*
X023413Y013074D02*
X022973Y013074D01*
X022413Y013074D02*
X022413Y012854D01*
X022340Y012780D01*
X022193Y012780D01*
X022120Y012854D01*
X022120Y013074D01*
X022120Y012927D02*
X021973Y012780D01*
X022046Y012613D02*
X022120Y012613D01*
X022193Y012540D01*
X022193Y012393D01*
X022120Y012320D01*
X022046Y012320D01*
X021973Y012393D01*
X021973Y012540D01*
X022046Y012613D01*
X022193Y012540D02*
X022266Y012613D01*
X022340Y012613D01*
X022413Y012540D01*
X022413Y012393D01*
X022340Y012320D01*
X022266Y012320D01*
X022193Y012393D01*
X021973Y013074D02*
X022413Y013074D01*
X022593Y013593D02*
X022593Y011693D01*
X022643Y011643D01*
X022643Y011493D01*
X022743Y011493D02*
X022743Y011643D01*
X022793Y011693D01*
X022793Y013593D01*
X022743Y013643D01*
X022743Y013793D01*
X022745Y013810D01*
X022749Y013827D01*
X022756Y013843D01*
X022766Y013857D01*
X022779Y013870D01*
X022793Y013880D01*
X022809Y013887D01*
X022826Y013891D01*
X022843Y013893D01*
X022643Y013793D02*
X022643Y013643D01*
X022593Y013593D01*
X022643Y013793D02*
X022641Y013810D01*
X022637Y013827D01*
X022630Y013843D01*
X022620Y013857D01*
X022607Y013870D01*
X022593Y013880D01*
X022577Y013887D01*
X022560Y013891D01*
X022543Y013893D01*
X021843Y013893D02*
X021826Y013891D01*
X021809Y013887D01*
X021793Y013880D01*
X021779Y013870D01*
X021766Y013857D01*
X021756Y013843D01*
X021749Y013827D01*
X021745Y013810D01*
X021743Y013793D01*
X021743Y013643D01*
X021793Y013593D01*
X021793Y011693D01*
X021743Y011643D01*
X021743Y011493D01*
X021745Y011476D01*
X021749Y011459D01*
X021756Y011443D01*
X021766Y011429D01*
X021779Y011416D01*
X021793Y011406D01*
X021809Y011399D01*
X021826Y011395D01*
X021843Y011393D01*
X021643Y011493D02*
X021643Y011643D01*
X021593Y011693D01*
X021593Y013593D01*
X021643Y013643D01*
X021643Y013793D01*
X021641Y013810D01*
X021637Y013827D01*
X021630Y013843D01*
X021620Y013857D01*
X021607Y013870D01*
X021593Y013880D01*
X021577Y013887D01*
X021560Y013891D01*
X021543Y013893D01*
X020843Y013893D02*
X020826Y013891D01*
X020809Y013887D01*
X020793Y013880D01*
X020779Y013870D01*
X020766Y013857D01*
X020756Y013843D01*
X020749Y013827D01*
X020745Y013810D01*
X020743Y013793D01*
X020743Y013643D01*
X020793Y013593D01*
X020793Y011693D01*
X020743Y011643D01*
X020743Y011493D01*
X020745Y011476D01*
X020749Y011459D01*
X020756Y011443D01*
X020766Y011429D01*
X020779Y011416D01*
X020793Y011406D01*
X020809Y011399D01*
X020826Y011395D01*
X020843Y011393D01*
X020643Y011493D02*
X020643Y011643D01*
X020593Y011693D01*
X020593Y013593D01*
X020643Y013643D01*
X020643Y013793D01*
X020641Y013810D01*
X020637Y013827D01*
X020630Y013843D01*
X020620Y013857D01*
X020607Y013870D01*
X020593Y013880D01*
X020577Y013887D01*
X020560Y013891D01*
X020543Y013893D01*
X019843Y013893D02*
X019826Y013891D01*
X019809Y013887D01*
X019793Y013880D01*
X019779Y013870D01*
X019766Y013857D01*
X019756Y013843D01*
X019749Y013827D01*
X019745Y013810D01*
X019743Y013793D01*
X019743Y013643D01*
X019793Y013593D01*
X019793Y011693D01*
X019743Y011643D01*
X019743Y011493D01*
X019745Y011476D01*
X019749Y011459D01*
X019756Y011443D01*
X019766Y011429D01*
X019779Y011416D01*
X019793Y011406D01*
X019809Y011399D01*
X019826Y011395D01*
X019843Y011393D01*
X019663Y011389D02*
X019663Y011242D01*
X019590Y011169D01*
X019516Y011169D01*
X019443Y011242D01*
X019370Y011169D01*
X019296Y011169D01*
X019223Y011242D01*
X019223Y011389D01*
X019296Y011462D01*
X019443Y011316D02*
X019443Y011242D01*
X019443Y011002D02*
X019443Y010708D01*
X019370Y010542D02*
X019443Y010468D01*
X019443Y010321D01*
X019370Y010248D01*
X019296Y010248D01*
X019223Y010321D01*
X019223Y010468D01*
X019296Y010542D01*
X019370Y010542D01*
X019443Y010468D02*
X019516Y010542D01*
X019590Y010542D01*
X019663Y010468D01*
X019663Y010321D01*
X019590Y010248D01*
X019516Y010248D01*
X019443Y010321D01*
X019516Y010081D02*
X019443Y010008D01*
X019443Y009788D01*
X019296Y009788D02*
X019590Y009788D01*
X019663Y009861D01*
X019663Y010008D01*
X019590Y010081D01*
X019516Y010081D01*
X019296Y010081D02*
X019223Y010008D01*
X019223Y009861D01*
X019296Y009788D01*
X019223Y009621D02*
X019223Y009327D01*
X019223Y009474D02*
X019663Y009474D01*
X019516Y009621D01*
X019590Y009160D02*
X019663Y009087D01*
X019663Y008940D01*
X019590Y008867D01*
X019516Y008867D01*
X019223Y009160D01*
X019223Y008867D01*
X020543Y009643D02*
X021293Y009643D01*
X021295Y009604D01*
X021301Y009565D01*
X021310Y009527D01*
X021323Y009490D01*
X021340Y009454D01*
X021360Y009421D01*
X021384Y009389D01*
X021410Y009360D01*
X021439Y009334D01*
X021471Y009310D01*
X021504Y009290D01*
X021540Y009273D01*
X021577Y009260D01*
X021615Y009251D01*
X021654Y009245D01*
X021693Y009243D01*
X021732Y009245D01*
X021771Y009251D01*
X021809Y009260D01*
X021846Y009273D01*
X021882Y009290D01*
X021915Y009310D01*
X021947Y009334D01*
X021976Y009360D01*
X022002Y009389D01*
X022026Y009421D01*
X022046Y009454D01*
X022063Y009490D01*
X022076Y009527D01*
X022085Y009565D01*
X022091Y009604D01*
X022093Y009643D01*
X022843Y009643D01*
X022843Y002643D01*
X020543Y002643D01*
X020543Y009643D01*
X020743Y009743D02*
X020743Y010543D01*
X020745Y010560D01*
X020749Y010577D01*
X020756Y010593D01*
X020766Y010607D01*
X020779Y010620D01*
X020793Y010630D01*
X020809Y010637D01*
X020826Y010641D01*
X020843Y010643D01*
X022543Y010643D01*
X022560Y010641D01*
X022577Y010637D01*
X022593Y010630D01*
X022607Y010620D01*
X022620Y010607D01*
X022630Y010593D01*
X022637Y010577D01*
X022641Y010560D01*
X022643Y010543D01*
X022643Y009743D01*
X022641Y009726D01*
X022637Y009709D01*
X022630Y009693D01*
X022620Y009679D01*
X022607Y009666D01*
X022593Y009656D01*
X022577Y009649D01*
X022560Y009645D01*
X022543Y009643D01*
X020843Y009643D01*
X020826Y009645D01*
X020809Y009649D01*
X020793Y009656D01*
X020779Y009666D01*
X020766Y009679D01*
X020756Y009693D01*
X020749Y009709D01*
X020745Y009726D01*
X020743Y009743D01*
X020973Y009106D02*
X021046Y009106D01*
X021340Y008812D01*
X021413Y008812D01*
X021413Y009106D01*
X021193Y008645D02*
X021193Y008352D01*
X020973Y008425D02*
X021413Y008425D01*
X021193Y008645D01*
X020973Y008185D02*
X020973Y007891D01*
X021046Y007725D02*
X020973Y007651D01*
X020973Y007504D01*
X021046Y007431D01*
X021120Y007431D01*
X021193Y007504D01*
X021193Y007651D01*
X021266Y007725D01*
X021340Y007725D01*
X021413Y007651D01*
X021413Y007504D01*
X021340Y007431D01*
X021413Y007264D02*
X021413Y006971D01*
X021340Y006971D01*
X021046Y007264D01*
X020973Y007264D01*
X021193Y006804D02*
X021193Y006510D01*
X020973Y006584D02*
X021413Y006584D01*
X021193Y006804D01*
X020973Y006344D02*
X021413Y006050D01*
X021413Y005883D02*
X021193Y005883D01*
X021266Y005736D01*
X021266Y005663D01*
X021193Y005590D01*
X021046Y005590D01*
X020973Y005663D01*
X020973Y005810D01*
X021046Y005883D01*
X021413Y005883D02*
X021413Y005590D01*
X021413Y005423D02*
X021193Y005423D01*
X021266Y005276D01*
X021266Y005203D01*
X021193Y005129D01*
X021046Y005129D01*
X020973Y005203D01*
X020973Y005349D01*
X021046Y005423D01*
X021413Y005423D02*
X021413Y005129D01*
X021413Y004962D02*
X021193Y004962D01*
X021266Y004816D01*
X021266Y004742D01*
X021193Y004669D01*
X021046Y004669D01*
X020973Y004742D01*
X020973Y004889D01*
X021046Y004962D01*
X021413Y004962D02*
X021413Y004669D01*
X021413Y004502D02*
X021413Y004208D01*
X021413Y004355D02*
X020973Y004355D01*
X020973Y004042D02*
X021413Y004042D01*
X021266Y003895D01*
X021413Y003748D01*
X020973Y003748D01*
X020973Y003581D02*
X021266Y003288D01*
X021340Y003288D01*
X021413Y003361D01*
X021413Y003508D01*
X021340Y003581D01*
X020973Y003581D02*
X020973Y003288D01*
X022340Y005666D02*
X022046Y005960D01*
X021973Y005960D01*
X022046Y006127D02*
X021973Y006200D01*
X021973Y006347D01*
X022046Y006420D01*
X022340Y006420D01*
X022413Y006347D01*
X022413Y006200D01*
X022340Y006127D01*
X022413Y005960D02*
X022413Y005666D01*
X022340Y005666D01*
X022413Y006580D02*
X022413Y006727D01*
X022413Y006654D02*
X021973Y006654D01*
X021973Y006727D02*
X021973Y006580D01*
X021413Y008185D02*
X020973Y008185D01*
X021543Y010143D02*
X021593Y010143D01*
X021793Y010143D02*
X021843Y010143D01*
X021543Y011393D02*
X021560Y011395D01*
X021577Y011399D01*
X021593Y011406D01*
X021607Y011416D01*
X021620Y011429D01*
X021630Y011443D01*
X021637Y011459D01*
X021641Y011476D01*
X021643Y011493D01*
X022543Y011393D02*
X022560Y011395D01*
X022577Y011399D01*
X022593Y011406D01*
X022607Y011416D01*
X022620Y011429D01*
X022630Y011443D01*
X022637Y011459D01*
X022641Y011476D01*
X022643Y011493D01*
X022743Y011493D02*
X022745Y011476D01*
X022749Y011459D01*
X022756Y011443D01*
X022766Y011429D01*
X022779Y011416D01*
X022793Y011406D01*
X022809Y011399D01*
X022826Y011395D01*
X022843Y011393D01*
X023543Y011393D02*
X023560Y011395D01*
X023577Y011399D01*
X023593Y011406D01*
X023607Y011416D01*
X023620Y011429D01*
X023630Y011443D01*
X023637Y011459D01*
X023641Y011476D01*
X023643Y011493D01*
X023643Y011643D01*
X023593Y011693D01*
X023593Y013593D01*
X023643Y013643D01*
X023643Y013793D01*
X023641Y013810D01*
X023637Y013827D01*
X023630Y013843D01*
X023620Y013857D01*
X023607Y013870D01*
X023593Y013880D01*
X023577Y013887D01*
X023560Y013891D01*
X023543Y013893D01*
X021413Y013074D02*
X021413Y012854D01*
X021340Y012780D01*
X021193Y012780D01*
X021120Y012854D01*
X021120Y013074D01*
X021120Y012927D02*
X020973Y012780D01*
X020973Y012613D02*
X021046Y012613D01*
X021340Y012320D01*
X021413Y012320D01*
X021413Y012613D01*
X021413Y013074D02*
X020973Y013074D01*
X020413Y013074D02*
X020413Y012854D01*
X020340Y012780D01*
X020193Y012780D01*
X020120Y012854D01*
X020120Y013074D01*
X020120Y012927D02*
X019973Y012780D01*
X019973Y012613D02*
X020266Y012320D01*
X020340Y012320D01*
X020413Y012393D01*
X020413Y012540D01*
X020340Y012613D01*
X019973Y012613D02*
X019973Y012320D01*
X019663Y012383D02*
X019590Y012383D01*
X019443Y012236D01*
X019223Y012236D01*
X019443Y012236D02*
X019590Y012090D01*
X019663Y012090D01*
X019443Y011923D02*
X019443Y011629D01*
X019590Y011462D02*
X019663Y011389D01*
X020543Y011393D02*
X020560Y011395D01*
X020577Y011399D01*
X020593Y011406D01*
X020607Y011416D01*
X020620Y011429D01*
X020630Y011443D01*
X020637Y011459D01*
X020641Y011476D01*
X020643Y011493D01*
X020413Y013074D02*
X019973Y013074D01*
X019443Y013618D02*
X019443Y013764D01*
X026473Y012915D02*
X026913Y012915D01*
X031443Y007643D02*
X031193Y007393D01*
X031193Y006893D01*
X031443Y006643D01*
X031943Y006643D01*
X032193Y006893D01*
X032193Y007393D01*
X031943Y007643D01*
X031443Y007643D01*
X031443Y006643D02*
X031193Y006393D01*
X031193Y005893D01*
X031443Y005643D01*
X031943Y005643D01*
X032193Y005893D01*
X032193Y006393D01*
X031943Y006643D01*
X031443Y006643D01*
X030943Y004643D02*
X030443Y004643D01*
X030193Y004393D01*
X030193Y002893D01*
X030443Y002643D01*
X030943Y002643D01*
X031193Y002893D01*
X031193Y004393D01*
X030943Y004643D01*
X030193Y004393D02*
X029943Y004643D01*
X029443Y004643D01*
X029193Y004393D01*
X029193Y002893D01*
X029443Y002643D01*
X029943Y002643D01*
X030193Y002893D01*
X029193Y002893D02*
X028943Y002643D01*
X028443Y002643D01*
X028193Y002893D01*
X028193Y004393D01*
X028443Y004643D01*
X028943Y004643D01*
X029193Y004393D01*
X029247Y004923D02*
X028953Y004923D01*
X029100Y004923D02*
X029100Y005364D01*
X028953Y005217D01*
X028786Y005290D02*
X028786Y005143D01*
X028713Y005070D01*
X028493Y005070D01*
X028493Y004923D02*
X028493Y005364D01*
X028713Y005364D01*
X028786Y005290D01*
X028326Y005364D02*
X028179Y005364D01*
X028252Y005364D02*
X028252Y004997D01*
X028179Y004923D01*
X028106Y004923D01*
X028032Y004997D01*
X027943Y004643D02*
X028193Y004393D01*
X027943Y004643D02*
X027443Y004643D01*
X027193Y004393D01*
X027193Y002893D01*
X027443Y002643D01*
X027943Y002643D01*
X028193Y002893D01*
X027193Y002893D02*
X026943Y002643D01*
X026443Y002643D01*
X026193Y002893D01*
X026193Y004393D01*
X026443Y004643D01*
X026943Y004643D01*
X027193Y004393D01*
X014913Y006740D02*
X014840Y006666D01*
X014766Y006666D01*
X014693Y006740D01*
X014693Y006886D01*
X014766Y006960D01*
X014840Y006960D01*
X014913Y006886D01*
X014913Y006740D01*
X014693Y006740D02*
X014620Y006666D01*
X014546Y006666D01*
X014473Y006740D01*
X014473Y006886D01*
X014546Y006960D01*
X014620Y006960D01*
X014693Y006886D01*
X014546Y007127D02*
X014473Y007200D01*
X014473Y007347D01*
X014546Y007420D01*
X014840Y007420D01*
X014913Y007347D01*
X014913Y007200D01*
X014840Y007127D01*
X014913Y007580D02*
X014913Y007727D01*
X014913Y007654D02*
X014473Y007654D01*
X014473Y007727D02*
X014473Y007580D01*
X008913Y009240D02*
X008840Y009166D01*
X008766Y009166D01*
X008693Y009240D01*
X008620Y009166D01*
X008546Y009166D01*
X008473Y009240D01*
X008473Y009386D01*
X008546Y009460D01*
X008546Y009627D02*
X008473Y009700D01*
X008473Y009847D01*
X008546Y009920D01*
X008840Y009920D01*
X008913Y009847D01*
X008913Y009700D01*
X008840Y009627D01*
X008840Y009460D02*
X008913Y009386D01*
X008913Y009240D01*
X008693Y009240D02*
X008693Y009313D01*
X008473Y010080D02*
X008473Y010227D01*
X008473Y010154D02*
X008913Y010154D01*
X008913Y010227D02*
X008913Y010080D01*
X007913Y011915D02*
X007473Y011915D01*
X008473Y017666D02*
X008473Y017960D01*
X008766Y017666D01*
X008840Y017666D01*
X008913Y017740D01*
X008913Y017886D01*
X008840Y017960D01*
X008840Y018127D02*
X008913Y018200D01*
X008913Y018347D01*
X008840Y018420D01*
X008546Y018420D01*
X008473Y018347D01*
X008473Y018200D01*
X008546Y018127D01*
X008473Y018580D02*
X008473Y018727D01*
X008473Y018654D02*
X008913Y018654D01*
X008913Y018727D02*
X008913Y018580D01*
X007840Y019264D02*
X007546Y019264D01*
X007473Y020185D02*
X007913Y020185D01*
X008043Y022143D02*
X008093Y022143D01*
X008293Y022143D02*
X008343Y022143D01*
D12*
X006958Y022202D02*
X006725Y021968D01*
X006958Y021968D01*
X006958Y022202D02*
X006958Y022260D01*
X006900Y022319D01*
X006783Y022319D01*
X006725Y022260D01*
X006590Y022260D02*
X006531Y022319D01*
X006415Y022319D01*
X006356Y022260D01*
X006356Y022027D01*
X006415Y021968D01*
X006531Y021968D01*
X006590Y022027D01*
X003070Y022027D02*
X003011Y021968D01*
X002895Y021968D01*
X002836Y022027D01*
X002836Y022143D02*
X002953Y022202D01*
X003011Y022202D01*
X003070Y022143D01*
X003070Y022027D01*
X002836Y022143D02*
X002836Y022319D01*
X003070Y022319D01*
X002701Y022260D02*
X002643Y022319D01*
X002526Y022319D01*
X002468Y022260D01*
X002468Y022027D01*
X002526Y021968D01*
X002643Y021968D01*
X002701Y022027D01*
X012481Y021260D02*
X012481Y021027D01*
X012540Y020968D01*
X012656Y020968D01*
X012715Y021027D01*
X012850Y021027D02*
X012908Y020968D01*
X013025Y020968D01*
X013083Y021027D01*
X013083Y021260D01*
X013025Y021319D01*
X012908Y021319D01*
X012850Y021260D01*
X012850Y021202D01*
X012908Y021143D01*
X013083Y021143D01*
X012715Y021260D02*
X012656Y021319D01*
X012540Y021319D01*
X012481Y021260D01*
X019193Y019540D02*
X019193Y019423D01*
X019251Y019365D01*
X019193Y019230D02*
X019193Y018996D01*
X019193Y019113D02*
X019543Y019113D01*
X019426Y019230D01*
X019485Y019365D02*
X019543Y019423D01*
X019543Y019540D01*
X019485Y019598D01*
X019251Y019598D01*
X019193Y019540D01*
X019368Y018862D02*
X019368Y018628D01*
X019193Y018686D02*
X019543Y018686D01*
X019368Y018862D01*
X023843Y018823D02*
X023843Y018707D01*
X023901Y018648D01*
X023960Y018648D01*
X024018Y018707D01*
X024018Y018765D01*
X024018Y018707D02*
X024076Y018648D01*
X024135Y018648D01*
X024193Y018707D01*
X024193Y018823D01*
X024135Y018882D01*
X023901Y018882D02*
X023843Y018823D01*
X023843Y019016D02*
X023843Y019250D01*
X023843Y019133D02*
X024193Y019133D01*
X024076Y019250D01*
X024135Y019385D02*
X024193Y019443D01*
X024193Y019560D01*
X024135Y019618D01*
X023901Y019618D01*
X023843Y019560D01*
X023843Y019443D01*
X023901Y019385D01*
X029468Y019634D02*
X029468Y019751D01*
X029526Y019809D01*
X029760Y019576D01*
X029526Y019576D01*
X029468Y019634D01*
X029526Y019809D02*
X029760Y019809D01*
X029818Y019751D01*
X029818Y019634D01*
X029760Y019576D01*
X029468Y019944D02*
X029468Y020177D01*
X029468Y020061D02*
X029818Y020061D01*
X029701Y020177D01*
X029760Y020312D02*
X029818Y020371D01*
X029818Y020487D01*
X029760Y020546D01*
X029526Y020546D01*
X029468Y020487D01*
X029468Y020371D01*
X029526Y020312D01*
X029526Y018796D02*
X029468Y018737D01*
X029468Y018621D01*
X029526Y018562D01*
X029468Y018427D02*
X029468Y018194D01*
X029468Y018311D02*
X029818Y018311D01*
X029701Y018427D01*
X029760Y018562D02*
X029818Y018621D01*
X029818Y018737D01*
X029760Y018796D01*
X029526Y018796D01*
X029468Y018059D02*
X029468Y017826D01*
X029468Y017942D02*
X029818Y017942D01*
X029701Y018059D01*
X029586Y015319D02*
X029820Y014968D01*
X029820Y015319D01*
X029954Y015202D02*
X030071Y015319D01*
X030071Y014968D01*
X029954Y014968D02*
X030188Y014968D01*
X029586Y014968D02*
X029586Y015319D01*
X029451Y015260D02*
X029451Y015143D01*
X029393Y015085D01*
X029218Y015085D01*
X029335Y015085D02*
X029451Y014968D01*
X029218Y014968D02*
X029218Y015319D01*
X029393Y015319D01*
X029451Y015260D01*
X032468Y013233D02*
X032468Y013188D01*
X032513Y013143D01*
X032603Y013143D01*
X032648Y013098D01*
X032648Y013053D01*
X032603Y013008D01*
X032513Y013008D01*
X032468Y013053D01*
X032468Y013098D01*
X032513Y013143D01*
X032603Y013143D02*
X032648Y013188D01*
X032648Y013233D01*
X032603Y013279D01*
X032513Y013279D01*
X032468Y013233D01*
X032762Y013279D02*
X032762Y013008D01*
X032898Y013008D01*
X032943Y013053D01*
X032943Y013233D01*
X032898Y013279D01*
X032762Y013279D01*
X033057Y013279D02*
X033192Y013279D01*
X033237Y013233D01*
X033237Y013053D01*
X033192Y013008D01*
X033057Y013008D01*
X033057Y013279D01*
X033352Y013279D02*
X033352Y013143D01*
X033442Y013188D01*
X033487Y013188D01*
X033532Y013143D01*
X033532Y013053D01*
X033487Y013008D01*
X033397Y013008D01*
X033352Y013053D01*
X033352Y013279D02*
X033532Y013279D01*
X033518Y013968D02*
X033401Y013968D01*
X033343Y014027D01*
X033343Y014260D01*
X033401Y014319D01*
X033518Y014319D01*
X033576Y014260D01*
X033711Y014202D02*
X033828Y014319D01*
X033828Y013968D01*
X033711Y013968D02*
X033945Y013968D01*
X033576Y014027D02*
X033518Y013968D01*
X033487Y012279D02*
X033352Y012143D01*
X033532Y012143D01*
X033646Y012188D02*
X033737Y012279D01*
X033737Y012008D01*
X033827Y012008D02*
X033646Y012008D01*
X033487Y012008D02*
X033487Y012279D01*
X033237Y012233D02*
X033192Y012279D01*
X033057Y012279D01*
X033057Y012008D01*
X033192Y012008D01*
X033237Y012053D01*
X033237Y012233D01*
X032943Y012233D02*
X032898Y012279D01*
X032762Y012279D01*
X032762Y012008D01*
X032898Y012008D01*
X032943Y012053D01*
X032943Y012233D01*
X032648Y012233D02*
X032603Y012279D01*
X032513Y012279D01*
X032468Y012233D01*
X032468Y012188D01*
X032513Y012143D01*
X032648Y012143D01*
X032648Y012053D02*
X032648Y012233D01*
X032648Y012053D02*
X032603Y012008D01*
X032513Y012008D01*
X032468Y012053D01*
X032513Y011279D02*
X032603Y011279D01*
X032648Y011233D01*
X032648Y011188D01*
X032603Y011143D01*
X032513Y011143D01*
X032468Y011188D01*
X032468Y011233D01*
X032513Y011279D01*
X032513Y011143D02*
X032468Y011098D01*
X032468Y011053D01*
X032513Y011008D01*
X032603Y011008D01*
X032648Y011053D01*
X032648Y011098D01*
X032603Y011143D01*
X032762Y011008D02*
X032898Y011008D01*
X032943Y011053D01*
X032943Y011233D01*
X032898Y011279D01*
X032762Y011279D01*
X032762Y011008D01*
X033057Y011008D02*
X033192Y011008D01*
X033237Y011053D01*
X033237Y011233D01*
X033192Y011279D01*
X033057Y011279D01*
X033057Y011008D01*
X033352Y011008D02*
X033532Y011008D01*
X033442Y011008D02*
X033442Y011279D01*
X033352Y011188D01*
X033646Y011143D02*
X033827Y011143D01*
X033782Y011008D02*
X033782Y011279D01*
X033646Y011143D01*
X033737Y010279D02*
X033737Y010008D01*
X033827Y010008D02*
X033646Y010008D01*
X033532Y010008D02*
X033352Y010008D01*
X033442Y010008D02*
X033442Y010279D01*
X033352Y010188D01*
X033237Y010233D02*
X033192Y010279D01*
X033057Y010279D01*
X033057Y010008D01*
X033192Y010008D01*
X033237Y010053D01*
X033237Y010233D01*
X032943Y010233D02*
X032898Y010279D01*
X032762Y010279D01*
X032762Y010008D01*
X032898Y010008D01*
X032943Y010053D01*
X032943Y010233D01*
X032648Y010233D02*
X032603Y010279D01*
X032513Y010279D01*
X032468Y010233D01*
X032558Y010143D02*
X032603Y010143D01*
X032648Y010098D01*
X032648Y010053D01*
X032603Y010008D01*
X032513Y010008D01*
X032468Y010053D01*
X032603Y010143D02*
X032648Y010188D01*
X032648Y010233D01*
X032648Y009279D02*
X032558Y009233D01*
X032468Y009143D01*
X032603Y009143D01*
X032648Y009098D01*
X032648Y009053D01*
X032603Y009008D01*
X032513Y009008D01*
X032468Y009053D01*
X032468Y009143D01*
X032762Y009279D02*
X032762Y009008D01*
X032898Y009008D01*
X032943Y009053D01*
X032943Y009233D01*
X032898Y009279D01*
X032762Y009279D01*
X033057Y009279D02*
X033192Y009279D01*
X033237Y009233D01*
X033237Y009053D01*
X033192Y009008D01*
X033057Y009008D01*
X033057Y009279D01*
X033352Y009188D02*
X033442Y009279D01*
X033442Y009008D01*
X033352Y009008D02*
X033532Y009008D01*
X033646Y009008D02*
X033827Y009008D01*
X033737Y009008D02*
X033737Y009279D01*
X033646Y009188D01*
X033737Y008279D02*
X033737Y008008D01*
X033827Y008008D02*
X033646Y008008D01*
X033532Y008008D02*
X033352Y008008D01*
X033442Y008008D02*
X033442Y008279D01*
X033352Y008188D01*
X033237Y008233D02*
X033237Y008053D01*
X033192Y008008D01*
X033057Y008008D01*
X033057Y008279D01*
X033192Y008279D01*
X033237Y008233D01*
X032943Y008233D02*
X032943Y008053D01*
X032898Y008008D01*
X032762Y008008D01*
X032762Y008279D01*
X032898Y008279D01*
X032943Y008233D01*
X032648Y008233D02*
X032468Y008053D01*
X032468Y008008D01*
X032468Y008279D02*
X032648Y008279D01*
X032648Y008233D01*
X033646Y008188D02*
X033737Y008279D01*
X033737Y007279D02*
X033646Y007279D01*
X033691Y007279D02*
X033691Y007008D01*
X033646Y007008D02*
X033737Y007008D01*
X033843Y007008D02*
X033843Y007279D01*
X034023Y007008D01*
X034023Y007279D01*
X033532Y007233D02*
X033532Y007143D01*
X033487Y007098D01*
X033352Y007098D01*
X033352Y007008D02*
X033352Y007279D01*
X033487Y007279D01*
X033532Y007233D01*
X033237Y006963D02*
X033057Y006963D01*
X032943Y007053D02*
X032898Y007008D01*
X032808Y007008D01*
X032762Y007053D01*
X032648Y007053D02*
X032603Y007008D01*
X032513Y007008D01*
X032468Y007053D01*
X032468Y007233D01*
X032513Y007279D01*
X032603Y007279D01*
X032648Y007233D01*
X032762Y007233D02*
X032808Y007279D01*
X032898Y007279D01*
X032943Y007233D01*
X032943Y007188D01*
X032898Y007143D01*
X032943Y007098D01*
X032943Y007053D01*
X032898Y007143D02*
X032853Y007143D01*
X032898Y006279D02*
X032943Y006233D01*
X032943Y006188D01*
X032898Y006143D01*
X032943Y006098D01*
X032943Y006053D01*
X032898Y006008D01*
X032808Y006008D01*
X032762Y006053D01*
X032648Y006053D02*
X032603Y006008D01*
X032513Y006008D01*
X032468Y006053D01*
X032468Y006233D01*
X032513Y006279D01*
X032603Y006279D01*
X032648Y006233D01*
X032762Y006233D02*
X032808Y006279D01*
X032898Y006279D01*
X032898Y006143D02*
X032853Y006143D01*
X033057Y005963D02*
X033237Y005963D01*
X033352Y006098D02*
X033442Y006008D01*
X033532Y006098D01*
X033532Y006279D01*
X033646Y006279D02*
X033737Y006279D01*
X033691Y006279D02*
X033691Y006008D01*
X033646Y006008D02*
X033737Y006008D01*
X033843Y006008D02*
X033843Y006188D01*
X033933Y006279D01*
X034023Y006188D01*
X034023Y006008D01*
X034023Y006143D02*
X033843Y006143D01*
X033352Y006098D02*
X033352Y006279D01*
X033646Y010188D02*
X033737Y010279D01*
X020583Y010260D02*
X020350Y010027D01*
X020350Y009968D01*
X020215Y010027D02*
X020156Y009968D01*
X020040Y009968D01*
X019981Y010027D01*
X019981Y010260D01*
X020040Y010319D01*
X020156Y010319D01*
X020215Y010260D01*
X020350Y010319D02*
X020583Y010319D01*
X020583Y010260D01*
X013083Y011027D02*
X013025Y010968D01*
X012908Y010968D01*
X012850Y011027D01*
X012850Y011085D01*
X012908Y011143D01*
X013025Y011143D01*
X013083Y011085D01*
X013083Y011027D01*
X013025Y011143D02*
X013083Y011202D01*
X013083Y011260D01*
X013025Y011319D01*
X012908Y011319D01*
X012850Y011260D01*
X012850Y011202D01*
X012908Y011143D01*
X012715Y011027D02*
X012656Y010968D01*
X012540Y010968D01*
X012481Y011027D01*
X012481Y011260D01*
X012540Y011319D01*
X012656Y011319D01*
X012715Y011260D01*
X007083Y014027D02*
X007025Y013968D01*
X006908Y013968D01*
X006850Y014027D01*
X006715Y014027D02*
X006656Y013968D01*
X006540Y013968D01*
X006481Y014027D01*
X006481Y014260D01*
X006540Y014319D01*
X006656Y014319D01*
X006715Y014260D01*
X006850Y014260D02*
X006908Y014319D01*
X007025Y014319D01*
X007083Y014260D01*
X007083Y014202D01*
X007025Y014143D01*
X007083Y014085D01*
X007083Y014027D01*
X007025Y014143D02*
X006966Y014143D01*
X003083Y014143D02*
X002850Y014143D01*
X003025Y014319D01*
X003025Y013968D01*
X002715Y014027D02*
X002656Y013968D01*
X002540Y013968D01*
X002481Y014027D01*
X002481Y014260D01*
X002540Y014319D01*
X002656Y014319D01*
X002715Y014260D01*
X003193Y004368D02*
X003193Y004188D01*
X003328Y004233D02*
X003193Y004368D01*
X003058Y004233D02*
X003328Y004233D01*
X003328Y004074D02*
X003058Y004074D01*
X003058Y003939D01*
X003103Y003894D01*
X003283Y003894D01*
X003328Y003939D01*
X003328Y004074D01*
X003328Y003779D02*
X003058Y003779D01*
X003058Y003644D01*
X003103Y003599D01*
X003283Y003599D01*
X003328Y003644D01*
X003328Y003779D01*
X003283Y003484D02*
X003328Y003439D01*
X003328Y003349D01*
X003283Y003304D01*
X003238Y003304D01*
X003058Y003484D01*
X003058Y003304D01*
X003103Y003190D02*
X003058Y003145D01*
X003058Y003055D01*
X003103Y003010D01*
X003148Y003010D01*
X003193Y003055D01*
X003193Y003100D01*
X003193Y003055D02*
X003238Y003010D01*
X003283Y003010D01*
X003328Y003055D01*
X003328Y003145D01*
X003283Y003190D01*
X004058Y003145D02*
X004058Y003055D01*
X004103Y003010D01*
X004148Y003010D01*
X004193Y003055D01*
X004193Y003100D01*
X004193Y003055D02*
X004238Y003010D01*
X004283Y003010D01*
X004328Y003055D01*
X004328Y003145D01*
X004283Y003190D01*
X004283Y003304D02*
X004328Y003349D01*
X004328Y003439D01*
X004283Y003484D01*
X004283Y003599D02*
X004103Y003599D01*
X004058Y003644D01*
X004058Y003779D01*
X004328Y003779D01*
X004328Y003644D01*
X004283Y003599D01*
X004058Y003484D02*
X004238Y003304D01*
X004283Y003304D01*
X004103Y003190D02*
X004058Y003145D01*
X004058Y003304D02*
X004058Y003484D01*
X004103Y003894D02*
X004283Y003894D01*
X004328Y003939D01*
X004328Y004074D01*
X004058Y004074D01*
X004058Y003939D01*
X004103Y003894D01*
X004103Y004188D02*
X004148Y004188D01*
X004193Y004233D01*
X004193Y004368D01*
X004103Y004368D01*
X004058Y004323D01*
X004058Y004233D01*
X004103Y004188D01*
X004283Y004278D02*
X004193Y004368D01*
X004283Y004278D02*
X004328Y004188D01*
X005058Y004188D02*
X005058Y004368D01*
X005058Y004278D02*
X005328Y004278D01*
X005238Y004368D01*
X005283Y004074D02*
X005328Y004029D01*
X005328Y003939D01*
X005283Y003894D01*
X005238Y003894D01*
X005058Y004074D01*
X005058Y003894D01*
X005058Y003779D02*
X005058Y003644D01*
X005103Y003599D01*
X005283Y003599D01*
X005328Y003644D01*
X005328Y003779D01*
X005058Y003779D01*
X005058Y003484D02*
X005058Y003349D01*
X005103Y003304D01*
X005283Y003304D01*
X005328Y003349D01*
X005328Y003484D01*
X005058Y003484D01*
X005058Y003190D02*
X005238Y003010D01*
X005283Y003010D01*
X005328Y003055D01*
X005328Y003145D01*
X005283Y003190D01*
X005058Y003190D02*
X005058Y003010D01*
X005103Y002895D02*
X005058Y002850D01*
X005058Y002760D01*
X005103Y002715D01*
X005148Y002715D01*
X005193Y002760D01*
X005193Y002805D01*
X005193Y002760D02*
X005238Y002715D01*
X005283Y002715D01*
X005328Y002760D01*
X005328Y002850D01*
X005283Y002895D01*
X006058Y003484D02*
X006103Y003484D01*
X006283Y003304D01*
X006328Y003304D01*
X006328Y003484D01*
X006283Y003599D02*
X006103Y003599D01*
X006058Y003644D01*
X006058Y003779D01*
X006328Y003779D01*
X006328Y003644D01*
X006283Y003599D01*
X006283Y003894D02*
X006103Y003894D01*
X006058Y003939D01*
X006058Y004074D01*
X006328Y004074D01*
X006328Y003939D01*
X006283Y003894D01*
X006283Y004188D02*
X006238Y004188D01*
X006193Y004233D01*
X006193Y004323D01*
X006238Y004368D01*
X006283Y004368D01*
X006328Y004323D01*
X006328Y004233D01*
X006283Y004188D01*
X006193Y004233D02*
X006148Y004188D01*
X006103Y004188D01*
X006058Y004233D01*
X006058Y004323D01*
X006103Y004368D01*
X006148Y004368D01*
X006193Y004323D01*
X007058Y004368D02*
X007328Y004368D01*
X007238Y004278D01*
X007328Y004188D01*
X007058Y004188D01*
X007058Y004074D02*
X007238Y004074D01*
X007328Y003984D01*
X007238Y003894D01*
X007058Y003894D01*
X007103Y003779D02*
X007148Y003779D01*
X007193Y003734D01*
X007193Y003644D01*
X007148Y003599D01*
X007103Y003599D01*
X007058Y003644D01*
X007058Y003734D01*
X007103Y003779D01*
X007193Y003734D02*
X007238Y003779D01*
X007283Y003779D01*
X007328Y003734D01*
X007328Y003644D01*
X007283Y003599D01*
X007238Y003599D01*
X007193Y003644D01*
X007193Y003894D02*
X007193Y004074D01*
X008058Y004029D02*
X008058Y003939D01*
X008103Y003894D01*
X008283Y003894D01*
X008328Y003939D01*
X008328Y004029D01*
X008283Y004074D01*
X008103Y004074D01*
X008058Y004029D01*
X008058Y004188D02*
X008148Y004278D01*
X008148Y004233D02*
X008148Y004368D01*
X008058Y004368D02*
X008328Y004368D01*
X008328Y004233D01*
X008283Y004188D01*
X008193Y004188D01*
X008148Y004233D01*
X008058Y003779D02*
X008328Y003779D01*
X008238Y003689D01*
X008328Y003599D01*
X008058Y003599D01*
X009058Y003599D02*
X009058Y003779D01*
X009328Y003779D01*
X009328Y003599D01*
X009328Y003484D02*
X009058Y003484D01*
X009148Y003484D02*
X009148Y003349D01*
X009193Y003304D01*
X009283Y003304D01*
X009328Y003349D01*
X009328Y003484D01*
X009193Y003689D02*
X009193Y003779D01*
X009328Y003894D02*
X009328Y004074D01*
X009058Y004074D01*
X009058Y003894D01*
X009193Y003984D02*
X009193Y004074D01*
X009238Y004188D02*
X009193Y004233D01*
X009193Y004368D01*
X009193Y004233D02*
X009148Y004188D01*
X009103Y004188D01*
X009058Y004233D01*
X009058Y004368D01*
X009328Y004368D01*
X009328Y004233D01*
X009283Y004188D01*
X009238Y004188D01*
X033343Y022027D02*
X033401Y021968D01*
X033518Y021968D01*
X033576Y022027D01*
X033711Y021968D02*
X033945Y021968D01*
X033828Y021968D02*
X033828Y022319D01*
X033711Y022202D01*
X033576Y022260D02*
X033518Y022319D01*
X033401Y022319D01*
X033343Y022260D01*
X033343Y022027D01*
X034079Y021968D02*
X034313Y022202D01*
X034313Y022260D01*
X034255Y022319D01*
X034138Y022319D01*
X034079Y022260D01*
X034079Y021968D02*
X034313Y021968D01*
D13*
X032293Y021843D02*
X032293Y022143D01*
X032293Y022443D01*
X032093Y022443D02*
X032093Y022143D01*
X032093Y021843D01*
X029993Y021743D02*
X029693Y021743D01*
X029393Y021743D01*
X029393Y021543D02*
X029693Y021543D01*
X029993Y021543D01*
X029993Y016743D02*
X029693Y016743D01*
X029393Y016743D01*
X029393Y016543D02*
X029693Y016543D01*
X029993Y016543D01*
X032093Y014443D02*
X032093Y014143D01*
X032093Y013843D01*
X032293Y013843D02*
X032293Y014143D01*
X032293Y014443D01*
X021793Y010443D02*
X021793Y010143D01*
X021793Y009843D01*
X021593Y009843D02*
X021593Y010143D01*
X021593Y010443D01*
X014293Y010843D02*
X014293Y011143D01*
X014293Y011443D01*
X014093Y011443D02*
X014093Y011143D01*
X014093Y010843D01*
X008293Y013843D02*
X008293Y014143D01*
X008293Y014443D01*
X008093Y014443D02*
X008093Y014143D01*
X008093Y013843D01*
X004293Y013843D02*
X004293Y014143D01*
X004293Y014443D01*
X004093Y014443D02*
X004093Y014143D01*
X004093Y013843D01*
X014093Y020843D02*
X014093Y021143D01*
X014093Y021443D01*
X014293Y021443D02*
X014293Y021143D01*
X014293Y020843D01*
X008293Y021843D02*
X008293Y022143D01*
X008293Y022443D01*
X008093Y022443D02*
X008093Y022143D01*
X008093Y021843D01*
X004293Y021843D02*
X004293Y022143D01*
X004293Y022443D01*
X004093Y022443D02*
X004093Y022143D01*
X004093Y021843D01*
D14*
X020193Y023143D02*
X020193Y025393D01*
X021193Y025393D02*
X021193Y023143D01*
X022193Y023143D02*
X022193Y025393D01*
X023193Y025393D02*
X023193Y023143D01*
D15*
X023193Y022993D03*
X022193Y022993D03*
X021193Y022993D03*
X020193Y022993D03*
D16*
X020193Y021693D03*
X021193Y021693D03*
X022193Y021693D03*
X023193Y021693D03*
M02*
