%
M48
M72
T01C0.0197
T02C0.0236
T03C0.0320
T04C0.0400
%
T01
X7943Y5893
X11193Y7643
X13818Y9643
X14318Y9643
X14943Y8143
X17193Y7643
X14943Y5643
X20943Y5143
X21068Y4643
X22318Y5143
X22568Y6143
X22193Y7643
X22568Y8643
X18193Y11643
X20193Y12018
X23193Y12018
X26693Y12768
X27193Y14643
X30568Y13768
X30818Y14268
X30193Y10643
X27818Y10143
X27193Y8643
X29693Y5393
X21693Y3143
X14568Y12268
X13568Y12893
X14193Y13893
X13318Y14518
X13318Y15143
X14818Y15143
X14818Y16143
X14068Y16768
X14693Y17143
X14193Y17643
X14568Y18643
X13318Y19143
X13943Y19643
X16193Y20643
X14693Y22143
X19693Y20143
X21693Y22268
X23693Y20143
X27193Y21143
X30068Y20143
X29693Y19143
X23943Y14643
X23193Y16143
X20193Y16143
X18193Y16643
X14818Y13143
X7693Y13143
X5693Y22143
T02
X2693Y4143
X4443Y7393
X8443Y6893
X9068Y8143
X4443Y10643
X4943Y12643
X7443Y19143
X7943Y20143
X26568Y9143
X27568Y9143
X27693Y7643
X27443Y7143
X27193Y6643
X27068Y12143
X27318Y16018
X27818Y19643
X14693Y4143
X9693Y4143
T03
X11693Y4143
X12693Y4143
X12693Y5143
X11693Y5143
X11693Y6143
X12693Y6143
X12693Y7143
X11693Y7143
X11693Y8143
X12693Y8143
X12693Y9143
X11693Y9143
X11693Y10143
X12693Y10143
X13693Y11143
X14693Y11143
X15693Y10143
X15693Y9143
X15693Y8143
X15693Y7143
X15693Y6143
X15693Y5143
X15693Y4143
X17693Y4143
X18693Y4143
X18693Y3143
X17693Y3143
X20193Y3143
X20193Y4143
X20193Y5143
X20193Y6143
X20193Y7143
X20193Y8143
X20193Y9143
X21193Y10143
X22193Y10143
X22193Y11143
X23193Y11143
X24693Y11143
X25693Y11143
X25693Y10143
X24693Y10143
X24693Y9143
X25693Y9143
X25693Y8143
X24693Y8143
X24693Y7143
X25693Y7143
X25693Y6143
X24693Y6143
X24693Y5143
X24693Y4143
X24693Y3143
X23193Y3143
X23193Y4143
X23193Y5143
X23193Y6143
X23193Y7143
X23193Y8143
X23193Y9143
X21193Y11143
X20193Y11143
X18693Y11143
X17693Y11143
X17693Y10143
X18693Y10143
X18693Y9143
X17693Y9143
X17693Y8143
X18693Y8143
X18693Y7143
X17693Y7143
X17693Y6143
X17693Y5143
X18693Y5143
X18693Y6143
X11693Y3143
X9693Y6143
X9693Y7143
X9693Y8143
X9693Y9143
X9693Y10143
X9693Y11143
X9693Y12143
X9693Y13143
X8693Y14143
X7693Y14143
X6693Y13143
X5693Y13143
X5693Y12143
X6693Y12143
X6693Y11143
X5693Y11143
X5693Y10143
X6693Y10143
X6693Y9143
X5693Y9143
X5693Y8143
X6693Y8143
X6693Y7143
X5693Y7143
X5693Y6143
X6693Y6143
X2693Y6143
X2693Y7143
X2693Y8143
X2693Y9143
X2693Y10143
X2693Y11143
X2693Y12143
X2693Y13143
X3693Y14143
X4693Y14143
X5693Y15143
X6693Y15143
X6693Y16143
X5693Y16143
X5693Y17143
X6693Y17143
X6693Y18143
X5693Y18143
X5693Y19143
X6693Y19143
X6693Y20143
X5693Y20143
X5693Y21143
X6693Y21143
X7693Y22143
X8693Y22143
X9693Y21143
X9693Y20143
X9693Y19143
X9693Y18143
X9693Y17143
X9693Y16143
X9693Y15143
X11693Y15143
X12693Y15143
X12693Y16143
X11693Y16143
X11693Y17143
X12693Y17143
X12693Y18143
X11693Y18143
X11693Y19143
X12693Y19143
X12693Y20143
X11693Y20143
X11693Y21143
X11693Y22143
X13693Y21143
X14693Y21143
X15693Y20143
X15693Y19143
X15693Y18143
X15693Y17143
X15693Y16143
X15693Y15143
X15693Y14143
X17693Y14143
X18693Y14143
X18693Y13143
X17693Y13143
X17693Y12143
X18693Y12143
X20193Y14143
X21193Y14143
X22193Y14143
X23193Y14143
X23193Y15143
X22193Y15143
X21193Y15143
X20193Y15143
X18693Y15143
X17693Y15143
X17693Y16143
X18693Y16143
X18693Y17143
X17693Y17143
X17693Y18143
X18693Y18143
X18693Y19143
X17693Y19143
X17693Y20143
X18693Y20143
X18693Y21143
X17693Y21143
X17693Y22143
X18693Y22143
X20193Y19643
X21193Y19643
X22193Y19643
X23193Y19643
X24693Y19143
X25693Y19143
X25693Y18143
X24693Y18143
X24693Y17143
X25693Y17143
X25693Y16143
X25693Y15143
X24693Y15143
X24693Y16143
X24693Y14143
X25693Y14143
X25693Y13143
X24693Y13143
X24693Y12143
X25693Y12143
X28693Y12143
X29693Y12143
X29693Y11143
X28693Y11143
X28693Y10143
X29693Y10143
X29693Y9143
X28693Y9143
X28693Y8143
X29693Y8143
X29693Y7143
X28693Y7143
X28693Y6143
X29693Y6143
X29693Y13143
X28693Y13143
X28693Y14143
X29693Y14143
X30693Y15143
X30693Y16143
X29693Y16143
X28693Y16143
X28693Y15143
X28693Y17143
X29693Y17143
X30693Y17143
X30693Y18143
X30693Y19143
X30693Y20143
X30693Y21143
X29693Y21143
X28693Y21143
X28693Y20143
X28693Y19143
X28693Y18143
X25693Y20143
X24693Y20143
X24693Y21143
X25693Y21143
X25693Y22143
X24693Y22143
X28693Y22143
X29693Y22143
X31693Y22143
X32693Y22143
X33693Y21143
X33693Y20143
X33693Y19143
X33693Y18143
X33693Y17143
X33693Y16143
X33693Y15143
X32693Y14143
X31693Y14143
X23193Y18143
X22193Y18143
X21193Y18143
X20193Y18143
X12693Y14143
X11693Y14143
X11693Y13143
X11693Y12143
X11693Y11143
X2693Y15143
X2693Y16143
X2693Y17143
X2693Y18143
X2693Y19143
X2693Y20143
X2693Y21143
X3693Y22143
X4693Y22143
T04
X10693Y22143
X10693Y21143
X10693Y20143
X10693Y19143
X10693Y18143
X10693Y17143
X10693Y16143
X10693Y15143
X10693Y14143
X10693Y13143
X10693Y12143
X10693Y11143
X10693Y10143
X10693Y9143
X10693Y8143
X10693Y7143
X10693Y6143
X10693Y5143
X10693Y4143
X10693Y3143
X9193Y5143
X8193Y5143
X7193Y5143
X6193Y5143
X5193Y5143
X4193Y5143
X3193Y5143
X16693Y5143
X16693Y6143
X16693Y7143
X16693Y8143
X16693Y9143
X16693Y10143
X16693Y11143
X16693Y12143
X16693Y13143
X16693Y14143
X16693Y15143
X16693Y16143
X16693Y17143
X16693Y18143
X16693Y19143
X16693Y20143
X16693Y21143
X16693Y22143
X20193Y21143
X21193Y21143
X22193Y21143
X23193Y21143
X31693Y13143
X31693Y12143
X31693Y11143
X31693Y10143
X31693Y9143
X31693Y8143
X31693Y7143
X31693Y6143
X30693Y4143
X29693Y4143
X28693Y4143
X27693Y4143
X26693Y4143
X26693Y3143
X27693Y3143
X28693Y3143
X29693Y3143
X30693Y3143
X16693Y3143
X16693Y4143
M30
